<mxfile host="app.diagrams.net" agent="Mozilla/5.0 (Windows NT 10.0; Win64; x64) AppleWebKit/537.36 (KHTML, like Gecko) Chrome/139.0.0.0 Safari/537.36" version="28.1.2">
  <diagram name="Page-1" id="47RkFjGvRrSXEQP4ms0E">
    <mxGraphModel dx="839" dy="465" grid="1" gridSize="10" guides="1" tooltips="1" connect="1" arrows="1" fold="1" page="1" pageScale="1" pageWidth="850" pageHeight="1100" background="light-dark(#FFFFFF,#FFFFFF)" math="0" shadow="0">
      <root>
        <mxCell id="0" />
        <mxCell id="1" parent="0" />
        <mxCell id="iRurOOvZnpyoRWt16AXX-9" value="" style="rounded=0;whiteSpace=wrap;html=1;fillColor=none;dashed=1;strokeWidth=2;strokeColor=light-dark(#B46504,#000000);gradientColor=none;" vertex="1" parent="1">
          <mxGeometry x="90" y="30" width="450" height="230" as="geometry" />
        </mxCell>
        <mxCell id="iRurOOvZnpyoRWt16AXX-5" value="" style="shape=image;verticalLabelPosition=bottom;labelBackgroundColor=default;verticalAlign=top;aspect=fixed;imageAspect=0;image=data:image/webp,UklGRoJCAABXRUJQVlA4WAoAAAAYAAAAWwMA7gAAQUxQSB0tAAAB0Mf/n2o7rfb9zcxJQghBErS4uxaXKg6l6AVKizuFQN0eCuXiWqBuFK0gpRQuBYpLcbdS3AkeOXt+M7/vH0nO2bNm7Z308nouETEBmDn3a31qo427vdGnV4dgFqxgoU9vtHHRjT6zNAT/CXe4jYndTrwLflaMxwQmFk38JcJ/xAKu46B2e5C3zao5lINadJA//o/ZDVTrtvLOWTVfpVpR5Tkf++9j/33sv/8r2DUfabn6/9tyzUda/voRFo9L/09Cl32k5U8fabnwY7ec95GWX36k5Vf/J6GffqTl7I+0nPN/mxAvs+ZO+88YIANOZsGd8p8wwcLbzQUguI+ieKxjz5y+QQDgZRaJOOeH6Jz874a1ptD4yLFrAJDgZm04Py2G7acr/0vhk4O5Y6Te8fVFIeK9m0UhzgdMK+OWWu2TG39+880+//nPrLvmCouNxfSDdw077j9lzJaiGd+7ZreFIfBOZj1IEAALrHPYr2/557NvTeoYp6tT3n3jqTtvveD7m645H4DgpUnHzjqQ6bppZbozH2ZZlcY3L9l2TkAG3KwF54Cw/Hf/8iJnbGnazCHac3/cbU4AoUE/miUgfiCgixKCl5kMM8uqND77szVmAxBcPyLO+zBj772TGnwoLF3wDpjrqNuVZFJVTSnnnM3ydFPSaRONr/922xGAdy0mYcZ+hm7GMt1aXCjsy4TSvoQLgun60XONn2fRNdZZe7U1Fhg3fq7RHtN1QXqfC9IiZpY0kXzw2FUFkCB9hPjgnKCLIs754J00qPHiBWv+YiLNNGYrmFNMND5y0CiIl9aamXReAGDRbQ4/5dLbnn5r0tROtpzz4NQpbz5126UnTNh2IQjE+R7nBHC+TcwsxUzm245cGgLnpS9w3gumHb/8ultsv9Me++6351d22Xnbz6y90sIDmL5476QRgm0O3ne/gvvvMx4yNO+w6gUdmqo1MMdMvnz8QnBemvC95gnGHfiVPb+88847br/91ptt/tlPb7L+huusudYqK6+0zLJLfGKRBeedf3QdDmsfts9+Bfc9aKfQPcGoXQ/cd7+C+x64g++KeC/Ayl/51VMfGodoxiF/8MCpX5gT4r30MI/1dpsL4ry0iZmlaOSUv+y6AES8kx4nzgMYs9Y+p1/72CvvdzhUG/zgzX898D+/+/726y3mASB4KedxCxO7b4zrwA3FBSxw7lTmmK2pqsa3jhgL5xrw3eY5rM7MIWfVwalTP/zwg3ffffuNt15/ccqZCDUM4HhGFsx8cgykWw7zv8jMgplPzg4ZlngHLPftuyeRZI4dTSnnnG3anHNOqp1oJPnCbzf2EC+9yuOTE/nSTzcOEO+kTcxMleQbF207D+CCk94lQYC5tvzlYx1OPyeNnU6Mqtk44/TG3b/58rKjAARf7gZO6XR/UD9cY0he3F4vMGm2Jmc1PrU7xLfSqhyMUVVTyjmbGYepPA8DdfyIkzoFp/Kh0d0TjH+aUzsFp/L+UcPzgpFb/vl9GmNMOVu3c04dJfWmvUbDud7ksfwLjKTess84wHlpFbOsSuNz524yGpDgpDcFQdj4Z8/RaFE1pZyzzTjnnFNKqhozSXbuPfNTswEIUuhmqnU/c3DNoXgseAlzzNb0FI1XLYHgWmg1Jpt+HnZKKQ3yd7Ucz44VTHyszHNMVjDx4WE5D7/LvbQcU7biOWkyPrb3bPDSgxwWfZKaU0zGl05cTIAgrWJmOSqN9xyzvAckSM8RLxix5z+NVE3Ziuakqkbjv07d2AHOt4J4bP0iNVmNSfneoRDXPqsPobuR59VybE1zP9MwD2xxDy1ptqZqMj74GTjXcxzG38NoZpZVjVOv3M4B3rWLmaWYyXTb15eEwAXpKc5hYJ+naTkma2bWmEnefdCiEPFSnXP4Pk2t0qyZv5kLvsw3ali1rY5mLPPEmBJzPt0o57HoBWRSa7Qm5p+Oge8xIriS0WaY1MhHj5wP4r20i5mpGjnlqn3GQMR76RUS4Hd6jJbUGp2ikR/8Zv0BOC91OfjfUZPVmyKfWAtBSny9hpWZ2+mHpZ6eqy08/BHvMqk1XpX/XAq+p4jIJYw2ZE3k6yctDXFeWsbMVGl84/yt54aId9ILnMMyV5OarPFZozHf9l+jIVKTx0L/oGarOnLSrggyUzBnO8gAFriCOWarMEe+uSl8DxGH37Jjw01qfP/CDT2cl7Yxy6okX/jJJqMBF6T1HMK3PqSq1ZljJh/4L0FFHss+ymi1a7YJ8NK9b9SwQrb+zXls/Ro1WaVqU3aG7xnicBajdTFHo/5juwGIbx0zS6pkeuSHS48EJEireSz4dya1erOq8e/zQ2rxWOsFRqs/KY+FSNcm1LB8styvOXHfzhatXrXB7eF7hccx1NwNsxyz8Z5dA9rILGtMpN545GICuNBeAZu/ypisbk22LnwlARtMpFobZuVpcNKtQ2pYTvs2j9n+QE1Ws/LDz8H3Bo+jqNm6nTUZH9kO0kbTajRy8G/7zg+B89JKAzgkU6125Z/gUcdIbPIO1doxR54M1yJLT2afFrDQLYzZ6k58exm4XjCAvZmyldRBHgnXVmamSvK9X287OyDet0/At5mSVZ+4Llwl+PyHTNaWWfl1hBaZ0koBP2g9j9X/xWjVR942FtJ+AZ/vWLaikWfCocXMTBNpz529yWjAByet4vFtarbqlefBo4p1sc0UJutmzjmpRlVNOTfHcrYt4LtzaA1LftBS3267gM++yWgtGPk7uNYL2Oh9JisaebFAWs4sx0TmR49bMwAuSHs4fJ0xW/WZ7y8HV0Vn2c2yqXVRO5lDzh3NDbHEd1eC68pBNSz2Tv8x++MNGMAOk6jWhjlzR/iW81jrHSYrqrxjDBxaz8xSTKTecNTCDnC+JTy+wpSsfuUx8Kjig5M/YLJhJyVp77506+UX/uTnF1x2xysfGmmammHKB+eDdGOfGhZ/tzf9e1yJ0Y8Vm81hr2TJ2jHz1SUhreax/CtUK6p8fkk49ASzrJrJyVfuMx4C51vAYcVJTFZ/4gMDkBrMjDnbcFMyTrrme1vPFQTTlbDwF79/3SBNcyOsw9/Cd2PfGhaZ2JueG1/TI3PgEKZkbRl5IVybeSz5JNWKJr6zNjwaNbWmaaOa8Z0Lv+gA8b4ywdh7qFY+67BTHt628KgkZRtm1szHj1oE0xVxTgTTypLffJJZG5ET94Fvh0+83puereqB2U9lytaeiZvCt5fD/A9TrWjOujkCGrVOJ8VclVmOibQXzvj0SEC8q8nhx4xWPimHrzENKfJ3cKhl2Kp8ev/RgAx4EcxQxAcRzPODdxlzAyzzjaXgZsoyH/8TNVuXc05JVWOMqppSbobyZkhrCWa/mWpFs3IPBDTZYeV3aBZTrsnMckxkeuzY1QeAEEQqcVhPmYulRD71s9033GiDjT/16Y12OeL7Z/zp7okkNc0oceISraGceuo8cEHQRTfgsNhVTKkBprxKZHhfqWGBl1rqO+1lZtRs3cwpRuMwc0xNMOUe8C0lHn9gtLKRxyKg4X6Zr948iWZRc01mOcdMTr3r4EUC4L1UIbiMaqXVeMeOoyEYsiy+zc9eJVOcXuSeCGiFHPnA6nBe0GUXIIdnSw0w5Zfgh7U7U9/wzTbLal3MHSXJ9O6//3npL8740Y+OPfW3l9/zSiazNuI2SDuJw8/ZsbId/gIiTZt2hUNunkRSY01mllPM5KS/7D0egPfNc9jQspVWPre7h/NDdw6CsYc8TOZoZsqrRNAKWXnxHAiCgi5gm/eZGvHYGMhwvlTDfC8wtdIEant1MyaSgw+cvd/nlxDMWDD7psc/RWoqZolbwLeReJzBaGUj/xJE0HjnHQTLHX7jIGkac0VmllXN+M75288OwPuGeZzHWEp52WxwXjBcFxwwYpu/kUkz318SrhVy4ncgHmVlABu+RS1nkRPgqxOMe6bvy5rJib/abylMX5zz3jsnAmDEznczazHlNZA28vgR1cpG3jwSDlV6LxAseeT1HdJUc0VmlmOi8eUTPwXAedcgh0+8y1xI+TNBEHRVvEDWuzIx8psIaIOs3B9eUDxgkw+YyyVOXBJuWFrBv/uP2R5tliZ2rt15DgHgghcMWbwHwl6vMOZCmYNrw7WOeHyDamWVTy0Kh2pdAOAWO/K6KaTFlCoysxwzmR47Zi0PBO+a4rEXk5VVXgzn0HUJHm69S3m7h7RC4oEYEDQwYPucczGLPBF+GDsxNW/up3rTc/OWGHiQ2pys5BXrAfDBCbop3mGJf1BzGYv8PnzreOzPlMskvrUaPKqWIMDAUhNumkRaTLkiM8udTHbumLAMgOClEQF/ppZJfHE+OBT1HthgGTi0QeSZCGhmwCHUcpkTF4UMbYca5ny8N728EFwrZOWDmwLOC7ovQXAmtVDiUwOQlhnALiknK5qsszk8ahcXHOCXO/SWSTRGzRWZ5RQz+d5fvjReAO+lmGDup5nKKL+MgNLeQwRtoLw8OGkIPC6kFrPIH8HP1CXT00fCe0FZ53AiU5nMtA5cuwRsNdWSFc0574qAVnTeA1jh0Jsnk9RYkZll1Uy+eeH2YwB4V8hjdWYrmvjveSHFAO/QBon/mhsOTXWY63GmYpkvj4bUNubhljqyJyjf+SyCR3kJuISxiEUei4FWCVj5HSYrmpV7YwCt6byDYJnDr++QpprrMbOsasYXf7oBBPCuzDbUMpEXIKD6xmTbFh7N9diWuZgl7gM/pB37iCN6QeTTqyIImugw7kmmIsprAWmRgOVeoFrZyBPg0arOA8ASX7tukMyquR4zyzGR+uj31gTgvBQ4ppTyO/C9Qnk2Apoc8CtqMeUNAhnKOlU81FIH9YDIhxdHQEM9NmXKJTJfm6dNPJZ8hmpllb+FQ+u6AQHc4kfdMJm0qLkeM0sxk4N3HbGsAMFLt35TKvGAnpH5ykKQRjksNpG5lBlXghvKGjWMuqdfUz6+CDwa6/FnapmpC7SIwwIPMVrZyL+PgLQPADcgQFj6qzdOollMuR6znKKR7/99pwUBeC9d+Uu5w3uG8igENDvgBMZiyrMQZs4SX10RAU3ahKmEMX+iPQSz30q1ssq75oFDS4sLDnArHHbLJBpV6zGzrNGMb/z+C3MACK4Lt5ZSnonQGxIfnR3SMMHCbzOXSnx0LKSuEf+k9hsjH2Yql23SpxHQYMHsDzEVSQu1hmDUlYxWVvnUvHBoc+c9BMsfduNUkhrrMbOsasbnz/nMAIDghnN7uevgeoNyHwQ03eNExlKW+Gn4usLt/QYEd1LLKQ/EABod8FPGIvkTcO0gAb9jtLKJ76wDj7Z3wUGw1ITrO6RpzNWYWYqJ5CPfXR0C8W5It5TKnLISXC/IfHk8pHGCpd9lLqU8uz97deECHjc0QHkFHJrtcQhTCeM6LSEBx1OtbLbBrRHQC10QwC3xteunkhY1VWNmKWZy8PavLgOI9zKj60uZ8lj4XhB5HDya73AJtdzDIyFVyc0tdXCp1xetK/P9FSrYlrlE5ibtIB4/oOZCyr0R0CtdEMAvceQ/JpEWU67GzFKk8cP/2WtBCGb0x2KZE5eCb7/MKWvAVeCxFVMulC2vA18VbmypA5naLPIIBDRuq1KfawePrzFa2aycAI8eKhIcEJY57KZJJKPmasxyimZ8+cIt5prRj4uZ8ioRaT3l9XCoUh5jKmSR+9f2j5bau9USnxgNaZ0t4VsgYF+mXCjyGAT0WHHeA1jhsFsmk4yxGjNLqsy8ZkaHljPlL+Gk/XaHr8LjDGop5Z/hahJc24dF7g+P1tmuDQJ21JysbIcXi5NeM63zDoJlv3rjIGkacy1mljp8cEbrN8CUP4Vz7Zb5ztJwlWzMVCrx3yMgVV3XfyU+NgekfXZugYBNB5msbOT1s0PQo70XCJY88roOaaq5Fku8d3oOy7zPXMwifwG4VlP+BR5VCmZ7hKlQpm4EXw8crui/lCfAo20Sv1RfwJpvM1lZ5f3j4NDDXRDALfG166eQFjXVct/0BLiDWs4iLxoB327frgUBF1ELWeQeCBUN4DzGfsvyKnAttGd1Hos9RbWyyqcXgUePlyBAWOqIGyeRFlOuCQHnNMIi71wEocUyV4OrxGNfpnI/gp+pUt4skBY6oDaHhZ6gWtnEN5eDR+8XFxzglzv05kk0Rs31OGzA3ASL/Pc6CNJWiU/PBanEYTkrnngDpj/zdCICWuiwyhzG38toZbPFrRDQJzrvAaxwyE2TSWqsRTDHY0xNMOX7u8G5loq8CB6VCsY+ylQo88XQd2W+vVRFmZvDtdFRCDU5zHEzo5XN2faERx/pvECwzIQbOqSp5hoQ8D3GRljKPNHBt5PyBwi1wONPjMUmrwA3E5U5ZT5I+yi/XZVgxBWMVlj5NQT0mS4AwBJHXTdImmpqnmD828yNsBz513kQpI2MG8FVE3A8tZRxK/iZqMTHR7fTd2sa8Dif0QpHHgePPtQNCOAWP/L6yaRFzQ2Dx3GMzbAc+cwm8K59MqfMC6nGYzfmQqY8GGGm6r6R7fTDmkbiDGouFPkLBOlHALgBAcIyR9w0icaYcqME873C3AwzZWdPONc6iU+MrshhqcxSHR6NgZmqO0M7HVsTjqRaYeV1s4mgbxUXHCDLH3rzJBpVGwSPvam5IZYS/zgXvLSM8lIIqhXMO5m5kPJCyDQOqzLP/Chvdu10Yj0/xWHUXCjy7nng0N867yFY/tAbp5DU2Bh4/JKdplhWPr0xvGuXDo/FQE1jnmEqdj0gM1PXo51OrufEbZmzlU18dkl49L/eCwRLH3VDJLNqboZgjrsZm2IWGSfA+VZRTkCoSW6kFkp8YERFAb/sv65upcizasl87C0mK6t8c0V49McuCOAWP+q6qaRFTQ2AwxIvUhtjKfOv8yNIi2TuBF8PBBcXy3xu9qp+3psm9iFn12LGlK1sssENEdA/uyCAX2LCDZNIiykXg8cqr1AbYznymc/CudbIjOvCVRRwMmOx9+aewUpmuXln96Z3lu4/fl5PylY2Z34JAX21SHBAWPart0yisRwCNouWGmOm1O9AfHu8PTekogEcx06xwfEzWCHVcFZv+mCF/uNX9RRXHgWPvluc9wBWPPy2t7UcAradTG2OJeW1n4CXtnhzJGoewNGMxaaOm8GKuYaTqbMGzsNAOyWeAo/+3IURcNhuInMxeGz5IbU5lpXPfxbetULiv0JVAROoxeLiM1dXQPqoxHPhpT9zXoDPXPJusuF2BQGrvkltjpkyHQPx7XAbKju8mNE+CVfRsbO0cuIeGEAfLi4I5t7x5kRaIxCw4rOMDbKkvHoJeKlPeXVtBzVhrRksO8gKjpmlZZmT1oTvv7wDFvv+c2SOuSEIWOI+xgZZjnz10wjSApdD6jqAqZRx/RksM6WG783aMuVdc0D6K+cFbsPfTqRFzdbFbsFj3NWMuTlm0fj/IK6+i3vAhlV9Z9ZPLmPKiyDSRzkPDOzwD2WOKVtXuwYv4SQmbZAl5QUBvrrf1HYYtVBmXBJS0Tdm/VguY5FHIfRL4p1gwe8+RcsxWbe7B/HYfyq1QZYj71sRA7X9Eq6u7zAWmzquIo8jmXrS8jMTU1Iuk62zOXxf5LwTrHTuu2SKVrAAJGCjZxlzc8yUb22OIHX9FlLTAI5jp9jg+Bks+X4Nh/WmSSv1G8qr4GpJX53IXMQSX1kUrv9xHhi13V8nk5qsaAkgYKG/M6UGmVInwEtVF7XflHlmsMR7NRzcUvuUmrpq/3EtRKrIzIsfzFjGlH8bgPQ53gPz7POgMcdshcvAO/8tmjbIUuLpIq5neZzLWOy1sVXt20oee/RfNwC1TFkRl1DLWOTZ8H1NEMjyZ75GS5qteCGIx/YTGXNzLEX+PsBV9FfULMCV1EKJj4ysau+W2o2537qxnveXxcJPM5XJibvB9y3OAWHTCzs0VWtiKUjAktdSU3MsR14+Aq6WxFsqC3cyFVJejxks/k4NX2mp3fuvW1w17ywJrKeWi1jmO5+E70+8E4za5x7SNFkziwEe4ZsdxtwYs8irR8FV85Cra45nmQtFngeH6SzyZg1faqnd+q/bQzVvLYYB/IixjCkfHwvXf4j3gmVPeJmWY7amNgDO4zPPMKbmWIeXj4LUkfniQF3zflisw2MQatqFuZX2Yuq3/jmimjcWhXPuWmoZU14AkT5DgsBvcMEHZErW4CZABjD298zaHIv8I0QqmTg7pB6HxRKtcOTX69q+lQL26bcS7xlVSeIrn4BzWGYiUxmL/B5CX+EcMPbL1ytNszW6EYAX7PweY25MjjwDvpKpq8LV47ETc6GcuQN8TV9oqb2rur433T+6mpcWhIPHTtRCOafPwfcPQYB5v/MMLcVkDU+8pwlwASveTk1NMYvcF6EK4+bw9QR8j1qKk5aHq2nrPuTq3vTwmGqenx8O8DiXWsYSX14Grj9wHoJ1fvs+Lak1Pnf4UCMgHnICTRuT+eGGcBWY8kCEegbwc8ZiLwVM12HBl5mat1lPMl0Lvt94dGw1/x4PAQThdmoZU94KkT7Ae8Hs211jNE3W+BSz8YpmAM5j65cZc0NM+dhYSAUdHoOBagTuFmqhxJtQk8NnW2r/UqkPeXzOap6bDw6Ax/pTLJcx5RlwPc97wQJfe5rMMVvTc1Jj57IvjGoKJGCJG6mpIRZ5KnwFkefDVeOwyNvMhSJPhqtqk5Y6mNpvPTV3Nf8aBwGAgEOphUx5AEJPk+Dh1jz3DTJptqZnTeTr56zs0GQv7gTm1JBsU9aEa17iQyMh9azObMX2QKhqQ1orHdR/PTOumqfmnh4cLmUslPnBmnC9y3lgxBZXd2iasjU9R6M9duACQPDSIDiHXSdSm2HKv9SQOWW+ejy+QS2UOWUtuBnM/2INa7dW6reenbeap+cZwvhnmMqY8ql54XqUF2Ceg++gZU3WeFXj4FXbjYJ4h4ZLwFJPMDYjm30avnGWuSV8LQGXFkv8l8f0BeP/3TzBQpmtdCi133pxfrhKnpxrBvDYLudcxiL/AN+LXBDBEqe+QVPN1vSsyfjW2ctDxDtU6DHvVYy5CaY8D9I85Q8RKhGMfYKpkPLPcEN4tn+Y0G9lvrJgNY+MmRECTmAsZMrvwvcc5wVu0z9NoiW1xqeYjQ98dQFAgqBOB3cWNTchc+J8kMZFXgJficc6zLlQ5EHw/ci3GSu6pje9sXAbCEbeSS2UM7+I0FPEecG43e9OtJit8arGKVdvOxLwDvU6h28z5QaY8hCExmW+uSBcLYdTrWzm4OpDmbeP+GEpLXNlb3r9E/XMMQQ4LPc2cxlLfHVJuN4hXoCl/vtFMmm2pmdNxjfOXE7ggqBqCTiMKTcg8kJI4yzxc7U4XFdMeSccZjTuX/3CAI5jp4ytXeTS3vT2otU8MNtQELAfUyGLvHMkpEe4IHCbnPc+TdUan6PRHpqwEOC8oPoBHMqUy2W+PiekccqzEKoQzPsSU7Hj4Icw1xP9gsevGItkrt9/vLt4Jcr7Rg0JDpcwFrLIX8D1BOeAEbvdYjRN1viUjJ2/beMg3gnacAATqOWMeSW4Cv7pITUE7MhohRPXhBvKk32CYNRDTIXW60MWq+b+YQgWeJKpkEUegNB64p1gsaOeIHPM1vSsyfjWKatDxDu0ZcCZ1HKJB8A3zhLXg6/B4ffUQol3j4BUtuAgcwst2WHutyYt1RLw2FgtF8qcshF8u7nggDV+/i6Z1Bqf1MiHvzYeEI8WFRlxK7VY5OkIzVOeUoVgzKvMhZQnIGAIc1cx/4ct5HEYk/Vbk5eu5p8Dw0DADxkLWeIT4yAt5rxgzE5XT6XFZE3PKRo712w6AggO7eqwwmTmcr+uIfHZuSDNC9ibaqXzCnBDGftYDePfaR8RXEXtu6YsU81dfjgiuJJayCL/CtdW4h0w/vAnyByzNT3HRL561uoO4gWtG3AmYynljQJpnCl3QGgecHUx5XWADGWOR2qY5/X2cVhmkLnFLoegfczS8vWE4cBhmdeYCpnyv+FbSbwAq/3kDVrSbE1P0chHDp8X4r2ghQXLTGYulHj/bHVcC2mcw6qRuVDiAQioba6X2sfjOKq12FWAtE82recONywE7FbOEr+I0D7OAwNbXR5pmqzxqsZ0xVajIN6jreVOpmJPzFFDNn4evmkBZzFa2cwXZ4NUN/ZZppYRzPcsU1WXlbqmlcy4YjW3YHhw+BljuTdXgmsX8U4w16H3k6bZmp41Gd88e1UIvKC1PX7EWOzxKkz5J0jDBAu+wVwo8kfwGNLYR2sY82TreHyfalVdUurqdspcpU0EI+9jKmTK20ZAWkS8B5Y9+lUyxWxNTzGTDx82J+AC2jxgrwY8MbYKM/sMXLMCjqNa2cz3loEb2uj7axj9aKELEZomWPQNpkKWuGGRC3rUytXc2g14rDuVuZBF/gqhNcQLBjb+02SaqjVeo3HKldvNBniPdvfYmjmXemh0HcobBNIkh6XeZi6k/BkchjbqXmrzRt5fRHmrhzTM4xeMVm6TIhf2pMRVK4m8Eh5d9PguYylTHgXfDt4Bc+59c6bFZE3PMZNvnb0qIF7Q9h6fyVZIeauvwxJ3RWiSxwVUK5s5efVWGHFPkcy3F4FrlsfGyXJftno1f0boBsRfRi2VTTeAbwEvwEJHP09Lmq3pKRr5yP4LQrwXtL/HpiwVeRE8qsh8cT645gTszWSFlT+HRwuEO4pY4pbwjXJY4Ekm68tWaxmH+V9mKmSJzywKV5nzAmz4+w9pKVrjVY2dq74YIN6hWvG+QQG7U63UjzFQhyl/D98Yj5U+ZC6U+fZScG2AG6gllBchNEkc/ki1WQHw+GI5i7wCTioS5wVhp5syTZM1PWsyvnnOshB4Qb0ye4B3DfoGO4USD4WvxJT7YKAhDuPvoVph5fHwGM7AXVVcVSbzveXgmiMeJ1Gt7a7rk+BxPGMpU56AUI14Byz23cfIHLM1PUcj7z18fkA8ahZcfMfWIkEaAtzCVMi4NlwtmVM/Bd8IQfgb1QonPjsvZFjhjuZB8KcypjwXvjEScBTVWu9G6ZMEo26lljLll+DrkODgVzhnIk01W8NzUuPgNduOBrxD1QF70vKlyyG4RjisOJW5TOarYyG1WOJrqyM0QAS/p1q5vRAwrIE7Kwg4g50iOdvn4RsiAYcx5/b7R78EjzUmM5dKnLgcXAXOAyO2u65DU83WdE3kW6ev5OC8Q90Oq79nUTlxfw8vDfA4i2pllX+GoBpTPr8CQjEn8htGKx35Jzi0xLcYi1jiUwvCNcI5/IApW0M2LnLBzAI89mfKhUx539yQpnkBFjjsAVqOyZqeo5EPTZgf4rygchH/d6rlmHnF4vCumMPKHzIXOwShIlO+ujGCK+Mx2x8YrXTmpFW6Eu6owGG9xFzElJfAu3LigZ9SszXlU0V+NdOAgPMYS1nkz+CbJljhjLdoWbM1XdUYr94aAu9Rv8fXGM3MkvKtPRy8KyMOV1GtbOZ7i0JqssTJX4Z41z0JmP8mRise+T14dEFurkAw4mmmMqb8LcQXEh+w6h3UbA1Vfq4PWb2NHMY9zVTKlEchNCtseeUgqWpNz5qMb5y2OgAvaEGHZd5lmsZMM/+6DMRLAedxJtUKKy+AoCpLmRcvCvFOuiLe4TPPUq248hoRtAQ8TmcsZB1eMBKhhASP2b7zIdUa25+s1kZw2EJzLmU5bQrfIIfVpzBrtqanmGkPT5gPcAHt6PBHqs0wKT84aT7Auy6JF5xMtcI5cwv4yiwrJx49L0SCk+G4AcGooyPViie+vRRci2zOnAtZ5H2rwvvuiAQHjNz+QWa1/m4L+BZCwHepxRKf+QRcczzWmZKTNV2VnPq3z80GCU7QjgG7U22omvjad8dDJPguBIeB31JzqcS7BF1smplmvnziUgLADXjnRMQ5P+AAjNz1Uapa8Zy4IzxaA/CPMpWyyHcPGwHxMgzxAwIACx58J5mS9YpbXEvt0E4CuYlaypTXjYA06JNTmZuVYza+8eM1AfGCthQs8zrzkCyr8bXTloEA4kPwzjkn4pz3AuzwNNWKK3eBryEPx5Iap/7PEcsKhixY8VuP0jRb+cgT4dEd3FiFx1GMxSxl3v1pCMT5MF3nBNPKUof++V1aUmt0VYm3+Zbavp3gsMzLzKUs8miEJg02K6uRj0yYE+K8oD09LmK04SY1dm4/fMORGLpg1E430JIVV97oIFWk4ZilaGTn8Z8ftsuGyy0y/0JLfnKbg859JJJJrYGRl0GkO4LrqhDM/yJTMUvKfOu+c0Iw1CW2PPK3T3ZIqlrDq9L22q2l4LENU7GcuSd8K2VVo1669QjAebSpx+5M1sUcjew8f82J/7XVRqsutciC48YttOJmxz5BZrXiOaW14VBBipaGZZZVOa2+P/GNt96dSpKmyZoYeevsELQJPM6gljPTRL7291MP2mmX7Xfeae9Tz7/lX+8aSWrMNvyc+rBd2woB5zKWsmQfrgrfPlmT8fVzVxHAC1pVMP+z3THLGo3T2qSJr7/y/POvfEAyqTUw8lR4NC/z/W++Qh2emeWkncTp5xhTtkZGPj4ODl37ex0OS7/D3AAzVQ43dzRn62bK7LuUe7SWYO5HqaVM+c+5IC2TYyYfPXgc4IOgZT1+zmhdz0ljR40zTDFZE5UPjYFU0Vlh3XeZujFtnrE1VfnyCvDoFnBDHfA4jtoIs6Sx0+nETqcTVVPO1mXl83cwVfSzHrV3a8FjnQ+YS1nkxXCtktQ45covjAa8R+t6bM9kpXNO08/WyMwP1oBDFYPr4FMTqV1qvPL1teHRdY9LGatwmO9l5mY0VPnBSkezUyRysyJnz2wg4EhqMVPuB98aWTM58ZxVIeId2niepxrQ8Jy4JzwqWRNY501qG0S+uiYCuj+A8ytBwIHU9oh8bBWcWGyLIueUutW11IEtBofLqMWyDW4K3w4pZuNDhywAcV7Qzj9ntFbNyu/Do54RWPMVxupy5FMrwKONAFxDbYvIe+YTHF9s83oS7wotdVCbCRZ7gamUJb60EFwLqBoH//qFADiHtp7/BcbUJjnyFDhU5DxWe5mxshx58zxwaCeHNT5kboUceeM4jGq3e0e01CHV/LEJ8NiKOZcy5ZUD1WVV45vnLOsgQdDiK9zBpLk1svJEOKkKHss+zFhVSrxwDBxaCh4HUHML5MhLxsANtNvdAy11VDUXNgIepzMWs8iT4KvKMdMemLAg4LygzQWzHTOZmlpCLX8TXlAXPOa+nZ1cj7LzLeccWgseF7JTX1KeHcSh7Ub0YyKjbqAWy5lfgK9HlRz82zYjId4JWt4FrHwTTXMLZOXELeAFtcFjzBXUVElS/vszCIIWE8xxG7W2lHkkvEOf9s12g8Ny7zOXssy3VoOrI2sm3zltdcB5hx4oDu6/nmXSXJsq71kGHiUbAyfueGatIavxNyPhBW0Gh3mepNYVOXlXBEF9Z/eo77QcAvajFjPlPSMgFSQ18uGjxkPEo1c6h3EnT2HSXJMq4/chHq0A8dj6TcbUtKyZz2wHcShfGTzWfJ2xohz53LoImLa2c3vUt9sOgguppVLs8HxAGpaTGjt/28wDzqGXBodlL1ammGtJavzHChCHlgA8Fr+UFlOTsiYOnjAaTtB6CPjk64zVaOZlc8GjFU4vNtBSR1fzmwbN9TC1RFYl030HovSwckzGV85YTSBe0GPFA5++IdM01aBKPr5bgBe0Bzzcvq8wx9yUHDP1khXhPBpZHTxWepwxV5GVU78R4NEOp5S6f2RLHVOJ8leNgcenNeduZVUaXzt37dnQrByNfPSIBQDn0YtdQFj3kg6ZYm5WikY+uu8YOIfizYILmPe0ybSYGpBjIjt/Xh9wgt4Aj/HXUbUCzbxnXXiH3vDwbC11bDW/bg48jqJ2J0UjP7hyl/kA55ukauz8dbPRkODQq70Ilj/tRZIppoZkjdkYb9xtBJwXtAzEOyz+k8m0FHMRjYnG189dA+I8mtoC8Bj5bWXShmnmB9/x8IJeMaqlTuoB8LiccXg5ZtLu+vrCEHgvaEyOiXz9x6tDxDv0cu+Akbte9h6NSTXlMjmpZhqfP2sViHhBE5sGOCdY9PQ3aKaacjeyqiYaJ11z4FjAeTS3DSAe691KS6k5SRPt/KXgHIY6y8Jh4ZeYhpZUzfjsKesDkCBo4vSyZvKRCWMBCYJe7zyABff53b9J0mLUlFLOQ8s5p6QxGsn86E83GwOIR0ObBzgPjNv7qvdoNI2qacaqMWZO+8wf9h7vAefQ5FaABIza6zFa0tSAnFWN8U+rAV7Q92zJlKffrVOr+VWT4LGDpTyjrGrGt/74+dkABEFDp8nR2LnsCyMB59AXincA5ln/+1f9O3L6OXY6nThtpxMTp9957NJDVx4DIDg0tgbABcAtusf5D07m8PMbt59/6OpzA5AgaPYAfscpsctTeVtTAO8x2z73J1I15xI5xUjj279Y1cE7DHMAx3FyLDmFmxU5iVNjwUE+UMs2NJpZzjklVY0xdmYYY4xTeWa3DuWgFh3k2Y1CwLHU6aVo5KRr954fQHCCxjqsNYV8/exVHCQI+kfnAwDMve6W37j4/ufeiRxmev/Fey/6zpZrzQEAwQsaXAfgvAMwatXNvvbrax9+7F+vvfraM4898vfffW+bjRYPAOC9Q+MHcAGVXU68qzkQLxj1mUveJmna0ZRyHlrOSWMnkcZ3b9hrUcA7DHsAxzOypHKLImcxsWDmE6OrcPisaTR2P/Fn3TqSiUUTf9EswYjbqWY5ZrJz/2HLOcB5QZM91k+PH7AA4L2gzxTvPaY7+9Lrbf2V/fc54qTTTz3+6AP222vrDVacE9OK917Q7FoAOO8F0x85/3zzj8IMnffeoUaPPX5+2hldPu0nE+AaA4gXYME9L3hBOX2znHNKOWczTn/wmQv2WhIC79FFj61/eeoZJU/7+fJwXXP4wk9OO6Pg6ed8c6AKYGDdDdf/1Kc/t/lm2+zwxR133uUre+653/T3/d4Pjz3x+J/sBNcNh/X/fN75Rc/7855wTYLDCq+yk0l76oR1AuC9Q8MF8289CuI9+lPng3eCrorzwQuaXxEA8d47JyIARMQ5H7xDPyjeAQhr7/vfV9zzytQOh2qDHzx783nf330lAHDeYVZrwBdo9tq5mwZAvEed4h36W3HehxCCd877EIL3TlBrXUMUEbShuJINAyBBMO3AnPMstuEW2++2x177f3m37TddZ8G5x3hMK0HQfXGlpYi40tX4GYdh+2mddEsa2DQ4/L8bdhglgPOoVAJmpluiX3UhCLoqwTvMshUngPeYRTpTM62IiPNDdCIimLUrzgtmmc70zIoWzEL9XxizVD/238f++9h/H/vvY/997L+P/fex/z723/9J6kZ2UvfVpnzE4xYmdt8Y1/4oh8Oex33vBwWP/tZYyP8uAwBWUDggfBQAADCOAJ0BKlwD7wA+dTaXSSSioiEiWGrokA6JZ271NqmrABVjUaHOf8x8gIXxAEPsyuoW+Z/qvJr8dRKX1ravqA/Lv+39QvpEeYD+c/4z91fd59CP+Z9QD+u/7f1jfUF/tn/M9gDy1/Ya/cf93/gJ/ZP/9dYB1I/WH/IdvX/O/v3VFYgOhBJJuF9hsqyF5yRJSHJ3+9/9T2APz36UWcrUI/m39/6t/7o///3Lv2A//5Hpq1Wx2qtaZ1XxIVQVOB1S1KRL0+zlDcXnT+Wgqy/EtSkS9Ps5Q3GHSFWx2qsq8xXSFWx2qtalIlkUuLWqtalIl6fZyhuMOkKtjrIFukiXp9nKG4w6Po/b0tjptQGGN0HSUKtjtKDzFRWvdvtwiO4dH2Mlp2LY4sGXDj2Sti9d7oze5BpSjS6S7gaCv+DMS0/fzelLAXVlZeNNR/5GOAqV57FNu+djxn9/+u/ubb1I7JCXCM9+I+CW1CP5FyrT5IXS3o/Tv/0AbH+VQS4PtEkeiGkj9LW0f/y+s9NMKgBPjJtuOInTvZ5cyOOtdYRVjhrY2WTTejSM651jETpTcx75OVg5T25Xkp0MGVQVscUW+Sva3Fj3K/hu/jfe/PiA5tLF4e+TViJKnlFVok77GtY7vA3J8mg5sSXe96Hle9VtHTr2+a3y5+XtLx7FrIDatkQgeSEs/M0YAe9Gb/NnmW5goJAdMfrlYf719SzvaJWFOjNeD1/cvOdVHHsRIjBFiN1nTmLqH+Ni7W/ue218bzOogwVee9DT/hdKinOFMFWsREPIHQYiWWukNxnSUiWZFUeevNYGLuc1UNguibb6DtY4JF+YKmJF1+ZlXOkWA+SMq+A8fhISK/udesiLsiYJrEG6mA2cE83Ipv1QTt11/6Wx2kWiv4Q3OLwmPTyYPf13ESUlwrHPnpk9xz/tBOHgnn/Tf7QnMdOWxi6lNEmVxxLV6ah1DW6K66jT5oh5RRwB2OCCq0HJF/9Pgx0gr2NYhoeIoF/talKjYAKJHB/9ZbfnwInJ3HDl2dX6r6wDDd1XCJPjR2r0aCKUCz9Bd2iXeOzqwPxLAgmWJonvJz9wSen3K97oKYY45HiWhWML0PPR0f4mOev78OSs1YKMEfzmwKtqq1SiIXtAPYHgU9/S+eKCzCBb1PQhDUjKKM6OA+pYNQjabUP8lXZM7Hwjb40pwRI317JFSCocoGTaLT/5mcKKcnY8Hra7fCQaYe5oiM+y5mOzLdBSSJP8/0typlXzgXEhcArLVljvPFSX+xJ2OJevgydCaRb7CLBJ/eGN8rWDpR1XuE3Lx9UO6zrJUIvZZMOb0885YhodfJlnxjSfLSeyQfncRd/792qJABk2JgrYEsZADK+SXDU5oj43reJqPjN2TNey+PWj/7H26QqQOn2c58qyUEdO6f8Nxhz+ceWcobjDo+xLzlDySGrXVEnVrUpEvTZPvUvjpCrY7VWtSkS9Ps5Q3GHSFWx2qtalIl6fLC20cqO1VrUpEvT7OUNxh0hVsdqrWpSJen2bYAD+yBV7vxSsQvulTB/rcL63XIB0l8/+Rx71GmR4Ub10wKXljgBgwwShj6AAAl/imVrNVZetBcxQA7mtH1Ngjgfx/dsLHTPmYs048c0hyoTYxyyHGVohYvtG2R3PMl4kmPlmMruxE5ni/IfWIz8j/MDls8XYyUV72grXTsSDWEn5EQ2+/G1L3Qn7+Ce74SmUmNaG747bgx8Q7RcslAidAzb0kIhUNkQZ+vGKWYimTep/IX1IJ4vaEFVLiDDsXajT0Din1RCSKkc4vkKyXLyvPbd2csi3rO7xVttYkgVgwL4ZErAPLDrzKT5QVdV0h9s6nnQSzsoDE87shgMocBMT+Wffzp++Y+Z80dBGUUc87NdTJi2DYGgsp7IaKHOkRxK7G5njIYM0P/kfD7Pphy3KPoKcWKwpd+GpM1mzHPUQBnuVrBWakKzSBq3BeCj9rQA9MzJkWAbjPIxwFzKzIckLzspynBLYq9pPadnTjafa9rHYZslowkoShcaKJvHAw/WQL/WQQCxMkruJfT0sEnZW1XyPcqJ3hFgTrFe8LRNtoyY5+n2S7tSTkHVHLUFbHC5wIxoyQJW8pFZSPqK6qOYlKdU/xh4Z56z7cF73mq7sq5wFOBbHM7QomUMZpSUJVXAr2+tm2k8UUu6NkvuhdIO0b5rUXNzy7cIlFbpy/wA9KFzgURxG95gUbh0CHlo/NebxDmx87xxiIEShItCSigpPz+ASzFALveUKj9wQUn6BmYIXWPvst4y2tFMPbKHCk4qzcbvxec+nSTGDOjhngJIY4t6//z/D1WFWjP/Nzp+/h+ys2b5mqhR/mtKeVnoDtuY7TlMywmsiu0izHZbj9Jy2/3m1eH7Ia8A3zuu6xDX3nRqRPaPSUrbIk0dK/vENiXjYF3ZYGrVjAV4zqP9MCcEv6+u7UtdkUHrxYSk7JjPIwzhSJ6Un1LAbKzIlEKcFv8f1dg5P0KXh/tHCmv2oFvPGeO0Y7BRsz6Lw5P3iOZK1DyThPLbxFmGrhTcyZIhavjNFAuWL9xZ4Yrd7Ke+NzNvnkDCv+sAOHCshcUeOiN6zIory/DVfNkoG+YxxNjz85qYpGJH+R6QsmvC4hicBf016cgaPXbv4NN3az/y3BxSUq1rNlldEHquWCK0H0RMtLzarr/DIDn47Cg3Tw8bhau/yE4zfKe/MRuuJgpwl94NQfDvtkIjco0bPg90qVciaoiydMWikgo23QZpxtVNNWV3pmwBJXaJCv5Ed75TwJyjv+hIwo7kMKXbZwW+mB8waYdaMmVVIV7DdCboU9fFmNqxAHFl+zU723zDBe9bOEgyemDR8fZG2D2RtzbI422plY8jdEX7Le+0CXsOPoWIdkzOQoekdhBanO7ypG7VqMZGMY3iCNMJ0ODQL57KOHvF90NAqTq7CObGb2/Q6Fv0QOWk3Cdv9yDU7CgtZR5bQdL0E7i+mww4OKHHmlyeOSE55doF26x7q2yf0hF8BqOoYKu2aaRWs/0NeGlmyq0jp99LFTTUHauzM3/+UHvycw2DHANXZ9GJSaRdWVGmOjsdrTTNm+fN9EZwehgYJ9VN3gAXwHhxGMZdsKJ6HXRSAOeGeYE/8WFkAfcqJ8UnCUeMpu552RhbfqB2A6UkgXwTNEC9dZYrbV9ymievBw3uT059Anlet4eUgjH7KZXYoQAUqS54/4k7ZV2VPZocK8JhNfl9OTVZeqKu70t3A2myxP/5Tpf/yPepGO7mPAi8yXVV7fhkeh0OzeU7tE3Cf0UIxAA0k7GkdXTp5VRjii3A/DmBrxWHOq6rJ5yagrf98wZcRaYzAFZ4GgBhoapExY6h9sHRpc382xaU55uW1cCZTGRacbkKOPpCYX+nXjdCKpTZH9XnbAi+dDrFcRUfjrFvJ07Z8wcUmX8TDUc1fLkkz1n1/fGoCNJAv2BlEBZ+u41EG9SxbuYMmWq1BS1gom/63R1klApC+5TbTIf97qhbsrJp9ym8dxpJ+TJbmPRmn1errln+9fQRPYe8KVd8CTZiageqkU0MljMdFTQva2j0MW6uPFbIcFX/ikF2O9dkCOlSey+TwF4HnJoXYGPQ+b+fXtO/XdSgwJDvyudow2QbtTKCc5QfxW3il4iY1KtVRuHxwelKlJUgnlu/a+gbQl4mzS29rH7mwY6xy0fiWtSbJeBv1RVrjR/VCj87KXIwuiFD3uEBwP/kO6k/qkZW2q/v/QQ3D8xGNuCXn3cMLeUW8O7GBNZWkMgUAZ+/jgtvvsPKCN6DL5AMjFGxlAm2VvJn24waHEmFcPtul69TvjqQK0BY9OOw66+ylpWziZ7C7LY+x0o9sVJecfasiqO+M18MRPJ2LjasTfMC5YA2B8ZrIP/d201X/ZiW0Db+XvBnHKbmq/VfIrzukD+xRBce4THi6t1FTEp3v9xEcdhb9eiMupagf9tWwP7zGugPI10bSuA8a42FJb8+eROlF64un6a3g+Eij1R4KAQBnEqa8t7oohYTpmExBb+GHqGyycYl9ITUH/aDNuwmmLmaNUi+beG84ycfAAg2H+MtGYPy1lKUWdJgUTPNMPxtPIWmE6xj2WnR2jCxrAzlTq+/kIrEHHz6lp1p10GB1KA3IEf/hFeUc95ER42axykWYn2WPZnSC4rOMyvlcj7aJtLbhMP4rOWScgYJ8Hx20HsaX8mto7GX5L1I5fdzRJ27/MKZPuFydr04GeY6XMG4xn6ujoP/6LUh0DcIRtmgVdCmWHU8HuzbNxdhEpqirwjgfKdG6CxSRAadjOftd7ksPFV7LMgV1AvLJEZFTv1t9Mczn3DQjepuXgWvE7ODXGRZgAKTvdBHI6cEL9ZfTVf70rN9COsdfsCLklqHekNwM0bLjJxlFcDP6RrUc1NUQyau9gAMoBcIEmUb+lQK0tolfu8T9zfzHPaw3OTPkeGK7nPm7xnd/grNLgpQ+VywlXGpd+savPB87NtULi86+BkNJUMKfJmHszKXWYMgXWIwKrNRll9gIUWGE3QHXn2BqbVmI0glWJCE5jAPuz1J1sKZOGEhG79ZtwIJekeR3LUHs38KxX+qmU8nGwLkImww8bceDQM8sKnU/iEn6Qka7MTyqx/7610Z0DTvnvRdd05f/OVMy5MafRa05MVyUxedEKLlG8x5AdXDbLnBRd29D22ISJSLJG6TDzqhuRqaHbOv8p6Pb55QaEPrgK4uWQDU34QzSqws1CbKKz8v17YTMN9h7lo+jtudH5XLeRjQsyXgHXiXhPWunNEDsnYRGqzoWR13SRprNf6prKxXB+FAVGIV+9zNqyp4mjnqNLfVtd+JlLM8BI9KgtVdvgF60Ig+xkH26Y/VfZC9ShvuY5eiL3ST/ptsYuPqmYtfnpBgelJzA7U04AAylPtiLObRgXbuuLuLw3dGbOE8g5WqEiyw2CAEmAioq7u5NDtuEaQkMD/8WpQf+NWCJnCEcjudBBVClPSNeRFdLNmaUoFV+bS4GsCtZf1SpGX+W7K99odIGvpLTf3lnFigHJbIRBvi6XwhnaoymS0r5V3bqyHHFmwqSudPIMgjuipn4YjYlGU2fNiOcqf/CT9c+hBTQFDJlRMDMIAWdBi05ONXWpkAkKJ2D25d/o5Bx0t1QFl6ooApQcPqR96Jai5lWM7DXN5wa5Pn6XR5u4nOyCwZRvmPfL93H+WMJPBbHrCmiIBEjDB339gUo62qIgbU/rnKLePGtHHVY7U88ZGqQ+wlagjhNd64YckFuOmbfFhkHQZeX0v+9aH/D96gtq7UlhqfSAQHJ6X9Mc1CObNyJkd3IUX4/Sc/mU8y9yk5mZHiTIj3Rv+L0gJCClHw3DM/rQAp5V0AuuX+E38h3Hnct6aDxINUjW1LQviWq8Ev6xPDCCXHEMRSOlyIiD7XJstMuG1hW0eUeMjZ8SStz24IT4T5kYQwW7q95dSI/ipSZUOHorvY14Y5Fs7SnNfP8YWfTF7wfPWtULMIzj/mV+OEp/6/rm8js9/IXU+k9vTEAulJ8Ng6ZSouStlfq2v0ZrR7BV8QxvjJmMgsunMLpBFTr1mJ8UU+puVvVAJhORCGh65rWEJNp6HFBIW0gX8UFsEGjZu4vhaN+/e/ZlxPO0NcH60fggf3PCOFIxJygaC9yoK1T3h8VV3CQEaYZJcyGGpXiI5EuXDw0GzpCUvCbPBdBIPduPkXPjoJ1QLGW7vZxJICmOfl4Qqy9y0yVK8ZWSwSc7/gwYCLRc/QAO+vAyhSkBKLVaeNdJ92Z8DHvffMPCkLTcPQqOmTaoYZJ9e9JyyY9AXI0ObntYEAFCJYudjMr/p5DqZwxE63FiYV4lBJ6nOA+RLKfCZMkbgImwtV2dHTytudr8WsZuX20OCQjFsqqAwK9NecGIDNVLO0wLhsQuF1tISqZdroHkud5IhUcs6hg144YNUhsrhRTVl0PQzIrqn5spsB/FBCaKWreLUfX685SF40tlB2IPxEv/4VYxVOq6aa5lC3nabYt4CMKioieKzMI9reZhNL5p2yDs0ivCEAKsmchWWq66H4PZHOIs8X2txQoiFjUAmpNkXwnwjSmoGEgFXwgMEzcMh9DAQB6pKzwtcJkgC7+I8HZKfVZULKnFbGg1VfbjBiG6jFvkMkuXm43LCg6oYlNx6hUhN0wKUFRPCh4fyMfaAOfrBwdv0SqHza6tdteXzmusqLcwUIbv2GbiHFpVFCCe2x1qX62Lmc3FQLRYMsT2GeXld346R0K5L23/Gcuz2n4Av/0fj7xVGa3bygKfTcQRPn2aLq754T5TcqpPCH0UmeubdhNRiLzh7y4PffNT15ilEXuSoxbRVBz/RbxSrvlp+OqyvRjg08T2fjR4jTK+r85EKtONvsEHgBF7c6ORVe/aRAkSOlqtUtrFZ2Id4gVgWutmpMHmWgYPMWXMmUjAO6+nNS8PBzmSf92MT8f12EyvzhwWkrHm39SfNTcXbNLG8kknbt+Q4EriLfvEcPfzDMTJIf0dn5mtMfESpB39rc8kjLVsZUbPLFT6vrM4p+gRrNp/x65+4A5/w0jZG3OZjeMnvZUUbCezpuKuOk/qXJ/d34t7dBoRrEVJZpcDR91RbYjVQA2NktVIdHjMxAyC1W1NmVxwJBauSXwUCJa+h1Y1igi3wLc/fILvqK48AuHlWwhkvlZkvwqP52bX5oRgsmR/EqX+IkMZ4R/ug4nRwQhEuJOkFQTzK5X48fZ3xSqg3LGdV1j8vH+MJZooG6PdAjhFsvB90Wd964qys13+0bW5bPkO6Q84Q4nDqYqxwAA3VsRrIZe72mh1RPaufIDIkonbnixp8MHOcaHC4+5lv+uoeyX0KH9KoR8m9Bhxarl8ZHgMPdFJfIJEFe+ATYWVIKmEA6cfzlTqU77y/c22rg1h4VUoXtjosljdBJTeNZs/Rsjl3zKsee0hpt3LgdrJK99FHiaiTEr4aLkYiMLigkacAQgR6gAAAAAAAXctoAAAAAAAEVYSUa6AAAARXhpZgAASUkqAAgAAAAGABIBAwABAAAAAQAAABoBBQABAAAAVgAAABsBBQABAAAAXgAAACgBAwABAAAAAgAAABMCAwABAAAAAQAAAGmHBAABAAAAZgAAAAAAAABIAAAAAQAAAEgAAAABAAAABgAAkAcABAAAADAyMTABkQcABAAAAAECAwAAoAcABAAAADAxMDABoAMAAQAAAP//AAACoAQAAQAAAFwDAAADoAQAAQAAAO8AAAAAAAAA;" vertex="1" parent="1">
          <mxGeometry x="410" y="74.73999999999998" width="107.95" height="30" as="geometry" />
        </mxCell>
        <mxCell id="iRurOOvZnpyoRWt16AXX-15" style="edgeStyle=orthogonalEdgeStyle;rounded=0;orthogonalLoop=1;jettySize=auto;html=1;entryX=0;entryY=0.5;entryDx=0;entryDy=0;strokeColor=light-dark(#000000,#000000);" edge="1" parent="1" source="iRurOOvZnpyoRWt16AXX-6" target="iRurOOvZnpyoRWt16AXX-7">
          <mxGeometry relative="1" as="geometry" />
        </mxCell>
        <mxCell id="iRurOOvZnpyoRWt16AXX-6" value="" style="shape=image;verticalLabelPosition=bottom;labelBackgroundColor=default;verticalAlign=top;aspect=fixed;imageAspect=0;image=data:image/webp,UklGRpgtAABXRUJQVlA4WAoAAAAYAAAA/wEA/wAAQUxQSLwXAAAB8IZtt2qn+f+NvZPsGBoI7g3uBNcKFA1SSCmh3uLu7u7F3S2FCv7QJ2hxCO5WCO4S4tl7jReMMWVl7xysV0TEBMBH/3/0/0f/f/T/R/9/9P9HJmb9atiaTX+um923QXCa8arSdcHu07cvHt8wpLLNarG12JeKvHHxt0+9zJeh3Z9vUPRe3wyWSqWzKP14WgFzFZ0dh9JPmlkoPVJQZWpkNdPYGu02UKUxxjIZgcqPNDNHg/OofIZF8hPq/KeUvuLbUWcXS6RCkhZMnZ1VT9ZZKag1OdQCsR9HNiVqYueOA+YfiBNDfNHRpqHJY5S8vqxnWN367ec9YzDay/r4Adnf8wPtU3fmfSHEXblUZVhsoPDF/oWADZjN4K+Wh9d1ZhII21seFMLnLdXUvIWirm1fgPgw5qaX1dES6W02MQAIXZ8qgLgsg5x9nBMFnctCQPpPCltbHVuouHygsNT/RfBWeZnMO1B0X3lQmPsdtc3iyJJCzQC1zW8I4LtWYsWvoeDNlqB2GpWS3dpog6RRWBE4BiZwaAy3CTR9g7xrlh8oLugisJ21sZQ6BOpLn+UQIwOYQS7kYz4D9Qeo1dbGRWqwBnBMcXEYne892wwU3BQEGvtTty2NQCdVVQfApzEc3isO4NiAfEJ70FqOMrJZGRWRTPbVA0F7OHxaIXA38vdCQa/XOwK/sDLCqIug23seh28uIX8oJ+g+RP1kZXSldmkD6JTCiC52gPY11HArYzK1yARQ+6mMMRpMOJlaaGWspUaYAT65LebsAGbsQW21MnZTP5sC8lwSSWoDpvyKirYyoqj25oCcbzijA5izDnXDythDRZjDthoFnxQ2Ry0LZC/1jTlmoPDNYItoP/W1Kfqj5L9+1tABE0UYMhhpt4R2Uh1NUDMJ6dT7DE61hFZTw/QVeILsr3nvMfiLvqbUeStjOjVLm/8pZEcAlHnDJFbV9gv1j5UxmFqnyxaJ7CIAgM+SKXyUV9dQaq2V8Qv1j67RyG7xeg9+ZvCor6bfqBlWRgvqoqbmBnM+A9DjGVysaSM1yMoIpZK8tBR+hfSzQsDatzH4g5591I9WRqBBYIgO31NIJ9cBwYyXmLhSWu5TjawMiKHCdCxEthMIF3tN4aUADZkNqrClsZsaqKEdsnNB8ksnhUs11EQyzm5pzKRWqiv+jjnukIGRDEao+5U6BZZmB+qUMu8TSL8qBNL2PUzsJ8p+o1ZaG7WpFH9VE5H9Z8OOqKio49HkqaioqF2/r42j8IiXqv9T/a2NwFQC68gEV207ePH2E8/QpLHndi0f3r5mbhnbU6qJtQGnqYGMo2zb8X9eeIdpNPHKlokRFXyZYkgXsDjmUX8DZK4/bPOVVHSDzut/Dv0iM8Av1COwONtTsauuuNCtuq6sOkZFuoOci7XOHv1DzYAPOUUod97dHRRD7aknhhX/QOPfYqXT7W3+0uEBENGIavjhJXPE5jg045WozStmjxvYsWPb8PA29evXr98qPDy8Y8f+Y2Yu2bT7pFMf4pv14Rk8ACLuLfFBxTtsSzLqfHMhgZkImlswrksv1CFiwrrP7R4AE3p8OAmZ+BBVp17/Y2zb0CBYjPQ1P12wjsKTXpnKhY/adCVFDSL+N7KA+0Nc4p3+qhxOfuVR7OH7DVSaeGRW+wq+QNYzKFdN0J79GYV9gHSUjZh1JFEFomt3Q/eHf3inu5YimeBBvH+4hmpfV/EBQZ/LSM8GE7Zj4gsSpE/oXhWIeLqNPW09vC3/Vgpnf+hwfH8DldcA0QFI38lgBthB4e8iYLujCPF2L7+0VBsUOvK1XnhPCL/+oGGLuI/S50ZVfERNF8n1ljK+BFPmeU1hI5EaSHeedE0G8XYL9/K+z083RZ5n+4BR5gBKGof7FQGA+dQdm8BGpFeCSbsxVx0Cs6hn3gAlh5yRQNxdwt0A+C0RwPkfLDLNSEHxhxNDgPycwlDuS6Rf5zCL/QSFAzn7A2ohkOVnvxDDlGmZ3A1AF4NLyv2BotY9FE7dEuYNrPczairjc5npCaat5qLe5WPqIv0pBeD79f9cIoh3qrsdGMfh2A8Stv4pKBo/Ox8IL6UeelFdkL7gbR5YSuF6ZiH10M4BQPEVySKYMsjmbmx7uJsfIjJtRtF3s/OAZEMKGxOZnlJGXTBx9peUUZXwf039BpK5JscLIO7N7WYg1GCwzIeHordRMGlCEEjb71ORxCSk14F8qSH/v/3q1YMDU2rapaALhUdt77VHuroMQPCsFAF8UNbNwBau6weH0KcouDMEVE6hErMCQIEEKjaPjD3iKgo+HugvY4+msPV7e6kbNjmAUlEC+Lqum/mOW/WhodxL5P9rAWpLUdgZANYhPRAkq5xGyXttJKCmQd32BShiUINB7Vd3OYyr7V6yO5nDerIVqRRaNK/ddAFFSoVWLBLkZb4MRcqGlsgb6NkKP0Z+XQZQfYI6CVDZoO74SrRNQPnZdjH4i8I+AOORTM2jCDJt4PBtBbcCMcwDZYFNZh55iWTShfW/FDRL9laz/n2EtOvqhv7V7WbJ0GTawSdIP/j/lM+8PZX/aWSTeoH6rhRWhYNItwPxAQaq3GgXK5pMvcrq84DaDuq/j2MwJqdbOcG8VVRjxTuUPfSjnz7f9jtTUfrhhHxm+HxtHMq+nl9U6C9UfsvtrED2bgXQGJRErWqI9AmbWEsXqh0rBr9ROOEbpFtqgFLXGdxjcyfbGaeSGlGo9F4Hbz2BfR6g2sTpGXU1OY5KXRvyeKCGyF7IA1rXUknRzOcgXPIdKjZaimV9QcVFU098dED2Ywx2dyf7mXgFWZYYqPpESR3N7qL6/6pqyb8Vlcd28jjeN5gr2UFvdYrfAuI7UPkdXyHoQ/ETQG+m40xsdjdylXkqV/Ueakz8XlmG9ag1oYWGlm9R5yo/D/Mr0k/yg+5TYq7SYnVRYx8xx39iKXk1QdbrFM50H97vmHNS3yaiVmOsouKXUHPS58pGG6h3T4BnuUC56oH2n8XWg/gWHfdtQvCr2AbQXjKeig10G3WR/Uumgwv515GdaubLkiVvle8Xx3CIY5VUeYmCztMrhnSM+KnPxKi3IvgspxrbTBR23di+eNa8Ff++EsF9vp6kItLzQL//SxFnCbGAeB1YWcz7hlANfdCTwh/dxmRulER7A9lbP/uDoK3BPxx2U1DjLbKuqIiswHs13WZwuFHNOBRM3d42O9D2ylNecLj6vf6b6P8o5yZ+rnsZQr0LNgFME1kL4i1Q6zgxaCdyEkzofYOKdBcZn3JfiNVMRDplqANkG95jUmrIlUhg/i4LsnWvc0YlFd8ZnLEuBMQDxyYy/2UH0aVUArjp7dQyMGMRJ+csLjFBz24J+3mB9maAXtR9dzEK2be+QkEPkX5WAxRmjaLwbqAU9CMeNAGFGQ4yuExBsXhkHzYA+fI3iYt5wINcpNqYAjZyq0Byg54bEtCCu+8wxScU+rqHCnHcGhDegPTT4qDUsYXCqXL2w4gYFQRKA6OZWIeU1zFkz+QFldnOIOKRrOBJHlEVzVGeMT6R2aHnqQzEMKPAlLZUKq9byBWDfDWhBkgnVwHFfieplBApKBqPi7xBccVUCutIdUD2QjZQG3QVdwWAR7lLVTNHCYNy5ZfZquehjNdj5jdz+LioHO6gzA3k94Ko/RwzBJSXTCRwhRz0nGsD5auY/jKBj5jnBUF1icU+4FmiqQ7mWIHsfJmVei7KfIdsXHZTVELS5ZX2fDrHIe+sIBSO9GEvddCPSskrZ7OB+kbMEpkeyIaBid3dGmqXKfImc8kFJYbq+VPC6xqHw00xiboCaS1Hp/9QdCIIH2JqgkafewQOldPqk0LtkrBdY/6A9EMnylnKDBNQcKlEDT3dJTqg4COHCTK/oBabaGpH6Q5dRy08a6Dwvz5C5ZA+CFoHUjdMBfeofyU+RdpZMh2Rz0ngThM4noikFBGzP9JSSMw3RgS/N8EMpJuayIyXg0B4PBOmJ2sCgaVMdYI6JTGX+RvSEbCbwp/0RaDwSjFYoOMkiHdH4dP6PnNR973cyalgEL9CxfnqgSiqr6kOqbnPNEtXNGASKmk7IuYsLlYwUUMTMb8HYlhXV5HnSPcFN7LcH8RzIb0VNA+htqrLWKhK7dCifvoKIx3rSFfAPgoffaKpPEr+LgbT1R0A8YFIO6m/NOW9iXSMn/v4rynIfsX00FWHeqAmf7fIh0g/2DE0VE875m9IX5ROovBOiJ4lVMoFyqghlvmaqrclxYJeUm82Us5CWgrdQLY5uIuznRwgPZ5ppKsghcEK6v2RipI3BmfWMIkZks6AoQw+CdWRKY76PYzCYzYhKPZKjSsMxGcjPaqsQeBYHaGPkF0GbiH2+JiSoHIjU1yXr0FVlSoahSrfDPFR9jvTJL1h38FgUi8NvyJdD45RGC4GdV+pSO0A4kVTqBeZYD/1wEuZrVcSsmcCzRX7SjiOO1fYBoqPMweidLuoNjIR71DxxbKqTjCl0xuQ5RqDuCGjskPUZRvUMqhbDjH45LLcyy9A8i+kewK0prCZquAdyD/IC+aqBcLZnjIYDqqvM6btJjHQQOXvWiu6xgSlOyD/XQ6vVVf0iUH1BIDNFPaVgEyTE8Rc6wqAZB2kbzoAvB9TWxSFPUL+cQlIS9COexqs6oHZBoh1RtHri39tXqtuo07TD6e8h84INfcY3/QHhNzl0LUsWMkYJJODASAkmXqZXQIg3+x73Kt1FUHWfpJpDQAwhUrNo6LkbhR8WArSFuxgMFLVM7ONEqqcwjkjQ0Ew449HEBFTXyp5wnilQyD3OQ7xdS8vOdtt6m94fxaFS6UAbKH95m/atGzoFz4g3wHpo7b3ihkEDpHLMjkZBS8XgLRWIJbBrxTdNds4Ea+LyMbUBtn651BQ4g4TmB6BLH8LIJ5rY5eph3RLIugV5aoupzPoOWVUB/IAdVEm69DnKLolK6Q56M49yabmCnPntkn7ivyE7LkgkHdMMhRdYnKnS8DWK1kA8VZHb7FF1HMHAf0oPO1logVIRwL9LYVlhHKNfo2iib1s4AbsRxlcp+ZfJgTMf565kwuU/piqZj9TJX0CUCNGBPF2p0AB+2NqNtCOqxR2NU8lJ5VQiAmIpcYJlF+VgsKXyoCZNUCpZAabK1nFNDFfBWSbgeIualYw7dIrkG29IYL4dkl1pi7SVRn4gnmb2yy2o0gPA34ddctGBPc6g+Kps/zBTcBo7lFWFSOZXuYbxOwF5aeUDGOmpVsA6l4UQsSrg3K8N5uKsXEQSeEqs/yC9E1fgWYUVgbwqr8pGSX3lgWTa3FcZnC1iqbMWvP9xfyo7pCShszxdAz49IsVQ0zZ07Ow7R41EwTzxlJGA3Nkf840BUHHS2pO23UvUfZGGJheC9RwMdhUQTaDeu0w3RXKyGauLC7KlSMdA5BnWbLY+zeRriUCAyi8m9EUkUhvAeGllIHSj/s5wL3AXO5BFjk4T2ET072gXoC54CSFPdM1AAXmJsiwT+xCPpconGOGpkgnFBby6UFJ3+joB2lRU8YYBpcrGMlEmi6JumS2IcxFW/oGINfUd0pc51f2qJWBgXoG5aqtL0MMMwxoR2iHRSeTUOnJNnZIm5qgKWc0lCvJuCqY7R11zWwhBoWt0jsA2fpfUUC6rm+Z+mudYABYSOF1f22zkb7gA5mqfDth84UUVBy/th6kWV2wgcF7maRgP4X/M9tDKtZssJu55pvuAYAaS2OVsK/ObV/+msIpumo4KWP/qaeo0Tj4U0ZIw9pyvGBwsVwLBluY7BCFRczWlMGJGhzpB4DAHw84lYkbh1YunDxiQMdvw8Nb1mdbh4f/0GXQ+JmLf/9/Eprx5ugikLa1wfecUV/Kfop5UVhLRbkFTH+z2Y4wrmbK2lzKp8pl80AAEBS+5q2+tP94dCikeX3wD4N3MspAbYPCazk0dHa2l2rDXHOo8rulCGoZFMbVVlQ7Hu8Wl1lCYQ7PBADl3d8hcIMmKBzH4AIpWMrgtUKq/JcgxobIZIqjsJ8i20ZUBQsYjGulpH4cIj6rLDGdCfNYP1EpqW7HdXknlejrCaAPZ3wmFXidwRdhahpcRUSMdkjAEiaxnhLfjagu8CaDrtkBUl5DnPh+7Odiw5jNHmsxFelfrfOS6GQ34by0uledjJDJSWBNj+B1gsHbgTJQ5jWDuDlErs5OpGfJFE6i8E1dBSVPoAYo/ZZBfNAlQMj25Tlk47ILtWeMJkxEOQ9znuoD7/uUbTN09fFXaSjhbOSYbyoFAH2OGugRoFwKg3Ok4NMkDp2bmjlEig44i3xCLgkYx6BzrL9EjpmJqAUaJXOIb1Z8U9D2XmD1UVdQsAsIf8JgfO8MAI4GO3CeZwlMpWoQbHDVVj2nbTh0J840rkdnt84Z8E2tfDYQn09t9gwwnnPVlYLPYzlEjN83q0e78LadJ/7xAEVf1gZZn+MM4tPhRbmg1psTEREvXdYAjRMF3k+8ff7qAwOFx4HkHQYx6eqtRER87e9RPkMy2U9M0H8W9+/WqIPR0dHR127fvh4dHX0qKuqv9U+ZOxlB8bfUJQ/hd43BmwFSUOmuiOJzxUE+5y0OEe//tWjcpLlbrrqQPBt8SAfUfiymcBTIDhDgv/MovakToNr7GPO6CMhPR9pZC1RXpJK9PQPUMRicJQdZ/9Ljmu0HKvNeEpGNDAQ9kOeAjvgIkM7ySO6gR1lEzVMGIbEURvtKNTGYcaA8wEVgUQ8BCzlXLTmAlv9pOFgRFGdcr+jFzzbQBbYOr5QdKQMKv3BJGYU9yX6quzpoy+BCmQLPkD7krQ7uUM09ReYHDF7zVwC+HW+oMXZ+DhrDLiuImxkMoA8gy8iXSm79ZAOlbeIlUnqDJ31M1dcAcxjsLOZ3EulXBUHj/6iBaS/3Jra4HmgUxX+tAsD++ZKnMs7jAwqDXlvjKJdYdN9gIGdFkfPVAfi325kgEfd3SzuoLrdTxLWpDHjSzEjn1+FzmEn5TGgFsi1B50xqRdpzo7aSHWZujb79+FXMjX3Lh9bPCGbM9tWcPRcevYq5vG3GN7nB5L51By07eOnOq4fXjq4a2MAPtJYfvPvy05fXj677uQB41qpUnE0HFHhB4fMiAr2QnQNaO1J70xEfINtTZ0DvF04Kr2Rm6qUwp331NKXOWxl9qM2aYCSDO7yIIk+Rfl4I9FajHlgZ46kFumwbGVz0XtA1pJ0NQXMIlWRlLKTG6QL/kwyOAHDsRbYf6M5CYaCFsYnqow3yPGCwu20NshtAuy2FKmhh7KF+0AfVEhnnZmTPBeiDZ1R5C+M0FWYCaGdQgg/ygwmfUmUtjDNUIzNAf5nYCmDGl1QJC+Mk1cwUMF3MGQamfEuFWBhHqFbmsK0U6gjmTKAKWRgHqHBzgM9FgZVg0mQqn4Wxh4owSQ9D4F0Dc2RCOsjC2EL1McdIFE7+xhTlqDiwMOdQv5nBazZKGv3MEEZdtjL6UX+bINNWlJ9o19ed2mVltKbO6it2BfnXHG7PrG0mtdDKCKXivHW1iEV+SdABDq+X0nWYGmRlZDEIrKjHa7SB/FQb+P3FYWwrPX6J1JdWBlyj+mkpfBAFJwMAeC3h0Jjup6MRkq7MlsZK6qAGW/d45BMigLSN5xAvV9awiDoLluY3lKuwsgJRKBhTCfjvEjhMHeujKuANNc7ayJpK4AxFgaPjUPBAMIiGxnCIZ+so6oF0VWsDdlDx+VR4/foIRef5gHjwfgHEv4qpyPSQugoWZ0sKd9qlfL6+iKJvvwdp799EMGVuLrnFSPe3OrxvUjhdIueIhyi8twCobPFEADF5Qw2Jbki/zmx1wPcMbszFZWm3KRmF43vYQG3230UQ8XT3fJz/ZIMZBZan13EGk7YMbNu8Xd/FZ5woeawYqG/7QgjRuLSkZ7NP6/+w4BmytwOsDyiTxKh+8LMddOZabwgpdNUHK/R7Le9GBIDuKge0DAdrdLi6lMW5wIwtrqlbarNIoFuKmsdj8oBJfSKOKppmA8s09JKCYxEOMHOlFYlyT8LASvVqe9wQSTo4IARMH/Tz9nihmAEZwWrN8+O07fuiD/w9p2tdP0ijPtV7LtgdffPC8XWDK9vgo/8/+v+j/z/6/6P/P/r/Y1sBVlA4IPQUAABwYgCdASoAAgABPnU6mUkkv7+hInQ6C/AOiWJu3P/qxauJrJqXXrJbw9/APwA/QDEAP4BnqmwH6Af0SzMfzP8EP0A/u/nG/gH4AfoB/AOkR/kv4LfoB/o9v/5//T/zTX73/XPwdvS27/qf5ad4ZDrsf9Z/tf+q/tf7mfMhTH5p/XPz3/Zf2w+I3+q7f+jf1E/jHtC+I/mn+x/u/9y/939++af8w/wf8a/lf6PfQT+Hf3f/ke4B/G/5N/sP73/bf2A9gD3Cf0D/weoD+c/1n/sf5H/s////u/UF/Zf85/XP/////kF+1/5AfIB/VP7h/6v3r+Fv/df973Bv8v/3vYA/l390/8fsof6j9lf+P8if9K/2/7p/Al/Pf7t/+P26+AD/1eoB/wf//7AH7/+7P6j/cf5X+Bv6Afihr/t/9vCZ5t3Cic7u7u7u7u7u7u7u7u7u7u7u7u7u7u7u7u7u7u7u7u7u7u7u7u7u7u7u7u7u7u7u7udngfTfnwtB4dMz1m8qPDJRSROcSMJX1KBo59XPXFULP4IdZOTB07bZNJ7KBo59Xd3d3d3d3c+AH+Z8deb9F/n4SziRhK+pQNHPqeEQiR5+wXxdvxzSH8qJzRRe4Mwj7uW+hAijhWMJX1JV37p/J/ByXSfBDaivSDhSr6+gRBWAhIdwL8VBjrV0As7BJo23EsWklJXeE2KP5N3wYWKjGlA801x1+chxevevBzeOLJVcctmLWklZ3ShasrJr6i+p6kH8PI9F755z1TL2PsowQlokikxluXxmbUT69fXZfElrZLWuJZRL0MgYKPCNuisUX0hNCx1UGhxUP4XpHcwb9Tj5sVDGgXAbxfzRSiXl2qiWKlmpbocj8WEHxch02nl8fdSaNmhUPOd0elPy6N6b+WUYi8XoYVg7YfG+Cl9iN0IVQYYOX3xxMYgGk8w5itPZdQG3hrRK/J6NFpIMHsLSJeoEg93oEdUB1/5r3IBoU+ru7u7u7u7u7u7vEhw3ORCc4kYSvqUDRz6u7u7u7u7u7u7u7u7u7u7u7u7u7u7u7u7u7u7u7u7u7u5gAP0qCAAAAAAAAAFvEr8dwZP+To0igwC8nfG/XKmDsDAptJU3X9ab6rFYya42B2E0msmrsAEjPFKmHOmUs78EE3VIsCdvXCMRo9gxzLGkRorUU8cBtHoBUfdtgphNkWOHus1eSB0AT6i/p1+GpSp9HtA/L1rkSjL2PJM1MfyLFUw/xtbd4vviaA+ZLgeCBjjkMJfZdkuFGWyLvoNRIaZWAhvL2e8a04wLWx2bTV/bH1xO+rxi5aCPZj5xCQpmk5947CSvgFKf/FnT+Jd8hRf9jH4l0lR75cdQAALQh+CcWOaN4Tk7E2CuMU3xMUdUK+XP6uLof1IYuMFx7kWcnqNaikbpqG/jvYCI/GHKdK9D6kMwNhEFQm2JRqYtnxh07Ep5vWn0f6+0DX7NQ3qQl9AEmgvF1lcYYuHCJr1j4ZBNBqu8NDhSAitTFijv9QWG7gAfwTK9js7ZWbrEnp9kOA+sZizQ4IJq7mF2iE2vqonlTdNszwSjHffLCG9HeE+X42DDuxpFtavpKckUUa4u+uVkTJcsLKvYlB7Nw2HMb5OQHo1s4LfxUjhgzo2mH9xRkAEhUCE/X0QzXDGXl5tMS69pLnQlkAAJVCojMs66bMYp2BZ4aOp/vQh+/NeZrxbAOkUqBgtYkdVQ6twcnQtlfLztSX7Vmr2OqQXF4y8NRBFHiPo5aAvDsz2b23+6mIlpzhyn47OP8ALXODdo/4FD8aDzKTJ5UuBjgMsUwVa+Ve6rOBF4yIHE+Pp3aCCt/1eYxJX77uaE+NOFjknXl+qj2zIAFRrbo//bg1AwVC+yK/z0BoNL2mNyi+taJ2RYoVahcjxhR4v0agNGu1E8ixQQi+GkS9TIbA/Z5gYEFG7olsQABTt/PScOd1T0qtez5hTtTHJ/u3QbiJ1bkR2efqf3EaOnTwel7vYMCzvitU83PNbrhz1LNvyNIrQLJd86MF0bnLiLXZU+MsF6qJQIoOpqhjQblBwgiQP8V7vubIIDeNpf0ZqAO/rfJBkSbMowl9qQrIjm+ChIGW7U/GC/Do6Gimv4Sf/Z3fLS1rLi8mGePW8sGAmbG3qwFQnnkG0qfSSgoHeAaakfyqe+xt1o5aDHnG+9Qz8OY+2EoEf5/nI5URWT+oB8EJPmpqNh4gwfqO65rferGT00v1VTDzH3J3rPv58MekSERIkHYLZYKt36c0Av5Z6karT06efnTt2O3n9s9eSI3qCdwBEu83PzWNX0w7PSsqd06LYC2XCtvAKiVgVmpNO51hT7XBBTj2m55mdkOl6GXwQ9vqZdmukRt+NrrWegJYSTvVdH9EUKJA6M55c+t6RhU/44mJEZAT7Obapp5J2fmduvLgeh5R4l6HjlVQ5QR0uGjZFONdCtAv3qAuFQJR4ekiRwUKIotboeVfBEBaTvzsVMEZknVOFGj6du8d6QOZk1RXUjJKBAoOgM0MlBw2mi0XvJMKMy2BbRjiDqCvhI2fembCearORPpTs+mAv4gmoAksVQAB+RZGD1Iww1gsUTPmOMenh48F7VUmp3twXk74364J7RPkM4I8P//uFW+A7A9wySjgZx4u3MnVk1DxjQ9MYV+wolAgPRB78RIW19Ei9k9FTUWYVWuZjKRfxv/4lim9F2hA7GLaj36WW3rDDTaLySCf91ZCfTEaGPLDm+6suMFpV1a5jdh7MXojTW2HhHe9ucvdjK2uxd/ItecO2uXEwEuBwQUc34LepM5ZcvA5jY+tDvldomDELFYa1ETBmXVh4mVm0w9oBFzDSOGUV3eH93vIsb+QI+aXfBzegypHSTNecptPa2p5fu4nr6MHysstDicPnDWDB9P/8vyxYl4YpVz0rOY2mk/aNzrMEl2bMCSQbfSoyFXAY6WXkuhzzc+/IXXwmuTpzjGvk68MdFlxeTsbahRFCC/IvxzLWxeiW9bHK2QiuK9Z0Eoats0jg1LvKozugshf6kshzE/MH4SicG/0ggj42WtZ1rT/ZNCF6Vn1AmspU7hJYyruJT8mD/RtYToa3++8AOQdc9G7vx5976xx0HYSFjASgqNP46yXXrdUn4fRaAgn8O6+EI797j1sGRgYtVDnJGpveiETX2Ut5T6ikf2KjGjzT4RYxGNviAD1q152epbyIh7yv1CTHkEwFNpw03Kue23KnZJQhovW+Kd6JLsRaNpBiZ1v5NimTeREWzgfFMIUvgfoESbVuMwINfgNGhyHu+NM8LNoyUn1UQqnHA7xKL8Sq8gfC4Lyq2i+bkJRywM6JEMBW5cps1jS0CODLgzoZVzlRpPGrAXCKJwBiusuiCi0nROl1qNrfOx72iyou17mOIsm2/ys2z3A3Kmzq+V6ETxUCqfYads6Q6fhqTlSdGU/9IVeTnrQ90GtWiO2mR99Zv6vHOjKw50mtPjaciG2XptkX36110tBOEKIClRXjR77FVh+F9Ji8qVZLN6HVQSqRow2VgLastBNvR2H8+TeqYAUtZbjMc3t/WAPt7n81Xdqu5ATPp3e8riPZzYkVa29kMk2yYOVdG8EoRM5/VTexZ09bu4upgSNiO3s4fXXpXFk7BXiVwwRmLDhjkWGjcvjncnrC98CJ6bdmBnpfPVgMvcIQJ8S/jxKvomUtKosackeX87SqBCIZ8p9+JZxt5ZBUJjcYVKEwPH2Hy+c8GuhvN4mTEDSAwhPOhRqR9nOC7UWW/WMZ+GxOfFIX/IutVRBrtXxMpz4AAYYRxpupr/Ntgt4DiwVsb0m3mAUaMhU1J8Mu3tCvgz+KabMRpJ9q00V/3uSq70hD3wrMd1HYCvbRGBYTVN1vQ40Ri/1y1Jjc8ct07SgpLdlUY9ZG5hCjiEJi2FIllqxZVu1hsYY+mCxGagNrdUyqJobRKSWVSoYZ5YffJ/qS/3wZHl9y0hO8V+BMm3b+ZH9UAKaTOv0IqR8LFFEmS2XfFFHTIs6DVhZ0uJDRcl2HLZrIJLdVD8v9GcH0lMfkCcYHiB8/R+odB3dwkDmcAYTzQCXcz5GHSPYS2uEqJAKa/i0nwG5GfIHrh6SoCqtUQLAs0NdZAQQ72iYaKOotkjeV+ormt96sZQJLBmdxcl/fTGV8YIZjBYJEqJrRIt4O6aKbbbm8dYYi9LuMHfzvXUkidBjI+n8k0qIcoRe/n+Xk+prooo1gum0sa9180a1HCFD0inFiQdgQ7XZVVj2W8eOKbPNHKAcZg35Oe/yritx3GzGF1RM/+2o1l+k1HvKz/+qw7ACVoAKTZKccrdDS0AftACOj3MP+BDwQWPNbnh2CSIg8cqOMdm6vod/+EM8hr3f4RJ9muXonX+uh13DWsELSCkApR4m2uXvE1GMeEQUAah2RxQ+qpsz2qwGS80Mpt+FW0NjFoyap3wf28pf/9KGEQ2YVUZhIgprXdtwBHqnD+AbGaP60Ethl88lx91POyfiFzIX4Y+9a445t/VRAdUQyaFOMTf9SotbUiirCDmqaKtz234pym92WVplFD+989gZurhIr2CvQaFtsFs1/25YgFXq20s3/q5OHm6fSNKd8FCB9LxnSvIATT5nCn7ZUuhxPqV9UbRNHbC8c7jUpg3YGV47MNSZIhXwoGK+jnRXvbjvd2g6Th00I30V2TEKOMUHP9geOD2jm8hcjvWSzmOTxuWS+0v9TMQdXT95adr65K8k1wztWqgBHrBY2OQMFiHXg0d17S4ri4PYFQcVNJAdiOl0PxVaRK3biJZpEHql1n6hCZYCuPKZIky3iOoiTMLGWppoRY4ObjiCViR2b5Hl2M+l7imko78k4YD3Q8EEQ3CKKohsFtm0bVn2R8xVMUa71hXpoIHkEX9eG3fLrp8YaoBtdX6gcbJ+SMgpUC5WsbJzQ8V3ff7uQ9y7sjC0Ipkq8QwWB5LkKfVA1oX6kbYfuYOxdhWL+UURKMhFFzsvRXIBr41FNcHjWmXt+ZfBNvzPrfRRpwjZ7OhGZJ1bg7P0afZo4D/YvbfxLBtdjtMYxO95AlABk8rKIl4cIu2LVu/oUqFb9wiYivM6eDGGXWLTctMNZVxMADJ/myzvR6Jo2lUtzEMwnyUTaiy36QLNBL4F5GD3SUKHpQRrYngXaRf8pQpW8uqov3hLGT7Ye52NUYvNEU+MKYo/nhQjgU5H6KsZcrYcY7WxYH1Eo14Z9rEIwdj0ADT8rwXObYqWyfaoxnWmR6olTsd+gITvJg3pGUX2B8yZF+yiSkwSOanD7W+0gnBv7ZYdVT1tgae1jQLoqNxo+KwufdE7AbwU6tcH8mozw9aySWQh5d8gxz00DDNRTIwHocI9rDyQnV3LFY5HGLkgEffAxmIEiy6hZgjufdimptbNjN70s3erM3rDHWatNoBR/muPqcPT5HQoyA524T8P+iYyk1ZJzGFPmkszXg9T7v7W2aBcAytgf/Mp2RsafqLeU4Vw/d+nEG3Y3tHm8H9NzxvmdvbdSiwbn5anc4ThlbJDTsuFWwtAeIOnV3/KwpZK9+CkWkQax/yoSPTCL7ormz9Teh3eHG7Vd5FkHxC43KAU14H/gQy2u78Y7aYt5OWJB+vHrde0Er5Qkd01wQNAbfI0YSr42C+VIujx+5XPaUG//V8X3O9U7nOYTCmstpyFYuZ46cqWc84d1tvSMq4K+oOpgTTbnbpi1ExtT2uCs9sJBhzea6lWE4wh9CruEmxZjORMbnnpp07MAbLprsNpm/j3ubbn/Aea4SSWL79tf4O7MgLhFjpvWBN4vP7+V+9P5N5X70/D6Is8N0ER9US61hh0Vb34b4CLtTpXof8BJW2wFUyZznvbBpUwL7Hkk+ysHlYw2wYW5WaeQcOZfB4ol79r3e8brQOwa9GsS5gVQwxTNbdzNWXx5ywrDHYSxkraCyvYlDWZ4y5lIsG1hqi0Sb9A1HheB+2nINgzmpNnPBBN1SFBTnpXwZ8eb9KwbeiMJbGl6/BLm1xyaS1R8Yymmocb9WTf2NSakUvi35txMeTD4N3EEmLugEJpAL+3w8SO8tiK4WT0oY9aKWwPSygAA15UsOQuR4e4wd1QI1cjYJ/wc/Dy/ACfyQc5YPfUgOzPgY8shvOxxMomwAh0bx5uETunFqiUl9Gs4w7lgLf8SJ50MxU/NpQp4ypEBuN+bsf8HaGGDwMrWIAGoJ4BNs2FJs45hW/0nNA41YY2SYV8l5SF/H052S8Zjcf60moqD4LEjX2oyJKiljIsdor4riNiQUUCTbualQ6DtaJGHNIQDbEAsFEccWJvLZ7ikMJ/Kf/+2aDXMtkQ3rMgnXKwcsihfMtO0eMVMJP9QbvQ9VjLhrkVHScPSIF0c1UWAu1Lxc6o1DvgEwnrx0lpGttwgo3qyHY3MHZlhOE4aror3T6LFmXchW9lCjPwfhx8txEojDkBW6VFlRcQ3n1tBulCnCO1Eka5Xm067nuGq5QZ6BVk9vq5nCsNJgLwSH3S2SkyBt0sO1vvR5lESoxi5StCog7/A6OMMpMI3+DbJRk8tq7uGKOocZmo23nlYM4jj8kojGYxsSgR0MQCz+RwZQifQrnME9L7ym97vBfQ6ZvKTJipCqNuYsc9JIz+Q32J3YFSC4k60WNA7g8iB687vKIFNcoN7EDAPfnyf5H64ws7bHTqfdDnI8WoZ+zFvwjNcn+x0WVpwUj0QKRMg/PyGaFurmqoh4FkwGJSicnn4Z35/w8rP/Iqc8YCm8gx71zxK0QcogMe26bu81Zq0cdnfM9gDySq+Od/8U44g6hojzWkFk9e1IkVn4y8qeXdvlOt6m1BE30Q69xMb3zfAq4dXmIvru15KEAAAAAAAAABm9IM/eI8UQpMlMZ/H3oCyeu8BNaDqBzQT+lDueiPLsMJQePtv+RUnKOli2xZO94a2xL7sB5phVA0N6aL076epFz2I7B/uS56v9vg8fYeqMDZVIAR52j6ipsxEUN6aOP2IlAyjVh2e0cdFrVvq1ocr1jnMXqiIsxXK442hfhP8WTZTUXIxyPH0viLJl/eI7VgdJsPKUS8kC/ck/n7GqDtaaJLktVBuIWt2CtmQ3r12HMFnTSbaC+mmW/f+o5kJPNyboU7XHKjwjDbShk+MQ/LFmr81G+9dF+fwaQLFQ1ewAAAAAAAAAAAAAAAAAAABFWElGugAAAEV4aWYAAElJKgAIAAAABgASAQMAAQAAAAEAAAAaAQUAAQAAAFYAAAAbAQUAAQAAAF4AAAAoAQMAAQAAAAIAAAATAgMAAQAAAAEAAABphwQAAQAAAGYAAAAAAAAASAAAAAEAAABIAAAAAQAAAAYAAJAHAAQAAAAwMjEwAZEHAAQAAAABAgMAAKAHAAQAAAAwMTAwAaADAAEAAAD//wAAAqAEAAEAAAAAAgAAA6AEAAEAAAAAAQAAAAAAAA==;clipPath=inset(16.67% 7% 16.67% 3.67%);" vertex="1" parent="1">
          <mxGeometry x="120" y="110.22" width="112" height="41.79" as="geometry" />
        </mxCell>
        <mxCell id="iRurOOvZnpyoRWt16AXX-17" style="edgeStyle=orthogonalEdgeStyle;rounded=0;orthogonalLoop=1;jettySize=auto;html=1;entryX=0;entryY=0.5;entryDx=0;entryDy=0;strokeColor=light-dark(#000000,#000000);" edge="1" parent="1" source="iRurOOvZnpyoRWt16AXX-7" target="iRurOOvZnpyoRWt16AXX-5">
          <mxGeometry relative="1" as="geometry" />
        </mxCell>
        <mxCell id="iRurOOvZnpyoRWt16AXX-18" style="edgeStyle=orthogonalEdgeStyle;rounded=0;orthogonalLoop=1;jettySize=auto;html=1;entryX=0;entryY=0.5;entryDx=0;entryDy=0;strokeColor=light-dark(#000000,#000000);" edge="1" parent="1" source="iRurOOvZnpyoRWt16AXX-7" target="iRurOOvZnpyoRWt16AXX-8">
          <mxGeometry relative="1" as="geometry" />
        </mxCell>
        <mxCell id="iRurOOvZnpyoRWt16AXX-7" value="" style="shape=image;verticalLabelPosition=bottom;labelBackgroundColor=default;verticalAlign=top;aspect=fixed;imageAspect=0;image=data:image/webp,UklGRrgnAABXRUJQVlA4WAoAAAAYAAAA/wEA/wEAQUxQSAYXAAABHAVt2zAJf9jtDoSImABSwC11Yil33agc3RZuMFlcorobFVQcUq63Xxc0+P8XWn0/ORAkQXAhiZLBZBDNRlGYZaNZGO71Gk2TbBRmWTDLsihKoiA49IPnPs//3t/vdHaif0RMgJTbtqZGKoP4BAaBqO7GoGrqeY7CoVCRcThUHBKZtaKwGFwUEoerIS4Oh0L1hEIgPnX/wPea+7mICPjU3Sgrm35epVznoX3lSQA7uhOXA/7gXF+9XcyKa4k/393cvcvNZ/xlWR72LOexIsUq2KtEtiBRWTi7VDQg4fkmdqegQeL9ZV9ynhLp1/5+JK4zspQPeyc698h2Svcgv0LWXWh79n1F7qfA6tIJFbgUytrCDhU5bu3Me6FCHz/al5WvqNbKt6x4ROXOe8eiji0qeUhsyS0kqrq7sSGRLahwXXrWEw2o+ClzrCZocAP7yF6cp8RtbEI7EdcZN3M5uBZy7nFTf+1sw69wc8/fbMK+S9zi+toa0gk3esmVFYQdbviw5T944cZ3b7lXxYKbryuP+HhELZz2DunHFvnL5p6/FnZAHzPuFqjAygcAsO8rO6AN2RbZgvz7M/zVr/hBH12qowH5z1cB/3ru2QG/Up6DBvnLpwP/UVxndsBlw7HzlMi/CeAHnadkB5wCfsV1Rv5DBD8c1PywFIrcc4/8l5uAn78M7IBxy6xfIX9ZuPCr4rawAx4/smrfJfJvj/DrbiHZQVc+pemE/McYSB5adsC8d+gMO+S/5hZQjUd2wBBz6b1QgS8PCFv5yg5ob3i08hX5dyEQ9178oI8eifGI/KcUGJ7e7IApdQg8tshf3m3gmUzsgEvEnlugAisf2Nr3lR3QBMyJbEH+/RlY+xU/LIWiLRqQ/3wVwP3cswPGHWdBg/zl0wEFiuvMDjh/48t5SuTfBKBI5ynZAbXPlbjOyH+IQKFBzQ9zrog698h/yQSo9TKwA4YtS36FCixdUK64LeyA7i1D9kMi//YISnYLyQ668uhJJ+Q/xqDsQ8sOmPYONWGH/NfcApXHIzugj3nxXqjAlweKt/KVHdCGnFj5ivy7EDbQe/GDPrqExCPyn1LYyFPHDviVsnFskb982LCdycQOuGyYcAtUYO3Dptr3lR3iyzMFIluQf3+BzfUrfrjmlhGIBuQ/XwVs8blnhzjGn1/QIH/5dGCjxXVmh9i+XXfnKZF/E8CGO0/JDnXlr7e4zsh/iGDjg4YdMO+dlT73yH/JLNj+y8AOGOI19mtUYOmCForbwg5ob9bWfkjk/z6CNrqFZAd99FY1nZD/mIBWHlt2wJQ6qxl2yH/NLdDNeGQHXDbr6L1QgS8PNNTKV3ZAE6yfla/IvwtBU70XPyyFWrl4RP5TChobduyAcbdmxxb5y4cNeptM7IDzx7VyS1Rg7YP22veVHVD7aySyBfn3F9Biv+KHOVerEw3If74J0OVzzw4YknUJGuQvCwc0WlxndkB3sx7OUyL/JgDNdp6SHXTprYO4zsh/iEDDg4YdMGXOCpx75L9kFuh5NLAD+kj3/BoVWLqg7eK2sAMqX+fsh0T+7yNovVtIdijvtralE/IfE9D+Y8sOcUr0LOyQ/5pb8AnGIzvELtQv74UKrDz4EK18ZYf48vTKylfk34XwQXovfrjmlkbFI/KfUvgww44d4hjr0rFF/vJhw+eZTOwQ24MOuSUqsPbhI7XvKzuUhas7IluQf3+Bj9Wv2CEuN6E10YD855uAT/bcs0McLvoSNMhfFg58uOI6s0OsAz1xnhL5Nwf4gJ2nZIfyYeuHuM7If4jhQw4adohzKjTj3CP/JbPgc44GdohdqBN+jQosXfioxW1hh1h5umA/JPJ/H+HjdgvJDtfc0oJ0Qv5jAh/5sWWHOCbbF3bIf80t+NTjkR3i+6Ns74UKrDz44K18ZYeofblWviL/LoQP33vxw5wrofGI/OdUwOcfduyAIZF4bJG/fNhgBtOJHdDdSHNLVGDtgzG07ys76NKTJLIF+fcXMIp+xQ6YMkdMNCD/+SbANJ57dkAfyQga5C8LBwykuM7sgCY0335K5N8cwFA6T8kOy0EZHk/If4jBYAYNO2CITLZL5L9mFpjNaGAHlMrYYED+5RcYT5Et7HAJDI0WZP8+gRF1C8kN08bIVCL3MQFjemy5QScG3pD7mltgUuORGfTOuBS5Vx4YVitfeUEnhkWSWReCgfVevKAjow4rsp5TAWY27FhhCg1yRuQsHzaY23TihF6ZUyHnOgCja99XRqiMSZDxcAHj61eMkBjiznzmmwATfO75/HLNKJGrLBwwxOI6c0FpxAG5NgcwyM5TMpGBCmomQwyGOWh4YKWAE7JcMwvMczSwwAO/ikX5BUZaZAuHkp0nGbxPYKzdQtKTLrccyU8JGO1jSw5v3AZq690G0x2P1HpmByReeWDArXylhQGvnFZ3BkPuvWhlvN6U5lSAOQ87Si0rS9KRDwfMejrRWS1OZyRbB2Dc7bukgiGnG5XhAkber6hcORU0lpsAU3/uaRScWhKlCwZfXFcKLaeBwg0M/2klMHBaCVRg/K8EFkYCCR7Mn5h+DwUfm8AIO+CLgM3HJfDeAx4EnJ3rTsD9fyeWF8bX/FFUTdsN4zTPy7rM8zSNfdc2dfk85Nl2E7o26p6v96qbkeoydPUhja7tUBzTop2R6XI55XFgc2786CTyn7oi9izMip4DqrQvE49GK4zin44CZXxdG4kK7vK3FGYL/mZ3UoF7e6O6x/IbfSX+srxwE3EtUfHj4Ya6GH99slh59wk38XGneGt/DxNGh5fEzZwKn7WFwJNN2OC2LlXAGRIsmRwb3F5dXduD98JtXo6uHYhsxc3+ldrAacBNP9+wbz0kbvySO9QHPWrgOSA+WVELp4R18URtPHBuN6iRjSL8q0etvHh0ewNqZn9Ntj+idg4B1d6IGjr4RDsDamnv0Sxa1NRHh+UStbUi+Yoam1F8WHVGfyTY6lFrB5ffO2puTe9B6g5idt+ovYPiNkHmc1eXj+yaXM6nQxD4nuf5QXA4ns5Rcs3yomr6hR8O1Fojm7Urs/hgA0X7EF2LduakA2avyHJ6XY8CyHvRvZVMcCJWjAzeWQB8rctzZIGPvKZIfcg8YH98TAxaXjtizQXUKJI3Obxl9Yik2xMo9NxSO7FaUJpiUGw00NLXnIqZUO2Acq0HKRScXpBuBko+T5RGh9KSjExA0V9vQogpncgkoGyrJlQzGiDVDBQuKjqzIvRKpQGli4YMtoS+iKye2sDuydSEDkRyUL2/UPnFp400V0d5kFDBRzpDIgVsYEUlpzMlct6Cr5VIS+edxiK2ADIis8Pmi0YNm2hNNPCWzYbGfRvgSiRls6eRbIQ106jYnGicNwJyGmc2VxqHrfAkiYVNScPfCqhJICATaXqbEdOIuBREgs2wVhIZl0DksBlQkTiSKWlctiMhcSJzpXHdDpfEI5kzjed2QEdhILOn0W/Ig8JCZksDj9sRUdBkVkRe2+FIAhcyn0TwvBlQE9iTeaMyeZvhL7/WCcMUUcHB3wo4Dr9UO2CYAjI4X7YCRPwofj4/AUtuYCGDWLoboWJyWkK43t096kkJcS3D/SmihYhDftiZbEkNEYdnZO1I8GaAiPJ9v9h70Y3Hn7Ir0oPYgTw+367vZ3q09h148/pWDlUe+WK3SRTwvexfeXywdhhrVsX3cmiet4sv9hS4q+Wvcqift0tg7SPuqqK/j22ZxUd754CHyv46v8s8OTm7hTOr76/zu8wiX+wPkG7G92v3yuNA7Arw3pbv1664htZuEKwb9K3sy+tR7AFw3apv1/YROcYPXlv2bf+MHbNndVuHiLK7h8LcgTdu359zGdumDoJZCxBxrRLbzMFh1gREXMuzkYNg1AZEHPMvAwderxGIsjqZN7ArnUDENjJuAJnUCsTuYtzgNOgFYns0bWA9pF4gap9sgFOnGZh2bINIJ70AWp9sADub9QK/IrYB7GzWCuicbgAr7XUCqB26AeD8khqBThEO4N46fcCjyzgA+HmnC3hUnAOAd2ukFqChHQDsqBg0AEfi//xKin7rsOX+T/uc1+OWzSH937qX7NXLbcKjHXwrgigr39PmILOHv9qHOCuaQW7H7NvG391jdL2XzbAqD6Wt/KNzuKR5UfezsnRoO/9oBZfr/dXNykFlTX+3D9GtaEaFLL5t/dU+Jvd6VAIKS/veCW9lL7mNVvetFWbVxAmR9X0bpK+JTWWHfx6yN4/RHgHg69oywEebBAA/n8jllgkgkp5Ya50AEA2kJhsFcVsJIbRRAL8jlNgpWC86BYNB0Y0/PnSZkglQkjkReJX4u30gVDRUHvmL8Nd7JRPcmcjIX/97SIXClYimz0eCrVRrogGPvZDCKBUeREKC4Uo9E/nI8DepNpGIvSOJTCpMRiwgUYntaMTsfZHoxTY0EvYsEtqVWhsxWCkg+a/F9A0kSqkNjQ19bxKD1DeNb/S9SOBG6EAjpC+nUcgUkoZLX0JjkOkjSX1F35EGIpExjZE/S9JoRT5odPxBTwM3EnsaFYElkZNAH2nmBKZE8FFeTiQmMKByFmdNRHwCYSKCvbQr0hyvGCypLDey7IlIQ2FMBYMn6olEMwrtlQo6JeiCVEMKoSaDxhHjz1TGKw4TOmiVkK8BqZYkWjMdnH0R3oBkNyTCkxDGjYDjhGTHKxYPlFDeLdVdV6R7N0bQUEIcIqX5DVL2zNGFFmIbKsu+r0i5BnMEHTHENhIqcvIZaV9M0oUc4pj7qjkVKxLvwCRBSw8R37dAHYd8QPqRWTqxQMShSL74uXExIscOzBKUTP4cq+zicbFP17JHrqFpcmY+3y7dK0/OgUXGOUTXZzMi5wpMEyTM/r4O77p8ZLc0iS7n0/EQBL7vB8HheArPUZLe8kdRv4cV+S+eeYJKDdt5BQPlTDrVgomCs9Sn2TNTcNOnCAwVvHTpAcbKavWoFuYKnF6HOhsMFnwN+jN8gdGCr0F3Rg8MF3z1ejP6YLzAfetM74EBA+ulL28HjBhArisvC0wZXGYtyYA5V+C99WO6gFEDkUnNaFwwbACHTifWGyiQLxC3RRsaH4wcgFvqwZSAGikDODbbt95tMHkAYbttsvBAmbQBnOvtkqUPCiUOICjWTVoeHijV6AA4t35zhswBxRoeADgVy4bI6gLqNT8AVvRatqG9uqBiEwQAVlSMipNt5oGiDdGfh6xZVTVXqQPqNkgAYIVZPatmabIjqN0sfRskj2ZWgxzK6wHUb6C+9S63ohkZzW1xPVmwjabqe+twSfOyGWY6cmzLPAkd2FKz9Y/CDcI4veWPoqzqpmnfXdf/Idd5HLq2fj3zW3I+OLDFhuxnLQF6qDSHQPfRaeOTgMPHIrAKC2gIWHyAAMb8u5IAMJ4JDC79Jf7+zKkngOdr8nMk2HOqKWDaO8QfWqRYc3qQAPqYdbeQSPLBKSECtCHj4rYg0YRTQAb66NJ9GZBswAlmMsCUch3USHcG1hUh4LLh2XlIJFzxSkgBTcCxSGcknfJyJC0shSL43CFt6fCCmhgw7tj1K6ReA/OYHHD+yKx9X5F8zM2a6AG1T2syIf3J4gYZB8y5MklQqFby9EaOObB3Fg7AkBjkmIKvElkuDj/IeQDdjTEBhXIFrWxFnjko0J6ZQJeeIRGF4/rFAzKdbRVAygWYMseIjEL+6RwaZJuAGls2QB+ZUFO4fTZOIZFtC4r0Vz5A47MTC4X0kxG3Gfkuviog5QT5sJldkGL0wVwG5JyCOl+cEKeUV0ni9LEENbIuQaFWxwqxCxk5KwnvQ7EfElm/LZWAO/BCfHlscqQoxUci0hl5Dy6o1Z+Y4ZpbPJyFxAifaNgh88kH1QYjM8QxZlEgyfYD8SrkPgagXm/ghtge6J2RZvFxWPmK3AcPVOw07FAWLjF3JHL9NJIR2TcOqFk82CEuN0FJtEj0/Fkc38j/KUDZl4kd4nChIyqk6nwSbon8pwuo3Cn4IdYBEVEh1QE+RytbkH/hgOLDjh/Kh0PBaZFs+TnEA/LvQlC/SGd2iOvj69fOE9JNP4VDg/znVMAm2g/JDlFW4a+4JVL2PwOnkMhePhzYzKDmh4hD7v3U12NFyiN8guI2I/86gE299ApAxC4Prf9kx5VE2s9P4NIj/+ECWytuswoQcX0X10vgCADr65Q8Wonkz/rn18h/uQnYYKeQSuA/C92zHxLZy8KFjT40OlCA5qcT8m8PsOHxID/Uu7BD/mMM227ls/ABdN57If81t2Dz/Vr2TeOsfEX+Lw+08ONZ8GLrWzIi/y4EbdyNYh+g68c38p9S0ElVLDJXV9PcEvnLuw2aGTQin6DlVrYg/8oHDd1c5C2OlkUD8u/PoKnpL2kZaHjQIP/5KkBb3aMW1Qv9cp4S2cunA1obtpJC0G1xnZF/E4D2xr2YB+j2pUf+QwQ67OwnGb2lWX6N/JfMAk32Si1gCUCr7YdE/qULGn3TmR+BVqcT8n8fQbOTwfAMdDrskP+YgH6rfDb5CRrtvZD/mlug5X5tbgn6bOUr8q880PaPj4aWoM/xiPy7ELR+O6roAdp8bJH/nArQfCtfVCOvoMtugfzlw4YP0MlnpUxn0GSRLci/DuBDtG6TOpov0ORoQP79BT5IkfRqWG+gyUGD/OebgA/z0iig9kCPnadE9rJw4AMNipVXdwE9FtcZ+bcH+FDta8eni0GTzz3yH2P4ZE/FzKK5gCb7FfJfMws+XCuuVmLj3QdNtu8r8i+/4BO24tdMpn+cQJuTCfm/T/AxizBv1l8bytQDfT69kf+UwIctDumjGeRPrEP9vIY26LT3Qv7r3YYP3T2ElyhJv03iyymwQbutfEX+lQ/7bTwi//4M++2hRf7zVcBu6xYS2cunA7utuC3Ivwlgv70MyH+IYL8NauS/ZAJ2W+chkX/pwm4r0hn5t0fYb8898h9jMMrWrRvqRGyFXyH/NbfAKCcj/tmFm2DfV+T/8sAon97499JVXzIh/y4Eo+xX+M/LTajt9Eb+UwpG2X1K/K/9WWFfJfKXDxtMsp0v+JMvT1FWtiL/2geTbGUz/vCaCRXFI/LvL2CSnXzGXxwuyjm0yH++CTDIwXPBX659pTiFRPaycMAci6hGgmtuKUPcZuTfHMAc+/cJiY6RIi4D8h9iMMbO9Y2Um0ABQY3818wCQ2zFtUTi8m4zsx8S+ZdfYIbF5bUgxynhJNIZ+b9PYIiTAdm2BzZhh/ynBEzxDTnLp83Cq5D/erfBGLesEKeUnpWvyL/ywCDfmCG+j8SSEfl3ZzDLFTfEwiF0fCP/ORVgmMWDHc5XQeSrRP7y4YCBPo/cELuQgpWtyL8OwExb+coNsXR/LR6Q/3ABc+1V7HC5iV85NMh/uQkw2ueeG2J//jmnkMheFi6YbpEt3BAr72fEbUb+7RFM+NeLHa659QOXHvmPMZjysOOGOET/xa+R/5pbYM7FdeaGWPv/Yj8k8n95YNadQnLD9W79JZ2QfxeCeT++uSGOqQ0gog75TymY+XTihiiHfkX+8mGDqbcfkpsaax9MftCJ7y9g+rej6PkmwPyrwyJWPh3YB8NWaBPAfpgMAocIdkWVL8KWzIK9MTiJKl3YI6NezPsIO6Wzn0WMCeyYfm3+mluwb367GF55sH+mk8FdCLuoV2pD51TAXvr20UT5sGFP3f0yrg5gZ3UP2qjhAjvsTWfOchOwzyajGbJwYbdVxaKA9gC7blBzG2PYfS89pzWzYAcW2cKm/IKd+OvF432CHTns6U0J7MviOtNa7zbszm5BqfJhlz6+qfRn2K2jnsKQwK4dtb/VxQL27sNz/rnpeYRdXISPTv63tb2fYE+3z7ei6edVTkPfvO7J0YJPHVZQOCDKDwAAMIMAnQEqAAIAAj51OplIP7+/oSk1iLvwDollbuFmzln+O/gP+h3sqkZ0s8AfoB/HcgC9AP5BpjdY/xv8AP0P9AfoB+AH6AfwDzM/wA+QD+K/w/8AP0A2v/n/9P/NAfr38Q/AD9Ef/ffDHP+Y/YX/AePVmj1v94/PjyHciXrf7N9/vK6pwtn/331Bfw7/V/vbwAv7L6DfPR9LX/G3yDonvVS/wvSAf//27Ol/4AfgB+m/5hOw4/o4CPf6LF+2SIp+7bOMQGFWp/H8r/RYv21LGPfo9/omotEG/Qk7ILID000PHj+2v9Fi/bUsY9+jtjWBbyMHzSX7h0YRiUbJoohV/osX7aljHurQrCuX2k21bQCjiarlauAHgyPOSN/FXL8F79Hv9Fi+x8wNW0ZVfT1mZVlvsX2xG/irpwnI3RfiZT+OA+pBej3+iwH92rOyzOwKNrlTL9Fi0DlnoJ6pupws/X8GrGB6/0V9OtT0aP4pD0t2I2y1DF+2pYdNd0TJo4j3NWZgmV17NWuusQwGk/rzPfMxD6LF+2pYw/4mrg51SNQJ9TQ/QuBHDLVR0JvHstano9/osX7aliJ5/jrbX4UJfxZzqej3+iwH93IKm/3yBeIwXvwmYowAU1vzgvIiva/FKS40uqUmS15xWgIxBzefsWdZ5LY6ZEVvTxcK5Wqzzm1xWINwO21Z91MRu71rxbn95D08XBfChFa0ev5qSUxYqWvxXkGEyA5/9EY4VCWIoEAY1E81/nCdHjFoYLyIt6JKGVDAYTISUfydYi/fu0Fh8nOpQjim/zCkhP9hENjeO8v8AKCInFNZveKGF885tcViGlKTMaCcPDsqnucCnJ5fng6hiIYMaiea/zhOj1DkOyB7tcXysQRru8hR8lhFayL9+7QWHyc67QFcRFd1s9lGLrKr+fJ1iDcF8KEVrR6/mpJSzQxdhWuvOSJRvYkkoU2cJrON7ch26o1QYLb0paVf3MxI9dVoTes9kN/BaSZ8QqEsROElSxcGCxZ1OYHKvVS3Nr55797dJHaOqsrGsjKG8d12t+cFm1KfKNjMBAk7IxGQXY8h2XBFSCFXKrTtyYlsiklL66g0y9AOg0qyoW/teLOowB/wOEItX7evYXuxDSpTIHpVVVtGA/eJ9VoV5080fbU8hVSuAlYlsVQGZaPX+ixfr+WkbnGAFCFggA8UOermRR9LG4cXo9/nMTlMvS9aDICQtRTqU7RoUVrQbyO3bfK/0WK9P+zqzuTp0X7alTFhqyLt48WoYv2FlTdCbhCjHv9Fi/bVvXrQmsv63kcoNgAbZTZYU+FCPf6LF+2pYwV0B9n7pDpBWZzmQdNKRfLhFri9Hv9Fi/bUppmMKFZVTS6ryF+OAYwrF+2pYx79Hv9E50yzH9KVzZ+lkKsY9+j38AAA/KkYBG8WqmyWOixxlULMta8ahnG3S60Z7W1nZwwE6sIy1qF89DovV5PtbrDeJQ2xAbxZ9BF7teFyepkCW7xGeXaXrzRPUTwsoWnxoBjkAAAjxex94CqBHbfdF/qImzimya3iRq6wOMaTCWaR0yZdkmlTYEO5DFAXP0Co+pj3YVzNRIxm6eVf7FHxRVnEwVwd5/UPpBgAB9+vMBwjZwx5rt1OGCqtYHM1j4oex6bWQxkJHNjLMF35AJVqQEXHO0VvDx2kcH5o25//gmdq5QYd9Dk+r9dI5ZdcjRdXvFsWt5LJJLni4O7VJd0xKxwBXVBrymPlHeEf1kuvI32jwE6MgHR1DF8gayvAABSJwwz5jqg6dCTOMT+Rqv7QdImDjKXqU5/rxkMjrWOZ6+6zfRxyYQ7JF3TGoTu5P2CCveZY0QK7TeKvZ55p/Bxe79AciLZpT5erPJPn2dm7h14FxpNUTriRXT4NMdeWxML+hbFCvNSMQeuozv1F6eL8wYXwCIAASZOoukW4wXvPu8Hl1FOhle79vmJBl7JP44TW9hQcWUhcceVLLUYcwf3Fbi8+BKBrs79Tx1nM7CRgzGROwC8yLGjihlPehfgMXuJxLqEBeIwOOZ7RHgAjDvA6DapqbAgwc1xpi1or/HVMXkRVKmkVMhxf6rgjxeIq1GbK8TB9WmHzD/0OwOOk6Wai6JQf4UCiQ/i4oV3QAQ4OjMjSAghzg3uLCwIwHpbtzVGkWaVkyu4YfspSPSDiR86F+3sAMHJvynMEnM+RDSkwKgcsaDaZJzZIse/VcciV0jEGeuC0oAgEmrKCSwsi5ja/0SYUsnzEU+xUiOnLQJzD1LUemAbCZUaWpow70wJIKhhk3K+yrkFWxbzbWf/B7zP+XLadO79jN8ACtu6wFBRf/4JbelM0OEeGUdlcAAGrgiXehQusdBl0XpASROXbbPE+ZzAOyS4Uy+1eDsmLAo77BHZ450rmE+fC/5H/quiOQK5ektNbVIOMvnkpi/xkJ7mXt5oOfHXbAoArJkKipAKZKjBrsuWNRkQT9Xhk3MuI5b3k0gQHpQoywrcIAAprpCwsnbT26XO9r4t4RqC45EboELY4GXUdK3Z15bU92Jqv2vbfE6abUlWE7gH+z/J96YsenGEf1ZaYSQPXhpanH9s1qyQiD0G5TtlcORzU9mYOInaYepg5+BdXEMEOQAAADcm2/w29XfnWIngXZb0XEnW8DhGwobXvYD7u81+YfMkt3pXwY4ZN6yy+TfXObLnd95B/hDGtTrePGZDMdkNAI8Xr2gUCQiFsrJN3aerz7f2fbFo2iolVSilTot7Uo7gRExcvUp5XApgVhEcNws7qavACMo59pMcscB5K5DNxZ/HnSxsGn5+fTYV8iBln+CWxyi5xbEpSInPnFlwIP+8SuOIxkWsaypQPoBZ0ey1d2F1vPNXe4N1UW6cvj7hgAGbOhw/95OEy0l5ZrA2N5jn9f5IkYLWtJwk4RL0NAcKAdK9t7tzyjvHAdPpu//R/d8RaWzfa0tsnPe+qDljdMmxT+LPJuP9BMHR3C1UARyLqG1UIRdQ2r55JniA8RCYDcHiurG8hEvphIemLHrQcxscOYaN+Gb83KQ2cCbWIheHTWnIN67UIx2HDlPZqZBZBqNLNIgKyH2T5xGTfXDO4jlSqyR3hwEInt5ABHWkarE1CeMRdrNutyl3J9D4xvmHqtYMWXm5ppVCreAPOYVcJ1tshTJXWtUh+GiqlYFYDxAsGLL5YZUkC3puNmlmaxKRyXN8nPbqOQlMOjVanWqoh/qJXjG/b+CF1ReQVKkSSylPNyn+jnMH6daqHaKLxA/bXUTEmWhD/GvIDtMplrQHhAe1Nc2mI8iB0Znb6ltqLLiAKoO++qkHUui5PiACHkD2kBVcNlpWziUzdnezfwP2smDMD/zHZGxEH8/Rk50wQdby8PECwYs3uoiFiuT3333zFqE5wSUO9QbJtdbYkN5ZI9HUwEC7HPoebyB2T7wHGDJkEf9/9N83h7LixhRQjCo5VkZQF/DPl9UA1mDE/xbwwFKEW+hDlbXCyljkMNyy7kwlM7peOfpNjQqgjHGkDtso9hJsqhzA+vbFOjXlUHhH/EO4i5WBkjmMFatCZ1WVzFm91KdfKLQKyvziBwb2I11+pSGR4lcSvWLegfImLee4ExgYAXu84PHZn7oFvTzynq3cKupAFk6Hd9QoTKJFezPshyz/te90McJlAQrcpiYZapjWOlGQAA9Ws8tCMwiHyvvyxNulvGH5yvHUmUOzFzxeFXWZ2v3rX0xiG4hJoTKJFcRgQS0dflhKDywMpy2Vi6dZv1ikZ2C7Y0e60GqpXwODebz7uRcB4f0gg4nUkN8nRzxZtgMW7GLrBHQbE57so5x+o6k1KAmoyv1byfxqgtP7vGf7AtRasv/Jy+kognHpzLIy5X6Vbz/TwFWCY0WZWEpZbP3ovGsa6gAFmEdOsEqmNDO8dPPleD40Pd8izGvYkHYb2BJe0g1FDXNpe3JxJYVzxCt4aelke+mYK6aMHyx9GrScw8i6x5H2cQjH2nLMqC1gVzjQksi3qOAm1VZaI1HK4oVpECZmj2fzhW7Smt7upIa9HWUZUERxgdyY6ZgZfnebgOagHuW/XahHDlZj9MKfzRUMDSAy52DANAxy9uj4wZsg7rm2KEZUm89Xio9d5DL+YMA2vavKdS+hSNEd56ckPcv/AAAAAJ6UHpVoxw4UHkfxkohij/sXW9a7v5SP02sEfxvzoUdhcIoooCBL8nV8Ae+6ZHvePyRT3VH79Rkud71N9rUB4zv/5sP7KadapZH7ABvpYWjzcz/RzroOWMzjwS7U2Oh5a+0qb00N5Fcgvvak0EvDHA803DwAARufipjLJ3EpaU3sxT1ifz7o6t1sMVBUg4TUteXwQAAa8Cb49FwE+rjW8eho4H7oyBaL8Mqx7HhZcqblCk/LRQcCQlLetfCF9d6Ne0eJnfHdL0tSwAKb5jCSWUNVSHACvrO8dFRL12oRPlb0Yc/4WmTsX4EAR5Og+8BVAiwPf/NVsyxgmL1duQEcE3b0ArYW9iiE0CQFWIT3i9/JmQWknxR2be5OvJNo9Ce/j66O/xn69/Rtd8WD/tgZW8Hs6ecJhymAbs3ZqAtkXVoCi3pM6Wu+FLuFl6SBzPX5CVUOnebE3iyOzAV8rVoGG7EfhrNoAAv1o3+8116xhMtyU/2OfdCM7ZSSwaTIhL12hg2tSChC8Fl6xoD3gj0S4qfg1CAqXFT9tQqZQI/556OxyfV+unOHQHAd+cALyKp34pjIiwAHOBFD1XheBSvcttkq221T+9a3w1tlQpLzSAmzgpyteoFuXwfbPPK3UDOvQ0cJ4D69o2zEMCAoVzOKWPNF57cJwWeXgDbewrjz5H0LgQ3YETfTV67BRnEC16xAced7PfrZpIV70FjGycsFmG1FzxKQrt4AAAAFv+ZABqA/kyD50Jz4eyx+Czi+MaH0xert82ku+qs+xd99diLJb5albyAJYrPWpNikx+ye3x4vU1BDdSfM9bNT0JV7oLHCbqLV6rxqtHZE8Yp7DO2Z19nv4/q/54I3oWCmc0bFaWkkWZcdYY8Jp/u26zIgYZPxTAbzz5sDMHAABTuJRSRb/Bru9NTfTKYafwfaJZNUHZ8vA5lN9GcPjMWArOKh7IgpXh0nehMU67auvShVO+E/0OwRDgmJ2rzq4I42YbXGXP5sAwcgKIvjeGlFGA/jXpq9dbMJC/dnUS44lnfII5wQ/wfo43UnLg62jG1CQIAAAnUghzqe1Mtop8LPamhbPD6jc116fVUSo1+7gBX+RgKz3MoKti3vDYTWebW3XvafGO/cL2alRXH/nGSYpCmxsAAAAAIp5T9kW9/wPYyVSLnMIzVe3Ajs+O28fFHSPckL9PpXwk9Vh0th94KaGZZUyFRUgFMVgQ3OWc3fR3X3NsgOrGvuGZsrJrkvAAAAAAEVYSUa6AAAARXhpZgAASUkqAAgAAAAGABIBAwABAAAAAQAAABoBBQABAAAAVgAAABsBBQABAAAAXgAAACgBAwABAAAAAgAAABMCAwABAAAAAQAAAGmHBAABAAAAZgAAAAAAAABIAAAAAQAAAEgAAAABAAAABgAAkAcABAAAADAyMTABkQcABAAAAAECAwAAoAcABAAAADAxMDABoAMAAQAAAP//AAACoAQAAQAAAAACAAADoAQAAQAAAAACAAAAAAAA;" vertex="1" parent="1">
          <mxGeometry x="280" y="104.73999999999998" width="55.48" height="55.48" as="geometry" />
        </mxCell>
        <mxCell id="iRurOOvZnpyoRWt16AXX-8" value="" style="shape=image;verticalLabelPosition=bottom;labelBackgroundColor=default;verticalAlign=top;aspect=fixed;imageAspect=0;image=data:image/webp,UklGRoZmAABXRUJQVlA4WAoAAAAYAAAA/wEA/wEAQUxQSH1CAAAB/yckSPD/eGtEpO7hD9u2ZU6z7TtmJh4ISdCgwf0uxaFQoFCkFHfXBiuUUlxaWqBAi0txKFbBpUiRUiju7sFdAiGezMzxBzn385JzLpj3/SSi/xNA/7///3//v6cN/njKdSfr7ry3LiqP1ylD5a4/rDr8hA18YV73Ug4vUa6m36676WJTxv37U8tc3h1Hyc4LLrHZH635qpzNCxBS+vMvf1q0Zsf+kzejoy+fPHnyyO6ta5bNnzRqQPdWn1YpFRnm0CBfr42xrMqn6wcUfg+RoUTtVt2+HD5pzq9r/lyQ7pQJwwZEtW5SvXgWpfiX6zH7vxg24OtzW2b0q1s4OJ2w+lMusWpvzKof+L4gQ+WomVvOvmRdnY8v/LP65wFNy2UzWaZG006lstETok+evs+KTtzcJvBdL6DGmPU3XWzopOu7fxlQN68ZfGpOPu5k6/lmeV3HO1tQvfH/JbNpn//9Y7OsRsrUZnUMW9bHkyPfxTJ3XhPH5o9eEZXPEP6NViSwtXXtbmR7t4r45j8nK/P6ks6ROpVdEMOe8MW1I7vXr14wZfywflFRUZ07RvUeNnLK0k0HLsYYgpmv9A18Z/JptDmNVXtvZc9IrXxa/8dKf7R/xfhejT8qltVOOmYs+VnvyX9Fu/RifvJN8DtRwQkPWdFXZzUMlgsYdJ+VnXryl+6VQsnIQWU7zzqarAvzs2EZ3nnKrHexypP3DitjQ3x63GM1u6+u7F85gMzpW77fmuc6ML8YGvBOU36zm9X/ZEWHbOn4tL3CBnwdfea/HWsWTJ00adKkyQuW7zj32KVX7PbRn4aSye1lBm2L04z5bkf7O0ulbay/+8X1YztWz540adJ3w9KdMGnS1EVr9l6OMxAzuy/MG9p/9l3WM/XK+h+71Psglx9p6Ij4oEH38b8fe67Fwz/7l3GQIn0/mftIK+ZTn7ybRKxys57JZ1YNb1MpB+mY6X+Nvvz5z6NPjaGz6+KCzsV9yYghZZqP3HBPFL2oS0FSrL3a9LsaMa/L/e7hMzCWNU87t+iLD3zIsEElGvab8vcj0zxZ3i4LGTx7o/GbL5+fWZnUbKuyOE4bjhvk845R/Txr7Doz9fOMZMrMtfovPJtmtDtTq9rJeob0OqkJ89kq7xLBi9ysaeLmrlnI3ME1hm18ZJjYRVXJspZdkKQFOyf5vTOUucJapm1oGUxqLNRz9SMDnOwaRJY2x+RYDZjPlHo3sA1IZg1vjYwgpRbtve6NHq41H5HHDMlVrGKdOnXqfFyuaGRYoIGIQkc904CTBtnfAbJuZQ2PfW4n9frXnX1bI+fKYqR6W87KrQeMX7L12L0klky+f3Lbrz8NbFIywABEQQOfyTFvCbF85e6z/NHPSNmlhh9ySrn/LEwKz1al49jl+26msP7ue/sW9a8apBNRyLh4Ob5a1OK1SmDpI/VJ7Vm7bUmCDlQidTc+9YaN7rzw65fl7HoQ5VzolOLYRpZuuJtlbzYmD5ih1e+x6T1uR0r/cLfh0n25rk8RHYjKHpNi1wjrZpvCsgkj/MmofrnLlSv3Qb4QcxCR/2eLnrFzfijpay/wccdhs9b8ffBM9OOYmJiYp9HnT+7evnzigFbV8jsMQVT/vBnevre4vq9mZO8dI8M838ei2Zew7L6CpLMjd5VmX46du27/5ecsdL2MPrln7Zzv+javXizcSETkKBROOvqUj/rlcDzrmXJ54+QelYN0I0f3B+Zg5peL6/poRJTtTyneGmzJ7ItZMqGvjXTM8MnoNeeTWe+Ua9vnfN2kVKBB9Cw1aGssGzTt/LIvq/jrQhQ0JsEkzPx8flmNiDq8kuHj2S2YbT5LXihJmoe1m3vGyYZ+tG9axxIOk9g+mnKTjZ64e2QVHx2I8vzhNgszH27vpw3l2SPD0UWt1wSWXBJIGucbsCeNzRl3cGaXUg6jFRh7i00aty0qm3ZEH58xD/PjH3JpQrYRTgl+UdFq9WE87SvSNtOXp9jkr7cOKuswjK3BLjeb2flv/9yakaP3C/Mwp8yJ0IKo3ksJjq1urRo6sdi6pGmFxfGsxFebB5axG8C352U2v/tgt2CNiMLnuc3DnDA5XAsqcE6C42tbqWKvGX5WjrRsdIJV+mJ12zB9fLpGsyJjF1TQiKjGTRMxvx6TUQMKXi/BSQ2tU6arDN8rShrWOszKTds3uJh29a+ySs/18NeGgqa5TMT8qK0GZJ8iwSnNLdNahh8XJvnyu1jRN6Z/bNci/yZW7aPhoZoQ1bpnJuadBeWI+qRhnNbWIvVm+EUpkg6a5mR1H/aTsw9MZAW/mZpbEwpbYypO/MYuR5+9wTitsSUqkQglVCTpWtGs8Ec5STpyHys6eXo2LYh6JJqJeX8BOSrzEOOkmhbIfohRV3OSDZjnZoWnVCXpFrGs7rgfMmlBH9wwFb/pKUf5r2McW8769GN4CMnmOsZK702yjkluVvqLvg4NKNMGUzH/mUmKsp3C+Fl+q5PnDfQryVZ9zEpfRLKhu1j5p6tqQLZv3abiW5WkKOwkxuczWpwtjF4IkumSwko/6i+T+zx7QPev2eSIWsSbilOH2mQo7CTGW+yWpjWjccVIsreblf4kF0mWusee8XlbDejDB6Zi3pldhsLPYzzJygQ9hDqRZH83K91VhyQrvmKPuTGHHOW9ZC5+XEOGIm5g7gYWZhijG0lyECt+LElWeMUe9GU7OQo7YC5O7SVDkQ8gfpTFsoTFIC9ySHRhxe+2S5SLYc+6LIMUBWw2F/NcHwkq9RridZZlIqMdCK+erLhH2Qkv8ZI97bWyUuT7p8l4b4gE1UmFuLNFiUhA/iW84HNWu7MG4RG32fOmDJAixwqT8dFQCeqGPQ+zJr8w6PoQC7nCih9JeIZT7JFXBsqQfanJ+ESYBM2EeIYlyZuKLCJ8GSv+Xztm38Ie+lQ+GXL8bjI+FS7hfxpKyWtFJjGYmANrxopPKkL4KPbYz2vKkO9Gk/HRIIyKxCE834IEvkBmEZzjmepGEV7H6bk4pYMM+e82GW9xYPQFlJzNevRkMCUPtpUVf94Xy/WMPbl7uAyFnDEZz5ewH0F4pPU4hywkuDUr3lmJYNtO9vC/OCQo5x2T8QiMqkD3fKxGTQbTCkJ+N1U3j/De7PHX+kpQiVcmc32O0TaEG1uN9cgKggey4hMisILxno+3+EtQfae5+HURrBb0m8UIS0HKQKEvVPcjwfb/2Ar+HSRBg0zGlzNCtotIXKC16M7gSYInseJjQrGebA33BUnQMpPxGoj6ItzSWuxC+kAhsaobSnDYM4vAuwMkfPebjJtAYSnIIkuRJQ1IDIW+ZsU/CsLmsmXc5INR9nsmu5sBoR3IDUvRi8FVhDpuqW44wR86rQOvtmP0YYK5+BuoO8K5rMRe5BOoOSs+Lgzbw1ZyrgS1N9k1G5IPam0hsjiBBzZov+pmEFyHreUQCZpvLq6F0F3kWwvRksFFhEa6FZcWCdmOWQxXa4mAM+aaAq1GVluIX5Bm0AhW/G8Et2CrmfQRRoViTXUC+hY5YSGuACkZobOqqwLZLlgOflEEozamcmZE2iPPrUNOBvcQWoIVf57gRmxBb4Rj9IuZuBxSCXH7WYaOyCDoB9X1xw5aEd5mxwJOm6k1EolwHsuwFCkJnVRcYhhUja3pdxgVTTTRcCQYqmAZLgOv7EgWl+KWE7zVorgaYDTYRFMRSkAaWQXfVOBvQtuw4qtB+V0WhV/mxxxHzLMUuotEWYViDI6DFisu2gZNZMt6OgCi4kmm2QSdREZbhaZIa+iu4iYQ6vfUuvB0jIaZ5gC0E5lsFfohJZGirPhSUBu2sK5amM8xs1yEViK/WIUxQKof0lVx5wjeZ2X4TghEJZNN8hCagaywCtOB64TOVNwIqJjb0vBSjMabJAn6AdlgFZYDO6ADanNHQhPY4jbGMjwyBwcgg5FdVmETMAexx6rtDME3rM6TcIi6mSQMiUIOW4V/gEFIYVb7eKgsW945mP2UOXIgHZCjVuEk0Bhpo7jK0CTr4/wAoqpuU+RF2iL/WYUbQCnke7U9s0PR1of/xWitKQohLZB9ViFe5A5ClqvtV0IrsBVug+VPMkNBpAnyt0XIxOKHhO5XW2togiW6FwTRVDPkR5oi2yxCMeA/6K7S3Fmgk5aIx2IRSSbIh7RHNlmEGsByxNeptHOEZnVZo9dhEM01QW6kJ7LWItQHJiAFWOmzoHZskb/H8qUaLxMyAPnNIlQC+iA11NYcWmaVXodBtNRwbjvyHbLYIkQCjZDmSnNnge5bJR6LFUwz2htC5yJTLUIQUBbprrTzhJZky/w6FKLfjHYX+hMZaxEIiEAGKW0e1Ns68VislNtgx6B/kEGWww8Zp7Ru0K8W6nUYRPsMthm6hvSwGnGEzlZaaeiKheLvsLYGWwi9QVpbjTvQSpXFO5Awt5WKCYH8nhlrFJKR0XpW4zS0QWUHCK3PlnooRD8Zqx1SFKpiNfZD21U2BRprrR4HQAVdhqqAfAIVtho7ob0q6whts1YcBdEeQ2VBOkChVmMTdEhl5aD7Fuu6A2plpNeEDkGSyGr8Dp1SmDsDEsZWuzXk98xAp6HZyF3LsRS6oLB7hH5suU5BNN9Aa6G/kOOWYyF0XmG7oX6Wi+tBtQ30I3QR2WQ5lniI2dB86/UP5HhinA5QPDLDcvwKnVNYP+iQJUqMuR8dHX365Mkz0dHR0VkRWm6cMkg2Rr+2HCs9RG3olaVJPL5wQNOPCmUgHbsZxhmAVISaWY7foLMKK4xEsK7JD8+fPHny5Jl78Z7o0bIOxRykf6RhrhHaBiprOdZCRxQWjNTSKOnwvG8aF8tAYMbKPWdd9iQv5la1kUHvGWUDNAxxh1iOXdAudb0itI8GL9f2LedL2kb2OeYhLkcFknH/Mco4aAlylyzHcWidui5CM2TOjqnoIF0rLE9V3/3OdjLyEqO0hY4j263HDWiZunZBO6HzIwuTAYtsVpxzYhAZe7RRSiOOBORn6/EcmqmuZdBt0et5Fciode6q7GolMnovg6T6IUUZ7Wo90mzIWHWNR+yp6V34IpAMHLZeXdsykuF7GOQUoS2hCtaDsyPd1NUPyc7M7Npax0YGH+FW1CwHGf9Lg8yHfkBcwZYhBKiI1FRXK6Qkc+KCYmTCXi4lzSIzfmuQHtBGJJosY2GgFZJPXTWQj1JmR5A5e6homc0UMwzyPyga2WIdPgIGI45UZRVH8uUj005Wzwl/0ta/yKedo6KGREV1aNWiTp0q5T4sEI6tNEaCDxLqRiZah7rALIRuKiszYmb7X6p5FUka5u62+LKb5d3fQtuNcZDQeoy2sg5VgK3QDlWl2oySrXb3sQvWrNn06/Rh9SM0oIiXiulN0qG997tY48PQUWNMh8ZCua1DUeAyNENVD8mAGeqO2/mI8dszPpKiTmo5ZpfJNiOOtf8LumGM9tDfyAOyjlmAJDvSW1Vn9LKVG3s0jTU98pkMHVVKLcJt/V+znvOgF8YojNhfI2sthMMl4rxILVXt0qfy7Ies4+9ZJOqo5CjhITs4Xfe5uf3qFM/qyN9w7C4XMhJKM8QTG1KK0W8sBMUAtZCcqlqrQ8To66zzzYIYHVBIKyzzWX77Zv8chBY+DHRCgtiQfxL6BfSRlbgB9EQoVlHLNKv+Ryrr/6QA1lYdr/yhgEPMzM872EkyV5qoJhJhjN7QUiQ10EocByZCxxU1WxtboyOs4a3RH/oQUUB4sSYjdqS9xeczQP4vlLGY4J+ZmV8WJfnbooJIUWMUg64ix8lK7gLWQCsUNVGTpmdZQ/cwB8FZ+t5mZp4N0RxlNIZKOd/qT/L+KQK3P1LZEI8IzcXoLEuxCjgLjVTUOA2qHWJNJ5O037g0ZmcZqJ4qXGHQGn67mAb1WfiY0JaG+A3qCLW3FOOBRDvSVFE/SuVdzxoXkCNqlca8BgpIUMRpQjOnplNRgz2i49AgQ0RBS6HclqInwAWQooqaLOE3PJ61DtWChjCn5UFouyJ+hbpzunPkWrB4PTTdEEWgO8h1spTVkc8Qn2Q1TcFKnWftP9IkQwrzN9BYRYyAlqfnbCBTJAaYAa0zwkNCCzK6wFqEI4MQOq+mWVDBF6zjfE3oEfM+qKEiWkC30uP4etj/HjL4FXTKCKugL6C21oIeAwuhP9S0FJrBeqYU1CLcyZwaiGRXRFkkjMVpY3xFQSOSGG0EvTJCN+h3xJ3DYuwBDkDfqmkNtEkX/sumwWhm5ioI3VVDAaQcwHx7cBEbUXDNaU8ZL4lkZgO6cyC2J8glspgzgedQSzVth9bow1/JlU56awC0Xg1ZkVYQMyfee8rS7iCkghFOElqW0TlWoxfAeZDiajoAzdbJ2V4m711+eyU0XA0BSC8ZTR8R2tYIP0CjoBZWoxrSBHHEK+kMNEondo51QDUecbpXodpq8EW+NsAhaLQRKkMHEXcWqxGO/IDQf0q6AXXXi/l8K39BrfUuTt8dioS6lRCMjDDAami5AZ7ZkXAncpYs5wPgL2iGkh5DjfRjfrN5yrBhE7beZ7Q2QreUEIZ8ZYBJ0CEDrCC0DaOTrMc24DHUSUlx0MdG0HQEtFUJEUg3A/SDnhmgHfQrVNN6TAA4J1JCSW478j+TrIcmK6EU0tQAjZFMrL8zHLE/RWJ9rUdr5HPE/kZFnAHJZ5JrUFcl1ELKGqAMUt4A/xH6EaMbyHoWRb5D6ICSIpBsJnH6IxWU0BoJM0AWpLUBhkGToSgLYo8HNkPTlVQYCTcJl0YyuFUwEKHXuiXZkKEGKAhdgfJaEDoCPIA6KulDJMQsbRC6o4JZ0GndHhD6i36nCC3K6EWyovMBzo4UV1I1JMgsY6FtKtgKLdftHLRNv+HQEGiKJemFfI7Y36joE8TPLGugn1VwCfpKt33QCf0KQQeh2pakHDIOoT0qaoDYzXIB6qmCRAdSXbf10B3dThOa04XE+VsSv2RgFzRORU0Qcpkk2QepoQIugWR06bUQStBtBDSA0TVkTY8Br+zIZypqDaWYhAsjOZXQHqEzek1C7Kx7Yegg1M6izAG4OBLuVlBHyGmWOogtTgU/QT/rNQIJ1O0MobldSHKIRemKdEXosoJ6IA42a3eEzqhgD1RPr2+QcN1GQgMZ3UYWtSQyD1qsoF5IgGnGQmtUEO+LBCXr9BWSWS93Iegw1NOqOOKA01APBX2BZDTNEmiCCrgSQjt16oeE6PUfoXndiDObVaH9QFowUkJBPZBw0+yC+ihhMNRNpygkWK8e0GBG/yXLOhXg6og9Rj3dkOymuQo1VsJWKCxFn+6Iw61PQgh0DBpoXdoigxHarp4uSG7TxEHllRDvj9Bf+nRCKEGflYRGuhF3pHUphKyFxqinE1LANOyH5FMC14Xa6dMVeqxPbWgIoyfJutqeAw+hWurpgBQ1TzYksxpmQP7PdfkSuqHLHTt0EvrGwtA2gCORwGTltEZKmacY4quGGxDN1GUEdEqXHwgtyKgrl5UZg7RH6D/lNEA+NE8VhFKUwB9CpXWZCP2rh7sg9C20h6zsp8hcaIJyPkKqmuczKFUNP0J0TI+l0BY99hNquwV1szShLuAMVE85pZA65ukIudRwE/tCj23QEj26QLUYTcpkaegS4MyIZExTTV6kkXn6IjZWZHkoY5wOp6AfdXgZCK2A1pC1XQJwHYSOqyYUaWOerxEfVcyGaIkOT6CBOkwlNCQBamJxopDvoCmKcTuQruYZjvip4qU/VFUHlx/STjt3ESiK0Rh/i/MB8jfURDFxhPYxz1gkUBXcCqKL2nE+pLZ2uwk+As0ni+uIA2IdSLhLLQ+hQeaZiGRQxk7sax0+Qkpp1wIqxnA1q0P/AFweoXNqOQuNNs80JJMy3MWgsHjtWiNZNHvkC02GrtgszwRkMDRbLbugCeaZjYQrg+dAtEC7QYgtSauxhPo8ggaS5a2P/AW1UstKaJp5piLZ1BEXCpXSbipCtzRKyw19zmhSuPUJcQKxPkh2t1KmQAvNMwGJVAcPgugfzf6E/tNoA8HroZVkgU8BXAGhq0oZDG00zxiktEJuO6Bmmh2C/tDoUygiFapuhaYjQ6AFSukMHTDPEKSyQrgJ5Lip1V1omjY3bNC3jF4mK9wc2Qa1VUpd6Ip5+iN1VLIXot5apdqRb7QZTKjPA2igJcrqBt74INndKvkAijVPD6SpSrgsFPBEI86BdNAkPhxqzmhSuCWiywBXQuiiSnIgmdi8DZGOStkA0QitPkA+0WQewXuglWSN5yPDoFkKcTqQUib6AOmtFHdpKDRWo7pIcS3cxaGibqiaRWqN7IaaKuQxoQ1NlBkZrBT+A6KJGnVCwrTYQfAMRk+TRc7iApICkTCnOs5AX5onkdDv1OIqBmV5o81ghJI0qA8Fv4K6WyU6BXBdhE6oYwc01TzXoSlq4RUQjdfmR+iW3GUb1JPRF4GW6SfkJ2iyOpZBG82zF1qhmLSCUPhrTeZAh+V6E3wamkyWuR5yBqqtjgnQOfPMgXYrhhdBNFaTldAWqZhgqCqjzvzWKSgZcGdD/OOVMQB6Y56e0HnVpOaDMsVosQVaITWJ4BXQRrLQ/wDcDqG/lNEaCWXzloeeqYZ/gWi0FvuhmTJpeaCIFKi2lRqJLIUGKKM2Uso8aQFIKCs3ORcU8lyDs9BYmT8JHsfoJZuVqoDch4oqozJSxzznCf1IPTwdooEa3IYGylSBAp9DfchK258DXAyh26oojTQ1zwqol4ISIiD/O3IvoS4SRwiOYvR1BktFvyH9oQWqKIC0N08UNFtBPAuiLnLJUGOJJpDtMjSdrHVXZAvUTBU5kI7myQsdVVFyHshxUcptRz7FLtigBow6C1qsnG7gjS8SnKSI3Egr01wmNGOaing+RI2lOAj5DOtA8C5oA1ntcwB/gtBfiiiENDLNdKgBKzk1P0SHpMKRJlC0D1TKDVW3XD8hU6AoRZREqpumHjRZTbwUqy6VBWkF9SZ4GaMnyHLXQa5AOd1qKIsUNUtiIHRWUWlFINqiQ3vkUQAUmQq1t17+CQAXROiYGuogYWZZR2hhVvUqrKRTIjPSBRlC8DxG7/taL9qG9IdGqaErQjEm+RwaoSxXSYiWSIQhfYCXGaFcydDXZMG/QnZApdUwBjpmjsc+0Cll8VosdyLkciCjge8Jns7oiwxWrBiSFIzQLSUshJab42dCi7G63WUgmgS9IHS66FUYlC0B+o4s+W2AG0MzlLAD+tIcJaGfFcabsdCXyFVopWg0wRMZjctszeYg86FPlPAQqmCK44T6PVWZuwpEg5FD0HbBs4xQWCw0lax5feS+DfF9pQKOQHxjzdADaslK/w8LuAv8AR0XfEPwd4wm5bJoAfEAf4DQaiU0RGitCV4EQjvVxk0g6gKMhO6m9zAQCn8FzSSrvhEZAbVVwrdQdxNMIjSPU3FXfSD7GdFniK8zvT4ET2Q0KZdl64EcgjKlqGAHlMNtOGck9D2rvhdEn4nyIAU53Vt+UPZ4aCpZ9gg34MqJ0E4VJAYidMhwGwl13FPeo2CI9qX3gtA66XUleCaj8dmsG50A+Euouwq4PtTDcLWhz1j932IV3en8Dn2dzhUHlCcZmkQW/jtkPxSWooKZUMY4g12yQRs8wJusEG1NpyP0ezotCF7E6JvMVq4c4sqB0BYVXIdoicH6EJoj1QPwdKzSW84sUPRbBwgunAaNIytvewhwX6iDCrgCVM5YrzNAw9gTJueF6G9mPkRodjczu8pjqxl9GWrpaCGyD8qYqIK5EG0z1HRCbdc9Ai/FqjPzQKgzM/MKgsu4oGFk7ZsgrgiE1qrgZQBU2UjuIlAt9ozOEhAd5MRw6A9mTsyL7WL0UZDFC4wDuDfUUgXcGqJdBtpG8CoPweuxxryUUJ8YZh5LcB2G+5DV/w3ZCwW+UcFe7IM04zSAMid5CndFyHapIlSfmR8EQ7aT0E1fy9cUcWZFaJUK+EOIphnmuh36mj3mDogqEbyambsQ3I7hDmT5A2IBjoIaKWEVlvGBUQYRarviObgyhIckMJ+0Q37R0Dm79aOVyG7IL0YFaUUgamqQlKxQDfagOzWLYnZXJ3gAw5/TO2AjxBmB0BIV8O8YzTLGGoJXexKuopHtIvNygjM9gw7Qu6D/K4C/huoqwVUG8z9uiHpQlmSP8rdG9ZhjsmE/M1z1nYB+RU5CPs9UwP9ilP+lAe7YoW/Ys1bVZidzH4KLpECb6N3wM4SLITRbCdwao6oJ+n1HqO2qh9mlSUk3H7djWxl1lnxH8HuJjIPKq+FBJow+S9XLlReqyZ62rhZL2Fme4HoML6V3xSVItA2hi0rgRRLUwaXT3wT/5nEu+crlSuG5BPtegpLyvDPURbgqNFgN7voS1CJJn25QlmSPw1/JTeEnodgAhqfQO6PjETIXikhTAj/PK0Efx+iREgYNZs8bEyET9oY7EZw5Bnqd+d2BpiLPfRHapgY+6idBJW/rsIVQ2zUPxFtlBvN+Gzaf4ZH0Dvkhwp9DzRXBc2QodK12HaBa7JF7SOQ4XpbgKi7oUfC7BF1Afod8HymC28kQRSVqlJgRWu6ZYiMxshPse47h3qRphuKftIr6+quoTtXzOqzVMCQhBKHxqkioLkUlDmizjtDAN56Jj/tjkkMZvu4rkalS95/+uvyG0YQtvfNYqDwugHtCkS5F8OtyUmTr+kiL1lAb9tTztItMwFqTMKh8tym7HrC2rnVlLRPtRQ5BtF0V/LyEFFHQ0OdSKRmhTR6LO2n2F8PnbaElanUavWD7DRfruzWPVeqGuItCTZXBDwrIEQVFXZTYTWh4iudKKK1RS8ZTktioMW0tUkgiwBMhnzvK4FuFNSCiCjMeIF9D3diDX8+kSchDCUPPtFki+h154EBoiDr4eQFNiKj0oPX30ysC/eXJeINNi9ls4rk2S9QQ4QZQWLw61ti1ejvrR13HzJpLaEiyR+MhGlR0mYmnWiKfR8ifEP2ijEMBZOgO7NnTakj5nGFTuz+zQjQRSQ6HirsVcTMrGXtZTExMjMtz8UqpwWzyx1msUGE3wIMh2qmGZ4XJjI5cnda+8USpq8uRbL54s/ESK0T7kVsOqIES4iuQaf17XPY0qYvykXzhvw3hvrVlYpeaBfyIyF6g7RYXllbQCnVGuDFku6qA1AZkZnuzOx5lVSHSts6GFD2Sr26f2qNCBpIsdxLiKVYo6DWyG6K+5nN3JdkQm6GIMs5ze4wnn5P24W1nHY2RSbp54LcJPWrmtZO2QX9BT+0WiOYj7uJQhlemG0mSIX/xw3G5DEXUJMlDXMpDemcuWaN5r2HDhg3r3bV+qXDSO/gSwlWsUHmE50I0xWxzSDLjYWbm1PV17UaiGq89wrlwUmwNaKgVoqNIXCYoMs1c6+wSAf+yMPr7MgaisrEe4F4uUu4J5HdL1A7hryBaZar9AYTb1zJ8a1brXEah+mnKc1Un9f6IHLJEvg+RWz5QSbeJLoSS5GyWv7Nj9leNykfYdaOhyptGCu6C3LJENBrhLhBtNM+93CQ5nLVPG6ObfY/iXoSqqA3yxBplTUKuOqBybrPElCTJzm4djvrpRgWT1TaKpPN3HTn6E1+TDUYeWiNainAbiNaZJKk6SdZLZe2f5SFJn8Y/fN/QIUETlZacTcKvw3/8dnQXh6mWIzcsUhnonA0q7jSFsxlJlotj7Z21SbL4JWbma5UkMserbCPhFS+w+HILm3l8HiN7LRLtRbgJREtN0YckCz5hHUeQZLGnnG5CfYxmqawL1s/J8NmvcxoipELH8b1kGjK60CrVho5jeRJMMJ4ks95gHTfYJPLfZ2FKM6ysynJCn7tZ1rXv+88ya2WPKNeoz7jVR58xO38OkLAfg3pYJTqCcD2IxhhvmU0i+DjreDEj4bmiGUwqD9FVdd0j1O8Oa/vk2JqpA9tUK5SJKCB3mXodvho3b+Ph+2ksvlaVZLszXNgyfQ4dsUGBt4y2y5dw3+2s47NChGe+zPAVf2iOurZCzdiUrmmBJFsyDrpIltl2BuE2EDU32PkQwm3LWMfYcoT77mPJr6DW6poJ/WKKG9VIOvsNhodZJ2oF3fKHaI+hHuQhyQmsY3xNklzEstFQcXUNgg6YwDkziKSzXmQ4IbuFsl9BeDBWMs1Ab8qQZF/W8X55khzE8v9D/JzK6gq9MN7x8iSf5TzjM8lKd4ZeZYZopnHS6pFkM6d27pWZSbKhU4MuCD1TVlMkBxv9Xk87yWc+y3hshKVyXEZ4Jhb22DA9SbJqImv9esmHJFvqDWs4ErqurFpIFYM9GOBPGua9wJIDyFo3hVILQ9TCKONJsugL1vbalFq+JJ31Fms5CrqkrHJIM0Mda+dLWpZ/xJIHHRaLDiO8AaP1xlhpk8h+izV8s21gIdLS7wBr2hG6qawiSB/jPJn2AWnbOJ4lX+Yhq/0xxJ9iOWKMsM+P8AwnWDZu+9BKPqTxUta2FHRPWTmQb43hPjn+Iwdpax/hZMm0emS9t0I3AyFqaYBLYYT7bGP45ZZvKvmQ9t+ztmcIfqKsAKRKin7RqztnJ80jdrN0L7LgpV0IT8Rojm6P85HkQhY//6NfaTvpOpy1TamCxajqJcGFBmx+rZnz1trhdcJIzwZPWXoCWfJfodTSmP8pneLKkeQYTv/BrFoO0tn2LWvck/AEVV3EiMinwpeL/735ICaFmV/H3LtyeNvqOd92rhHpSzqHznWz9Cyy5nkTED5ih6jQS11S65NkF3c6h1o5SPeA1azxLJJ0qWqXlFnbP2b5OTaLRqMg7odR1QQd3F1Ism4qM/OhSmTA0qdY4z0+Er6s6uVKKLaHNRxDlt3/OvQmP0afp2k3kiTLvGHmhD520j/j+BTW+HxmksyorIkKyL8sjeWdX5CFrw/xfw6Murm1mkWSeR8y8+vqpH/o109Y6wtZSTarsvqbLu/CVNYwsSlZ+g0QD5egNsnaLLRJhFxg5pRKpHupefGs+YWsJJ1dWS1NVnV1Cmt5uwJZ+3wJUGpVCfr4pRbz7YT77GRmHkE6Fx9+jHW8kI3ksyqrqpkCe5xmbTeHkdUfAfH9rBJU/Kbc9yS7gJn5hkOPkM+nXmNd94aThpmVld80/o1WxrK2qd/YyPL7HIF4l0OCMi6VeNWSZIfw20NI67DPJx1NY53n+JKW4apyB5gjtNmvr1jr61XoXbBwPMSzZIg+v4LsykeyzV3pFNAkf6f5F92s+6uWpG2oql6Q8QNrTTjmZM2dPwXSu2FfjPtLkU/3Q+630vZ8QtJVEvntRLuMo2z/Px+yIbfkJY1DVHXBWNlq9lt6Lo31PFee3hVtOzFnUykiytt4UO8mYSRf5Dmne4vwnn+/YYPeaEaaZ1TVTuiH3TN71ciqSY7yTQf8/NuRGNY7YbQvvTvmfAlxSgMNtM4Rzem/kfjkIBvzbi9f0j5YVUugLfz265Nbl/00Kf0Fv/21/8zdFDame1VueqdshXFSHYNkPs/iLBhRtd9TdHNtb+wgPQNVNQ46nY5pj1amd81pGCc1N0Smkwz2kCHK0Gj2NR3S9g2OJJ0DVNUbem6ms01t9M7pewBjZz8DhB9h9F+5t/N1mbbnuVzsvp9bhZH+fqpqhAS4zXOhhY3eRXPcxZin++qV5xLjLTVJN2edjgPHL1yzZs2aFXO/61wjn520r1se8VFVOaQQm9S1s5Gd3lFLx0rw4Tz6VHvIkg+zaGbcnH9wM8SuqhxITXO8mlaY3mHrpUnw81Y62IeksfTxjOZyDIhlboXYFJVqRzqa4Pnihv70btvJJcG8s7BWZY6xlodzmKniKWbmtgi51XSP0BEGSzk0uaaD3n17u2U4aXYhLYqscLK296uYJmKZi9/uCDnVdAj6xUCxO0Z/HEjvyIOkmF2bGwVjAa22OFlz5+RAUwSMiOP0u0KpavoN2m6MpOML+nzooHfpvi4pZk7eM7J1xRxhYVnKNBm9K571vd3CBC1usbgHlKKmidBl3Z7+M7VTKR969+6YpoHBjzU0lq3ufkZ7QUlq6oXYEoEn0fdi3n4WHX31+O51y2aN6fxJ4QB6Z6//ymTMZ/uEGMav8znG+0EJaqqPRLB4PL1vLHzZWK54Oeb4NW1CDOCoNe8Zyw6A4tVUHKkK1HjvQCFbjHSzYvgJDZg57ciPLQvbtbMV7770CWs4CHqjpiCkPVD4/QPZByUYZlUIUdYrmqSbcHzx6C51S2QS+WYpWK5Op2+X/vOSNR4CvVbSM0JHARneQxAV3GeMN53p7TyXNRO7Yh5ER0c/SmDdR0AxSjoBLRYl0vtJW68Y/ZyLIyj9TNv0Mu4Y6KWS1kF7RDHvKYjCJifotPt/BDpGJKthLPRcSVOhaNHj9xZEWb59ol3issokWfygEsZDT5XUH/FJFd15j0Hk23hdvBbOw1+FkbytdbQCJkFPlNQYycfia+81iCjgswl/v0SSzv3SLJQ09ou6YbqfoUdK+gCpDpx/35FunsqNegyJimpbO5+ddHW0PW6OF6Lp0AMlhSLtgaPvRYxcfNJTo92bWa2maBZ0X0WxhA4H9r5nIvL7dPYd49ycXNFGVFb0C3RXReegOcDW905vl+zz2wP93mwdWIrSLSJaCN1W0RZoM/DHe6m3c9QduuLIM41en1wcVcaHxBGipVC0imZDZ4Al763SDylVs23/H+Zt+Gf37t0bfp01flDXJlWykmxG0XLopooGQy+Aye+5jGl3C/6ArquoFRLE4DdeAIoTbIKuqag8Ugzp5A14IvgbuqyizEgdpL434J5gP3RJQa8J7YGU9QbcEByHLijoDPQDkscbcElwHjqvoHXQasTfG3BGcAM6q6CfoWPAa/IGHhM8gE4rqC/0ErjuFfhP8AI6qaD6SCiDh7wCewQJ0AkFFUUqIBu9AtsFLuiYelz+SDtkgVdgk4D9kUPquU/oaGSCV+BPUSiySz37oWXIQK/ASlEOZKN6lkH/Ie28AktEkchq9YyBHiM1vQK/iIojC9TTAQl2I8W9Aj+LPkSmqacyUpLRTF6BMaKPkHHqyYY0RBLJK/iVqDYyXDlxhPZDrnkHuouaIL2UcxaagvztHWgp6oS0UM4GaB2y0DtQV9QP+Vg5U6CTyCjvQBnRCKSEcvpCL5H23oFsoglIVuV8ioQwWsE7YE8VzEYcTtVEIh9Aod4BuidYgdBzxaQ4kCbIM/ISHhVshq4o5gqhQ5CD3oINgoPQAcVsgRYjy7wFcwRXoQ2KmQb9h4z0FowSPIcWKKY39ARp7i3oJnA5kAmKqYGEMlrYW1BPwJmRrxWTDamEJDq8BaVFRZGOanlJaCfkBHkLM4uqIvXVcggaj8z1GtiSBS2QcmpZDG1COnsN6LbgSySHWr6BbiJFvAeHBD8itmSl1EKCXcADm/dgreBXhKJV4gpBKjK4hLyHPwv+hv5VyQVCeyCtvQh9BRegFSpZAk0HnOFehPqCV9A4lfSGdgNHyYtYRMDhSGeVfAg9Bb73Jvi7BOWRKgqJ80UKMVjVm0A3BG2QLArZQmgX4JWPV2GNYCRCL9XxJTQf+IO8iiMFS6Cj6igEXQBaexcaCP6F5irjAqHZXaKkDN6FHIInUHtlfAt1Y/Fm8jLeT49zInmVURxaB3TxNiwXNEToriKOEur3RpQa7m3oLBgD/ayIjlBdFu8ib2NOwT6opBqe+UMrgV5eB7qSXkowQieUMJLQTAmitBzeh9npcUMoSgUPgqBeLN5E3sd6gsWQ/30FdCX4GNDQC+H3Or0YP4QGmO+oA6rI4vsOLwT9nh43hgIfm+1NQYI3Az+QN7KNYCNEUWbrSnAZtyglj1ciJDk9ZyTkOGOueYSvZfF88k5uSo9/gqimqdY7sP+5RCl5vRQtBa8yQbTaRP8EEGzbz+J55KUMeJUej8VC75tmbSDhHVicEumtoMWCuKwQfeo2yUw74VmfABPJa1lTwFMx+tEUz1uR7GYW3wn2XthvClJLYrbfTbA5B8n2ZbAJeTGHCPgfjPz3GO16G5KungpsIW9mliQBd8HI/w9D3evpQ9KRT1gcG+nVoOWi13kxsk9xG8W5rYUfyWe7zmBn8m5WFvFeO0ZU754RXAeH5CYtw04z+Dt5O4+JeJQMhcxL0ylxS49spG3EeQbvhno9mgHOujJEBRanaHd/abNg0rrwTQbTPiavp/2iiF9EShFlHXBSi/tr+hUlHeu/YrQfeUEbA3w1qxwR5Wg7d99jQcz5NT+0yEW6OsY4GZ1NXtEDAJ/IqEW6ftkKFSiQx5/0z3+Q4Z0+3pEyaQD/k0Ero/oMimP4WCbykk5B+EQ2M9U4y/jxUPKWBl9D+GYh05TdwZLHQ8l7WiEV4dh25qixzc2S+0PJmzoUYl6W0XChvY6z9BI/8qra/sD4UZTdSPZqC+JZ2j2WvK3BJzDmI7WM4vvJlHus4eN65H3NclWC+UxnX/2ytlrxijXdGUHe2Px3ZZifza/t0CFn27kX3aztm9428s5G3pZi5hebh1XLJJe5Vv+lN1hz96qc5LXNfV6DdJ8f/WPepOF9o6KGDft+/qbDj1jXs9XJm5tpt0ZGvtjWTt5dnx/dpjrfyk7e3wbPTZPyZ00beYWzrXCb4tLIHOQ9rnXBcFd/KEXeZVuj0waK2z2snI28z/bPtziNkPzPyIoO8lrnGnLAqcuTrd/WDSJvd+Z2s06kahH7z6QWeclr7l+q2dBZv+05eSE6+uLJfX/MGvR5YTv9H5+OXKXLVS5XNo+/GXwjCpSrVK5Adh9PElqyZrNuX/8wadLcBQsWzJg0okuDwo73OI6Pxmy8lcbC53tndP/QZpgM9SduvZbK6adc2TiuVoAB/MKEGcxRfuAvu68lsJbJZ2Y3D3svU2nBS9bw4by6vgYI630gjeUTd7QL0KstC/8yxx+sa8qW1r7vWz49yJrf6R+k0wd/JLPWMdMjPBYz3+7n+z4l7ybWda0uH2x0s56JU7N4LuaL1d+fNH7F+nbVIejnNNb7aSsPxq5RtvckQ92sb0qodh9FsxHXZvJczKt9PFfubqszWqZvWe+tpHnvFDbmpYLKiz+1e/OahXPm/7btcJwMr7F7pJDGs68wc6hV6sqw69SUrzo2qNO448hFF1yCTlrZ57Hk7d+GfV79f8Uq1e23+IIEv6iitsl5bQTai3fanArxeA80+FAap2uVSiYh0b3CCA1tMO0xMyeFaGT/leHnEz4kuPCoBxC/Lq+0niSdfegLxF3L89xhoUWyn2Bxcj8fknbU3+jeSNrafmX05VfBJO3f9ynCL//nUYjCVgN83f89R3sWPyxP2paupNH3jK7KRppmWY3wrXDPQjTYLeLe7zkuieI/JEO3cAMpPUnzPmkA77B7GBoB3La/16jO4q5k6MLxLI77mHSslwTwUE9Df4m41nuNWaLzdkPZ97M4sRbp2igVSCzoaQqkiua/17giiiJD92WxuxnpHAXwLk9Dy0XX32dkcAvcuQyVORb4mXRfAXADT1NbxNneY5Rj4XMy9E8sPuOjX4a7wFFP45cgqv4eo77okqFyJoicFciATQFu4GHoiKjLe4yWoluG+onFi8iQu4Dtnma1aKAOOap17jVsWJ9utfLYjBNUoWXvYYN7NK+ZQxEBH7TuNWxgl8Yl7ObI/Fm3oQMaB2nlX7p51DfD+naqG6FDM1G8kfyfiVIjjVEVcOb1MHNEozWK6Lf+CYOvtg6ONEKpcafSWHx/41e5oKqt0n8m6toKDtEmz4h9KSyM3dM7TPRpq/TDMN9W6TcTBfU96eK3y2lSecJxJ4uf/9k2RKM6Ii5ooLYsXkoG3Svi7zzMNNFILexN97pY2n2wnUOnuv+xtOtAR4doPetbQouPtrtYMnlejvSucvolsQBOP1nQ7TkLNfDrc56lYyfl0KQQMNBAu4AKRmkJXPQwC0QDNWhxjTW+0VqPXFtZ22sfmaXAdtYy7st0HgnyYpSWntv2Vqa/GJRrf4s1ffOlXQOfeNFFH8OEpopOk1F9n4g40rNsFHWVyr+HddyZV7OPn7HWVUzyZQJrvDaIiOIF4RKx6XEgEeU4w9pl28ya7w6To90i7meYtiweahj6BejjWS6KPpFp9Zp1fV5XowZJrPVtmykCV7H2/wSRwy3wk3gkCCPKcIG1K/uIdbwWKfclkFDFKKuAYsb5FFjvUUKdorwSI1lvZw9NyiSw5pPJDBn2sZ5bbKGcfjJJXhdEkG09a1cvjnW9nl0qa5KIX5Q1yH3RTTKub7zorkdpycKnhP/McOK+GUOj+o1ccRVidx8NAq8zeH/V6L4Dfpi/Oy69D80QcIDxlEt7dh6Jdol4RF7BC5kzgvzUhbWrlsji5K39PioQFlm286KnAB/zk6G5ACd2NUQEi5cZiPaKOJsn2STahA1j9HjbYBKWmJoAsKuR3FgWn/nMRun7VJ74hPkqiXsvSD9OtGwBHIHYfmf09cyavvR25hYbXOklNxM8ljkoKB7yWLuir1iYOiUHif26PxLxFKkcrwDmdfkM0AjoaaTvgfoepIRL1ANq7gYetSI8YjPAb4rJhLwWLfMn2Ld99PeA+I4olLQewmDKjyGEFtmRDj8X3JfZKygzmtNP2/dNo4qlKrbNIQo8x8LLJQkP3SxylZehHhAnjA3VbSzwoZGaAV96DtvfLEzJhuR+yeKD2Uh6sFvEx3wkoli400GyfmEmKJUM3CxLkra+aW+Jb8nsElS7l45zaR6SnsXCU5lI1rFSwEdsMrQcYo6dmF2nlSJ3sJGKApM9xwAWryJ0J4v3BJCGXwA8RGKbwFWYjKib7SiLz2Qn+eYp0HWZHYLt/PbTaiRf1im4kpXkfQ8JuIGU3y6MOXl1NV32i+6SkX3SRL97jGZpItf/kM9ZfCEDafoj8DozZIsVHCIVtGHx7RykZRR0WeYvQbrReUnDg5x+QkHSslCq4F8pCvhTgpnP9wrW7o7ooKHooeiAp+iTxuJlBDquiBKLk7Y+h0X8E5SLhXNV4LgpSqlA2q5Gzstshl4VJw1rs3AQabtI4C4iRbaJUsyvphTQyJYmWm+sk6JTniFyE4OPsiBNWDyatC7vFr0KRsqIflJBExaPI40j4oDTMhuh1qTlHsFZh0aRzvR4nBxRqydSzK6V+TUJYvF8Y+0WXfEEJecnMZhWh9B/RA8DNKP1Io5CyolWqWCX6FGwVjQBOCGzDtlDWhZ0CzqQ1gcE57Sg8GVuKeaU2dk1yAxMN9YW0V0Vra6XFyjUfsY5ht1RhEa6RYNJ+5Iu0T4kr+iJw3w5XKKhpHmkS3Rc5k+kgiY/cPr3fTUbLOBcWhDV2C/H/KqTXB5gsrHWih6qiJnjoi+e3Hv48qMklnVGETyIhc4cOtABUVpmwD9FwP3M15uFyWHa0QHNfgdOkqaXBD+R5mVFjbUhqvmvHPP6rDKFgQnG2iS6pSjN41sSfkC0h/TsL+K2AO0Rxdcw3TbRBtJxsma/Af00ycfC6toFuQRjtCIqv/CNFD8oIREJ/GSsnaLLHuVEEcL9kkQ9dMnpEs1ABog4oZfJbDGi7np0MkBxTXoKXju0o7uCtdoRZeh5QoZfVMSyATONdUB0yoO8/MaXJCuxuJAudFZ0GMnwTMS8r4KpirE4Uo/G+j2xaTJfcJB0PCu4ogcRVVqehHFcZSgDsMRYV0Q7PMbTcaEk3UcUa9PnV9ErhL5C2L23mcM8bUUvSM/a+v1Nmh4X/Bqm4zHBc52IcsxMgvhxbsTuFm0z1mvRr54h+e8O/qThz6L9pO9AEWdCbFsRZr47PItZRogO6FJLv7naxAsMmaobUe4VEO+yAfRYdMZQGVk8SUVpEvEHZzTPQNquFc3T6VOgNEJhFzDmpGXlzbFAtM5cYzQJZ0MH60fU4B7C7ZEjolibkSoAPVXUs2DDnsOG/Tjpx2Ffd6iWz0HaHxRN0OlDoBpE4UclmHlvRTNsFi0y11eafGCscCNQ1iNItAP4XcT5jNQVqKYkMuoZ0VCd8gN1McqwVIrd63MZb7foJ3N9oUlNY/kZgoJ2AtwU+BH43EgzgMye7Jqol07hQCMJomZPZJhj2hnusGikeuobKpkMGnodWAe0BCYb6bQomjzZLVFfnbICtaUow5hYGeZpNoMdF32vnqaGumMUquAWxfmK8gDHDJTJKVrl0S6KRuuUD6gsR5Rl5B0ZXmo31n7RTPU0FG0eZsAuhqHNIi4rooeitKzGac3i3h7tuGiaThWAkloQ2RtudWI8ylg7RMvVU0s0jFRaF+gK/CHiKOOsAfJ6tB2i5To1BzJpQ0S5f3gJOasZapnob10+MUd50Y9KCUoWfQe0A/YaJmO86Cx5tHmigzqNFj0nHTOOSQD4iKG+Ez236dHMHNlFq5VCJ0SzgUwpIncxo/Rh8WjPNlT0xq7PetFRPYjyHwa4tpHai7iAHj3MYUsSnFDLdtESgLaLeI5BbBdErjyerZ6Iy+lify6aqw/5bwAWG6kI0E6Pyeags4LkAKX8JpqPNAUSchmjGYt3kmcLdYlG6VKBxW10osAzottGsr0UbdDjP5MsEnBNpewQ/Yw47oh4oSEcF4FPPRxdEF3QZbrInVMvqi3i7Aai30UpWbXLmGSSnqLZSjkn+gqhoUBaWSP0Y/EJ8nTjRVxRh8BnoiOk/z1RaYkbouyatBfxQO36s0lyuwXPAhQSlCD6DMrwWMTn/PTL+wao7/HKAmt06M3iAQZYI6olcVYUqUmGN6IHQVr5XjcLnRRwH4U0Z6E7K0S9AJ6im+8+Fm8nj0dnRa7ymmV4KErOboC5ojoSh0SVNKEFIp6g1XA2zdeihyHq2CA6T7jPRYA76jWHxQlFLEB3ER/10WoKi+eRAZeJKkjsEnXQpoRTlFZNm9IJ5glLEPACZdRi8XcSVD4NSKqvzwgGvyQLEHBfxN9pVMslSs1vhMOicInVotna0CoRPy2kRcRdNg/NFnE3RWS6LHIVlKGxACc11GM0g1tsVoA6A66WmhR5weKfyIA5XYLbJDlKFG3XJjJexA9LyxW+zmbKHidKa22cJWMyahf0H4v/JGnffwF2DrFpFbSSwcshZAnsh0Wc3EyD4vdZfCdYIp+vJotZuECmqYhbaUPfAJzQyy7R7gWbikaK2DXKbhD/N/zs6xCNCh1mcWoJOQq/BjBvzatN1QsM3s9P1oAKx4nYOdIu0+gli1M/Jsl115pp0NMtqi5TCHiYWxvHboD5VGtfkb3+Pk53j3l8jomYD/5Po0qdJOoxMyeuruuQyzg4gcEJpGXhpwjHjwmTK7zExeCjImQVqDPAfLgilHuFm8GBJBmcwHxlUBYs4CcnC4/ZZGx3RXyrlsgHoax3EOaXv3/9WeVydbsvus3pn//APFT4JcDuDZ/aZXw//uEy35WY8xYzP1jULhIJrD4nltGj/ppQsQcIc9ycGg4kY+tNLkav5ied7i7Q9wu10PcI8789ItLJ0Hh1CqMzSLYlv528e1RV33R8y417xGJXdZKeDjBfmfft6CmL98TUgajIY0j+edFiokPGo5opADPHbB1et0ye0LB8xcs1HDRvbxy/nQ+7K3g75uDqKd8NGztr1bFUxu/nIo3z34SY+dm2CV2b1anXuv+8g8mM78xMeun9h2JsMyBmfnp898EbLsbn2KT+SOfttOgjuw9dSWR4CskXdiHiFhiVuKNDbGUC/jEBNU6CNO4AfcBGfFSENA/bKqF50mAbWQqib92Yhs6vSTowDtBys0MDmq9FDwnKcVize6UJ2WEGqvVSt/nQaCOcjSQdbSOSDbCzEGnvsahxjC53PiH5pqznGj/SMtNVDQbJkM+oFG3WZiNooyko72G9LkEL9HPPDyZ9i/6j1/5PSE/PRXnWaZc6JyNpONStXdIgG2lb8L7cD1JEBVa75M40obdLiZaZg3wGxOjjDkOo2SmdztQk3W0tz+ngnF+W9PVgRHUOaJO6ujBp+78/XNq41hQgzfMek5qpAVHk+BtQ7OoGNkq3omiSSYiyjHuh3YsZ/yPJWsvjtDvYwkZGtDXb69IqbWWvkjarQlRlcYzUhW8jSPtcfXenSd3/qTDp6eh7V2K6JkRUsMvktbtP7F2/8MtqASSuIxpkGqLgTpuTNXAe+aG6L2kY9PkvF9Lk3KfGlyDj5htz1KnJ2y82D6nipygF+tf8bvuN1HRenFzyRUHSO/STgcuO3Hieypx4++DCfqVId8dH3++/Gcccd+/gsn7FydBdRO1ljB748fBVhx7FvfX61rG149qVDSYdAyv2WvDP5ZcuZo65e/D3MQ2zkdHDm4/feCNBi7cT/x1XP4sm1tAnLF+B7MFkaB8yto3MOFZUzlxiPzK0zYfMHZSv0hebkuTSvbN+ZL2sVsSabhG4gtXggTO2XRuvRbp3N4wq8B7E/lRwi6x7YNOVr7Rh5uLvQSqy8DcLR0SOajMfa3KG3oNOFX1h7YjIUWv2A7kR70GCY0QFLR8R2SpPOOWG3AXeg3zHwtP0rpi11YLHoqP0/rNwvKj/OwMROSp/f8z11tfvP4JPsTA+87vE21nar3zqyv2eIEt27YJ3svhHege1F6f3hAPjx4dqVPAki2PC3kXeHx5kfrWgmk0ueHg8g+3Ji53TxW9HT2+TDwmuPf0Fo8vJm92fwcd/L504bNh3M1ceT2N8b6BX619E8wMZyJud3anfykDyatdK0etlN/J2F/7TqUfKwqzkBS8w8Y5Wj3/ORV5yW/mROx/JuE7PqOMg73rmWv3GzVq+affWNb98171iRvr//f9eFABWUDggICMAALClAJ0BKgACAAI+dTiYSCS/oqEmM0o78A6JTd+NQA5QTIGkX/WN0z51ORv5B+AHg6KY8AfrF/Sc8E2A/SXVX8S/k34AfrJ/kfXn9t/h34AfoBzqv4AfgBuQ///59fT/zQ38r/ZPwAvF4f/6v+N7bzInpv79+SHvA1x/Ef2b/Lf//2Z9Xvn/+x/ZD1qOivPN/Rf/Z/nvcN/Hv9X+vfwAf1P0x+gH/iegD+rf579zP//8T3+e/d3///Cf/PeoB+4XWDfuv///cE/h3+t///tHeq//e//R+83tIf///ke4B///bG/gH/q9QD1V+xf9I/AX8CfxJsJ/DsYzZUvydbxgHAgTAvRH//rDf1vn/8zH3f6gHSz/dQndLRcZaLjLRcZaLjLRcZaLjLRbzi6tHgcVxkyACNey7AnhqHocEzImlvAM8vZjJMXs9vEAdZPjrFBGMG7KVxJAAcNFNjOhwvQIJPlXfEhbOyYAg/VXCACENB1XP20KhkJaBJyWdPkz1k+Ol2jI+BtdvOXh/Pck9EAzosF6MSsjFenEbRcZUIuJ3+db4iuIsBLwHIGAFfGa0j0rLLZ5VyWOYwOseEFPRKuTft6o8mvCF+Z6/pR4OEm/bmQ6yfHWUfB5AscoJVybnEnbRILi1FcleFVPVlDbGwBdZNW/w7wwD3E/zPX9Kd+JzBTguTcwld4xr5DBWT7x87kYAFY7noh4FJzLZBuUKnx1Cl/93HoiTfH6DhE6RcSo+RslqRrIDf2rTUq5N+EoQWuwQTMmaY9jbB/SIHhzzLdzx3cyur5BDZw2M346ybAom1i5hj0/EOTbQrufqadgYZ8BlkbHIf6g8S2ojru8PLM9fmKkaEnFSur3N230qQgJOBBd4Bh6Zai4y0W6aws6ZCxxKolRYL07pPZ/ESzjGYZi5Vh/iLPX9LRTzLT2O2d0rWpSxHytjxcZRSXGoN1W2plH3XXFVEo6dafHWTfuShZD9ejLr8IwxQ6RAmwuNw2VXCTc2kQ2F1k+OsO7pkl9cWgmNF7ew+tD4Cmfj7ZRXCNSjckiKc8sLjLRSV61zndIAUiWtsExp6SOCVn5ZUWVqk/LmgFDkdHJJ8dZPjLnxJR2Fiz1r9PVEFyADwUwVogCoJ7Puuq0c8OOKKYdPt0XGWi4yzbLnbbOzKQ2FYjxCdfjeIxdTftPjrJ8dZSvv1djyhAvKK57DIlSz1k+Osnx1k+OsmvtSCg8N2F/AH4+F/8yy0XGWi4y0XGWi4vkbzop6OyGQ6yfHWT46yfHWT3g/2ryRAIcCAB5Znr+louMtFxloqMv3l4z2KithqYUh8lrk37T41G2aspQmqobLjLRcZZ2CF9p8n2u9lmuQqAohSYSRaP8jxXyL1g5jvoJN8IzperJE7aSNEaQdXRoVXEIDdjLiusw/pMoFsTBL41HFamrMIK8Wd1NB5yX/1RgYXwKuQdU4BJj7ewfEcRUPjpJiZn5FcElVYjGhtzOlarS6/RB0pRbw2FIIgohuUmIZ2vTMTCFMe0t6HTT5abiCXXkH7ZPJsVp5rEe6+I2HEDC6BrSa79t9XGGAEsStLycxmqaE+6/hr5rAMUdkLL7G4ni1F9eRHgAC0dupJfbCp+ceCPIeNHfBpdbzw1mHdNJKU9kJi8i5rDWD3zi5iXwAMMokXO08iPRQYCk9WlnoEY3QZxUeDnHVj+j0QWaB6mGy61U2X48mvWbwBWeVw5kgDyf/sdnmcX6yzhiTKq/kDLV3iDFPW4A2wPf56KYTkqc38RKstFxmSmkVVhgAP4dxAAACLujaZVqEYN2bhMryxDdTM9qQa0CNaUDAb785YcimwSNK/H31aYRv/0HtSJMFt8pZNE2ahr7l3EDQoUS1aM7ylNqCJI28BMJXtj2W2ADIWc6esILmH0vM21GxXUaE1EymYtBjX3ElGzHyhfv4w77YGNljA/GeWFCCM7qbRwCbyynZiQV4U30aKwxbosyJjYREcMjW6vawOmFDNO7Yeljh5DZgO6IFQ6LTU4dfF9BbUK8kN7dr/yg32MzTMhCLfn8CVqjeohYEVvcsJPfoH1SUgRQqJZhA/agS4tgP4b5efOOmWvPMuDGZDgKXfH1M3MwlSowrjV1rGH/3L2rBFRGhgKJlW5wbr0Ct8E4os0OLq2CiXZC9B63fs6BgLqP7xKu60it1I767bfDq+Bq69HNUdmt5ErxB279i91+hBiMcuOkVb8LUWPVU7GARkSV7VbG6LCjFPnbKJz5F1mH+MyeNpJcfCx9i3lOZ3LDHH+796acH+w9W1xd5wkxnlw9zFg1Lk6j60BULV/MDHgZ6MA5q/RUv48W8n99mdQf1JxDh3NHDUs1xZtDILD+WAB7Q39MsHZZWm4Ue81Kqji1AqZm/WX+OO1mnHdTbubtC4g3tWkPW4dknIoSwY5/EHL67YO6JaFgc+mAyCWhCUW/vnqW1GkNNBbD0eJPQ/p7TAM8Qd1osDAidxT7jPhfKzJtG2qMToD6EAR8Oqq55MwqUp4kXAAaQsSWZm9gpsP6qv/B/1g3oGlp6475KztO/W//ji1QvqDkrlODlIl4CQh3SFtwarhocefxD1ZeDwl0Wd8LMHC0MJdzIM6JLgbgFwHegHcqZXnANRpGzv2Odk9HFVs06vG62k6wohdmemnWkUBZcRAxoy/Xs3Z03NG9WD4keq1Waspck0i/Jwouj3XRLgm4LL7d1TMi4E3CjLr+aUQCyg/DyG2a3rRpg42rZeKdeA4z/RDg/O6KXYfNsHgiVPAxLdOmhTrp5Yf5I4+9JboSyyOnr+70BMTO72f33E29CX2HOrYnDa6Erz/Um3Awn73rF7sQ6OB7NtS2sAABa4fSqoFZZ0oeNNIeKPAqOUQ82MZbF26aAo/lcvnMOgGK3GIO9v/U0not70bECQRQRd1sGUAtFgoesJzQYbytA9FYhJD6I6O6n1CNeUqbUghSKKCvd39DlPPy2035LwP5NzgW+Ci/1mALAPx3uvwtSmnIQBAjB0oUy/PVRlXbAXHmCAZfSxgWBFqhGxQRHShnoZVoWv8pA/hJL+eJogjPf6MisnW7fMycomSOTfz1TpohNsAMX8wBd6hDe6xRaRoWMWr62ITqvIfwPaJp1uYJtosA4E9IuCVtsC/8/BcGdu1wZxapkvmPOAPolm2J8wcYQA29PfUnmlU39mBeIthmmKk6rBwJz2X3KGo6KBWXg4clhJ1Id2dvJ6QzW7KgSJjmq+R186y8fYfcGrwnAAAD6ljBL08rnr1+kbcHjIq3rVfYZP1priVagfxDHKrxqn8ZJaIIDfAwmppp8UcVVsLDEw7fg2kJYoMHR0w2e0RsELxn31LLzI/mqBRKpS/UYUirBXo1Fz72YvQHMSN/KOGfeUK5EL216KLZe+USSp5cJDOcT9jy4LUGb9D26cGKv3ZDfzhyToFkodOlSu1qgcKLjFDIgfOi8Pp1mLhoO6XKix3zdQ7dRnCcgLkpJwAEoHM/z9dwGeh4ino3lfz1VlWH024VROOk9MEWuqco4D9u1RydPJmnZQcmVqWBwZWpYHANVU7dQSkwSBGtuJyrRNeYpNbXklrGt2zyCKPCsZFWsBUhLFfIkrt6hCpivLH65Sfe8nH7hmXMqHAeQ58HtwD1JgktjWReZ3Cu1fLbGgilqLlQCgB+G9D0cLyrgqFQorwf9Uunpy8AZQgEiMcr4MmxeTW+z8AMzixaijIYAxogXUUcIdC8lJkaQ1yvZw9RXRfDtuAE3EOPxD/rJxKk1gh+na75SgfWhaOKn5ijACtZhClf8Gn8tJjKJ0dnZAQVItfXdW7iLqwNOejf+J7KLE7Lvo3fMe2GBd9DVx67KH23dYcj+qZ7ABwaEHwSSR0If6v7ULeQVllrTIubY+xG9/DtSZKOem0OpLkKXoWr4z2b1M6oE6EkdF8auSfa9QquRaFF8m8bvQnPMupks13amfov9WHCBYA8JWM40tMjLwOBt0EkLfHjHOSGCBfqtxaarVFG2Mya1tHDWhULs91UH/vJprGXKqhbG7VcqJNthc81a4wRqSUyIvOAAJ6rILmpOTz/2q9+uQuM9FY0EJTT9Gm3mQY6yqhWBrSHtpoBlPyoPhrRrV24PAxj6NTfafrNKmr0tuFGZOAIC0GhJxId4VHOJbgl+5/EA+UE+J9eFVCQEYaCmbDE2SgyfafWTVlD7a1wHkUfHD9Htz+2Io9pYhP1yewW1eMeCtV2VZKx0wkt6DwH0gKNnb8aIbCTLc2h2JaMJhhn3lvrGB8/5ry9V8GGAw3vAeOEnLU01YxnIKq/ez1RVIrASTnqizfDi0vCj8IlD2crHCBJtgpAlzN1SEblSk3H3txbP2CVsQjqRJpWGeDYHj8+KAWl+DSR0CqSzONce8E0lgbUJOaElhsrOjbg1siIj9vDqvHtkFwbuy7/fZc+axRqYtUAE/0RMWEMFfjKmLyAD3fSOE7W6xHlPG7hB1lETVw9J1fIizuqb00Vscc3m469JmQZFM/PBXhhzWBHUnX+/p0cCnr9jyNdnz2H455qxbOyeJjfiHUPPFJQNMOVw/JEZwI2LKQAvqNLML9xZ/yEuP1AUatfuYdWJ0yuwC8fW0+E0d99ub9kNNJvABi+NsJSmnR8+LSZxAcm85y50Ge7u2LWaecOGSlSOJaSufmydz3TTtca29Ycs3N1pAMjhqSfn5nsOqI4DdEu6pGgou4wy3F5/wy1H7R4kS0YRmU4gYUQJ5Tt3c/43HtUOstK8iDVh5Q6yTf2FgYs7PX2nHlIa82Z8FDwKZhwa6RmNwYtGSGKlKMft6gRzq10AB3MXh+UulF42qwHeFMpeaZfiHWMP3OjIub7QbjpbMUcVRnsRdCuqsqYvU2gRgF0UY3kS3xuvxUBAKivMiJPpuOEv5rTMN8Yol5SXBMZCHm7ddIW34a7iDpMRFCbeNLkFF5WULTh8xNw8I+bsmthfZXii2GKQ+cpD8T0IbygGzIvTy8CKGp1mIr2lCE28Xx995BSZGgzsANAxdrPsUJIqpJmQJhjzRgx9KlKC/WYbPyu+ZkZDFlkjmhaAXQQ+I670aD3qgFHEcFzZiceuXosEtKLEV5+VgR++2EC/6Rxo8wm7o8fgaG5wXIA37+CkepK9NAAD0D0CQOD4dglRZfFSnjIg1hba0zg3phj7aZRFy16Hcly6/BrjMSzunc3nUYMEM8zZ9wukwHY0Wuld46irS4Xmh/Ym77HXXnYJ5JsTWcQR5wAXiIV9teNE6C80cuQBtNJaHb3ohB0f8BXpHf48t5uHe1ZAIT4THQOq+oohXu313G2P6eiSJ4XUcSJ6pxE7vNMMgP12QkgPzSq0BJtsyDGjB1ohR+4ibri0CXpL83pB5ZfkatfCrcicNl2+h/nly09xB7M0TDHThZO6dxdInscZcta3g9u6aExxojsLaZ0mu0P0mAR+wW2LwIqtfzY2onCbZEu7NP81L/qS6g5h9LH07lyK/cBcR9hilPTQnVFWkt6YYrOtQDD6znEGi4yQwK3DuHM/KOk+BA1Ctf084XugABLsPk6j9jugGGx/NWIrit+uqyhSEHHrsd3vIOY83tbTPC12Bl3BWzi82lOxcb+DUrmgS+FbxCVX9jgfqFGwJv0NLwbQGsQcW0h2Eu0Z35qKBhrMUg+wzTr0uHtEzDsUaW0czlMRSmOaNJk27igo5SexaspY9CPAAq04C2em1o/JPLUmx4uU8B0EvrTE8VL1qoMjYYwMcPuiwmPz73lTObwM+XnaLV9aKhQuWkpi9vRlc3IPLgSeboqS13gSH0HK/i2MCunRt3vOiSUneg4ZnPgWGv77RocpfXJCj0AhfMqX+qfTjRVu2exixkJlMh3MoyrtfifPJ+XUZnR05t2u1IeM9ywgUZzvJqfLfosLvvc/mAHDzg4Gk0uhGqmDZFJquHheqtj8lHvA9Kui98hna0XCgUOm0cCg9IQ2nxTyb9zExzaJtc2NrUa67g4BSCIu9GrzIX+DxBElIrTFexcserruIoaEAFVmFbXjfakbDuavt7fNbjBdjWkDgZaLLiIjR0adqeIjnbGohtZS9lpJyR8fatwPGJI9onyhoZFrjEtnKyhwELGllQhVyZiXFhEErLrE+GJ+6jxyKwJMDVEp/UGaLT0nmoUmy0KijssjUiR7ALxUUsMsmgCvJZ5A1kS++qTXcr7Mr3Z+nTQN9wUoW0FDAoC4SbDPzm6uSF+eMIkVh1eQ50FCXLCkMAmz6rwFh5Y3eJ6EWtBfbMLbg5rC3ZuqEGHwJ9i7R4iQCHiLm1tU+CQS31FfuoXcJF61O+VWrkmDDHh6KUQejRPWvWWGRuw03dpW7pnxky1qR1k2oTdhaw8+YOjBBtUMsdFknYuq8goSfrrNEesEAcSvX7ZK4TGEbVdR7UpkpXaAvPB4J8RWQxgeAjorTogAMaUg//J3WW5XhLjjqB7yYKL7sbby+ejUL3iLF6n9oKYfedePoCQVtBgflqsb+fdgieFdBaB40VPVUAccfNsNJiS4FkNsZFlwjF5VvD+gwN8fCPDa6gkkSePnKBlfqnc4YMBRys38EiydXeA205KrKFVdJ2BXiAtkERlCzGtkxa7tYHmMMO/4J3aQyI2XTvN/SqERszoa+1Q1TnPsDJ13phzrop93pPjNcmZupVqRN0bKtf1Oj+4kIhn+2d1Oumdrhq0Kb9kjii/KSt8LbgZmc97yl0/ZFhjlqJZMajC7084hwPT5D77fTMKsLz4CM6nFrUz75EWX2jOfEsxRP4AcGTfghVzNDOpWf5uz2KS9h7YQqRsYw+WcF3M034Pa8qaqrjp40S+YOG/buDBXg1/XlEfuVNo5yxia2XDF8j8LGyDLsPx3e3BEd+kpNREm30aC23WeFYOY9yaelUYbgSGFmFxzYItpH7PDWWH5prIRjLcdK+EHbEfKdRF6L5zxS4/4a6MliWJfHXRK24+yJfU9knLHCUL0idecVizeqEYcgEIQlfl7GWcGIRBJURHEDVjJYr7tDgOX5a//tMuV1Sp9kAHRWWcGla/+7T/SS8an8FeRbrWuwSuWr5Hxqs9FOBnFI14+HijHM8dH2HkRw0LNrL35/jDtkfKlfrTRF2k3snBePqA08qw/LRVsb8bLX6OxGTiDh26DqWFeOR7qerE+YotfS5hTbJoUU8VR6HDIxRwl/RxgesmVW4PeWgZnhIWBRXbIYFvuohPoO+b4N7fCycJg9lS83M10BAkLdD1QUtlcTUvZ8RDVsoKxMH15rc7mlwZpG+gBpgSRQPA+gPzQnluZYYLAZcK+1V2I1zXPgBjl59vJLra58ggAThN/w/0PdY8ucPC6AiV93bi8mnA3IfDPeVj0mhqr0YnGPxQ+z0B4d0+rfuJu8JXbuVnciHAh/4SKF3s6i56vQmyiNHqNR5pCA77Zo+v/6y7ZnQL+8DiyndkdsWTH2X8TcaUV39cxQQFDc3S2FABqDaUgupDL9mNG57DbxPC2iUrDx0x6DBqg2/ZnZeLCfMGE8xBf4qf/5enclZONuxLQgkwwRhpuunZtFOgUxO/HM0D989LPS/7Ussx4DQdB4yj8g9YS6w9esjjHykixyH2UMHvHwqfx4QTA5RkzUR3JZ9c7m9yS3isQ4FD7Z+Gtp78JeTpnl0Vc8mvqZ1xQ2tPyNliiD/suZyIiq8+j9D+BPVZePE46XdrqGntZLIAfNLfEwn8aY1xijN2BAYv0tDwCLdJALSUZtIJ2J4XM2kqPi3IHm9ZYXTJjfcDz2GV2/ZUs0ikb67JAfNayApJepwj7BBJokrhTfzQgK/nItkG0BziHjFhs0G+htmM58LmCFaVxsUnkRlK6VLZzmrFSClH1AAKuUkDzxp3j82cqlljaEj+rooZhpIxvdgIIaGdPxHoXcY6Kh/v/fLg/aOwpZ0WuVn7SGgyOB+2mOVep3w08tcSC95JSnbkzzUppBKzybqLSzDeQyX+yzHJT47HOvHcVsBTV/NnFAOTNOdWwDcZDOd1ddSI7bsMRueusvot4P6nqbVg5A3suF46Ft0Cgnkk1y980gHDxgocWb77BqK9MM0ddM0zDzjhFEt/6/cnPckATVsGXPA+woj02iW1sEtwHIAAAAAAAE0LKK83ZQ4BLgFaNkZ0ZBX0YZ0NiQhv/aSCaEGfSf2MpVmnWfiEbrVxybs9D/0dbUbAgABM13aIa6wYuFtMs2HkNfyNqMW2UHMhX8/Mlc/IyDB6ghZ4FgihW9iFnhPrY7i4sPZkF6/JhFTuSw81YH8YmufrMXShf75M9qaOeY/YxWACisBQliZFTmflvE9hSA3Bn4DOgqXmmGfK4Tw03pkLYvLRc+sAN58n6TizCTGUTcq8esr+mC8piHf5FWylhbPVHIoEamOOqk/t5PprL/0VEUDKCfvqAAAmsgGcBw5rYySFb+6pemXHXMd9A5VnbbNGqLe6Ld0yawiqeZzpY3NhiafofqvdWN5Y7toDxqKB9DVuTExxFD596m9vT/tJBlBEugdMYYuRM+KXqzW3VRBbfOl14Lh2dQHey96owq0NrOnwjrZHkbb8VqjFJpWTaqOzw9I5CkfyylQAAAJ2swsBQks1btRvpipGKzxvEE/WtZHg/9ldwII74qSqyzD5DrHNUDLaGK3NFsxig/oiLUdBr231q6f1A210XitUKTfLaVJ0+ZTNMGGZzo8FbvmdNaIfZfPS8PAVNHtje2lAkyZqTWqkn0ZX8cPCoH4qDCSmeOcLwZAU4GnQHgvjhMqtrfPx0/y+oMPGl9mpdkZblyTJCOmutnfHUEE9WPYXJL74AIHOAi/qQAoyho5Jm9oxM/hIFvW9IuuUBST2807+fJwr6XFzgiLKQGd/IDL/gao7SnYq9UeKJu1l8JER/svuZFWh4KNbBEqJBPTpPRSIYDu5KyMY53iNEv1mgu2TvEWBoyrthgSA7i/8+Kr3cta3q3wBGgA7zEesis4gNBQKx8gLfalC3W3ZeQ8t764kinLTOOIAUFcCuotxCrUxe4ewrU1dkcmewegj1f2l9uIhLnxjcBH0LvctC7WZ/B6O7mDU1zvnpw9NjENzw0hm83x8Io+UgOwu9hOZBMSUA8FQNbig6Y1/TSBu/lmg2jLTGxZJ3l0mS3rTfctmw+28ps61PRTsPf61TympndCAxK4RhoT3xdsoZclHkuAhEt1GCAZynRsk4MXuHWsEUSAjNvWndYUH/LpSgIa95I0yuZtp4TYic3Db7SpWjd0knDx6XnTTiWKUMn8d44pQyASok5JcJM5/em5qBgghGCIDHmOXc4NbMfdWnd7N4Y+jHshaDYeGJXAHGhOl4TZAGhJM1IQgr8xJjRfNH8nhTo2XF+cp+Tri0beZM+t3yJXLdKhBHl0+gMwTX/avhLUY/VPdT/QRFZ2brf80LasWenmPc+M5wbpXitOnvwgJwYWqfLs6CTuEbDLv/ej1ATzIbfoLMn4paH+i7oH/lMTYZ1dcWtWpFj/t3aruwDzxtv4S+x2yENjZa0A7rKXst3T/RnjJhmZTtYdNQZnc3YMDqHQTbMAVFSB5cDFKWnuRUg3NTh9Z8OCJCxDgxC6VY9oE5HdnXYixi8sFU2tlK+lWOFUh8hhMIXfHWgZ95etpgth+RhgFYKKNbmVxx0ICwxQOS8c8wV3Cnt6v9NPpnwa6wPSGV7DJvjHXLT60rSLR9iNSisaBlVlmkVDlhSNuJiOjJzrAmR2dLx2yAtseT0pblY5RNaVnfegm6SxLh1/qQlPtCbENOD6DAKb9ZpQ1wA7IWKf5XsktyDabAh0FBtMevEFzwugt2z4/HFWzohqcvTqRm3lL8aCNcrdCuzQwFwo9JqkarUr0Mym83n1ILhUzMy/qGeJn5qpIiPi/fFQENcaO5yzM36m3IdpQsEYCqScKhdvr/ZTn7TrPxy6IaMxMuKyRtgVMhH89FjQ2lHaAwLmGjD30E2JyYIFVra7OPa9nEY9GfN+qAujNt0Lms36wglaBVs/CvPT9KYIZ9qllPDwcWgRHuRqiaSiBpLBSks+e3yM41Y26E8uMo6YUgI8NwpAr0FrZaYSuK0zu3WWD4dSlCTyA05gEVnrfnD8jk31Z5XbdlYF3Bj5fiaedCezjDnjO2n2vDIE5C/v2E/ezTZnODy/TSplS+z0IGRIgVnClBQLDvnIxgpnT5wv4r/x2GwW6OZvUknS7DAdFkcGGmP6ZKAFhiwowHxzFbGRHkoBYBse7jt1XDLklQ1CdUNF/hAkRFbPvulNWUpqsqn3uBI/QxGJNCkFW8kkVtf/mpOWiKyDNaP7LK8y1RGrDGwu9nPjxkLYDs0wET8FydyXViXwAhcUZXZFXAJuhtVc4blsHrXLN/zSvf1A8j0OgRbs7zrt45r3eG8QXZoZ3ENWB6OPh8LfvoGTeA9j/z+mT1DKBv1cMNI/fjyjUlisb2IJmMACdxFCPc+fDwP25grghluXu+7D3mjwZYAjgmrscCmZJSPIQwCWPNS8/hhUeALd5usTQAeyR3uvgBYyrG0vCNpduuqkNewo0Xd35YK4FWqfiWakg+KC9u//xRr+mKYpgMrxhwYn34G1MZJtPb/vWnUNxHF6NbFPlSFwplADwRPGYkaaH+NMYDiXMCBtjMMqsEZXnzfIGnKZdyEbkkAF60RjQHAw0aNC4Fb7bx63eKMoi8VUMJZzTsJny3BqMRCy2KJj63UDrXd4qZ6CQOrHPhNJTLldd4XxHE8Aym00y/BcO+rdcIHliXOr9JgEBC/I3ArImTof1scaEWY0335eD+1D4w5Q2uUv6muKGzykzBmlfJ5rdmJ/E6Dr9P0glEyBeCfgn7nyYR7nPbc/6K+0UjE8PyE4bMl/+OikADtAFWBwCz4UUF0Xv7lnEvbE9SPtLH9nYeqoVwc9l7BjYRWnswd62gBLtGeYPbOv7bcnKYOP4fcewFv8v2sIe9WrPuakO9F9aiY4rqXAa2WHX3ulItjV10LZ7mTLXlDNY2QGI5EEEjbbZHf1UG0VxOusfURb9HX+VL5mpTYkTFqbHlImGzvAK+jhCAxHvPj1eFSelgJtyqfOSV+HVJaEQlv9MWcHq9kkqzz1i4PZLHtPec4YgGoF6jl9kU9XY9cgNSECreFtLL3zdLn2Rw9BWfEebNu2I7HzJGq1TifVybb1m8OWDVIDJFw1Puo5Wu/QwQ/nTZPZ9boQFoNlhym7xXtYB9JV54azFROWrRsaZf6CR7F4gtOoSwQWV/ubCz6etqcP7n6TtEJxnIfwpGghRDnMey2jrNnybVNhXnEd/7KI4lNXN6GLA2orSoRRjeDPjSMdCDG/HLo4VaP1WBZe55/1wGthQdJ/fMqBO8wk0sJ5WCCLMT4iZ/AhFRAzI8K8BOYzuZg+QISqipeOELWfZr3cEME1KtjFZ5YhYbrdhW8AW3cSxM08HJbtQ687Z0JkuoKsq4/3lVp2y/dnLNKtw1GBJkR/TAnuP4V8inIH87o1JqDEuEkOvjeHhWRSbB57EMMrFUquCrHl0lTRXBg8/IhQQlZRPn+tBLLdx/71ToTd+/n2SspwOlKIguTCoZAKAX2ashbnboi7VUDFfBQSsp+i3y7FgCvWaXFkZ3lDbmAXbohiuPSQ3Mo2D6c7ozAmWu5SQvkTWNNsi46G9CaVVxQHDp7NkKSkcSYjO6QdeL1MThO40AbBFcoPX65DL16pu6PXibYcHhA1vT9CUvY3Cjj/Ro6RfazXvyASgITwdYWOb7XBk6ElTDfzYLQGZqKhWsEJUaBb+VTJj/4lM1eJVylsVktKo0TcgCqxafz9xh9TEsfTnHC9cvUIHJ97rZWF7CyTG6NuKgmYbsBKI8ecPZI+Zbxz7XvkVlLyEdy+ULq5SDRarc7sNrs+Hh1TtU80wNV0by2EFnSslpHMw3+OatE0ZaTWcbGAwDiepiKmCcQsAAAABJH36bOxgidHrorqqyjSi3wTRcuO4K3CcjU5nqK3hn4Gi+mqfaHtQtJDrOPBI29AAAAAAAAAAAABFWElGugAAAEV4aWYAAElJKgAIAAAABgASAQMAAQAAAAEAAAAaAQUAAQAAAFYAAAAbAQUAAQAAAF4AAAAoAQMAAQAAAAIAAAATAgMAAQAAAAEAAABphwQAAQAAAGYAAAAAAAAASAAAAAEAAABIAAAAAQAAAAYAAJAHAAQAAAAwMjEwAZEHAAQAAAABAgMAAKAHAAQAAAAwMTAwAaADAAEAAAD//wAAAqAEAAEAAAAAAgAAA6AEAAEAAAAAAgAAAAAAAA==;" vertex="1" parent="1">
          <mxGeometry x="432.97" y="160.22000000000003" width="62" height="62" as="geometry" />
        </mxCell>
        <mxCell id="iRurOOvZnpyoRWt16AXX-10" value="DOCKER" style="text;html=1;align=center;verticalAlign=middle;whiteSpace=wrap;rounded=0;fontColor=light-dark(#000000,#000000);" vertex="1" parent="1">
          <mxGeometry x="90" y="30" width="60" height="20" as="geometry" />
        </mxCell>
        <mxCell id="iRurOOvZnpyoRWt16AXX-11" value="" style="outlineConnect=0;dashed=0;verticalLabelPosition=bottom;verticalAlign=top;align=center;html=1;shape=mxgraph.aws3.user;fillColor=#D2D3D3;gradientColor=none;" vertex="1" parent="1">
          <mxGeometry x="20.00000000000003" y="85.48" width="45" height="63" as="geometry" />
        </mxCell>
        <mxCell id="iRurOOvZnpyoRWt16AXX-14" style="edgeStyle=orthogonalEdgeStyle;rounded=0;orthogonalLoop=1;jettySize=auto;html=1;entryX=0;entryY=0.5;entryDx=0;entryDy=0;fontColor=light-dark(#000000,#000000);strokeColor=light-dark(#000000,#000000);exitX=1;exitY=0.68;exitDx=0;exitDy=0;exitPerimeter=0;" edge="1" parent="1" source="iRurOOvZnpyoRWt16AXX-11" target="iRurOOvZnpyoRWt16AXX-6">
          <mxGeometry relative="1" as="geometry" />
        </mxCell>
        <mxCell id="iRurOOvZnpyoRWt16AXX-12" value="USERS" style="text;html=1;align=center;verticalAlign=middle;whiteSpace=wrap;rounded=0;fontColor=light-dark(#000000,#000000);fontSize=7;" vertex="1" parent="1">
          <mxGeometry x="22.50000000000003" y="148.48000000000002" width="40" height="17" as="geometry" />
        </mxCell>
        <mxCell id="iRurOOvZnpyoRWt16AXX-19" value="FRONTEND" style="text;html=1;align=center;verticalAlign=middle;whiteSpace=wrap;rounded=0;fontColor=light-dark(#000000,#000000);fontSize=7;" vertex="1" parent="1">
          <mxGeometry x="160" y="143.22000000000003" width="50" height="17" as="geometry" />
        </mxCell>
        <mxCell id="iRurOOvZnpyoRWt16AXX-20" value="API" style="text;html=1;align=center;verticalAlign=middle;whiteSpace=wrap;rounded=0;fontColor=light-dark(#000000,#000000);fontSize=7;" vertex="1" parent="1">
          <mxGeometry x="287.74" y="160.22000000000003" width="40" height="17" as="geometry" />
        </mxCell>
        <mxCell id="iRurOOvZnpyoRWt16AXX-21" value="DATABASE" style="text;html=1;align=center;verticalAlign=middle;whiteSpace=wrap;rounded=0;fontColor=light-dark(#000000,#000000);fontSize=7;" vertex="1" parent="1">
          <mxGeometry x="443.97" y="222.22000000000003" width="46.03" height="17" as="geometry" />
        </mxCell>
      </root>
    </mxGraphModel>
  </diagram>
</mxfile>
